<svg xmlns="http://www.w3.org/2000/svg" xmlns:svg="http://www.w3.org/2000/svg" id="svg4090" width="526.944" height="379.537" version="1.1"><defs id="defs4092"><marker id="Arrow1Mend" orient="auto" refX="0" refY="0" style="overflow:visible"><path id="path10501" d="M 0,0 5,-5 -12.5,0 5,5 0,0 z" transform="matrix(-0.4,0,0,-0.4,-4,0)" style="fill-rule:evenodd;stroke:#000;stroke-width:1pt"/></marker><marker id="marker4017" orient="auto" refX="0" refY="0" style="overflow:visible"><path id="path4019" d="M 0,0 5,-5 -12.5,0 5,5 0,0 z" transform="matrix(-0.4,0,0,-0.4,-4,0)" style="fill-rule:evenodd;stroke:#000;stroke-width:1pt"/></marker><marker id="marker4021" orient="auto" refX="0" refY="0" style="overflow:visible"><path id="path4023" d="M 0,0 5,-5 -12.5,0 5,5 0,0 z" transform="matrix(-0.4,0,0,-0.4,-4,0)" style="fill-rule:evenodd;stroke:#000;stroke-width:1pt"/></marker><marker id="marker4025" orient="auto" refX="0" refY="0" style="overflow:visible"><path id="path4027" d="M 0,0 5,-5 -12.5,0 5,5 0,0 z" transform="matrix(-0.4,0,0,-0.4,-4,0)" style="fill-rule:evenodd;stroke:#000;stroke-width:1pt"/></marker><marker id="marker4029" orient="auto" refX="0" refY="0" style="overflow:visible"><path id="path4031" d="M 0,0 5,-5 -12.5,0 5,5 0,0 z" transform="matrix(-0.4,0,0,-0.4,-4,0)" style="fill-rule:evenodd;stroke:#000;stroke-width:1pt"/></marker><marker id="marker4033" orient="auto" refX="0" refY="0" style="overflow:visible"><path id="path4035" d="M 0,0 5,-5 -12.5,0 5,5 0,0 z" transform="matrix(-0.4,0,0,-0.4,-4,0)" style="fill-rule:evenodd;stroke:#000;stroke-width:1pt"/></marker><marker id="Arrow1Mstart" orient="auto" refX="0" refY="0" style="overflow:visible"><path id="path10498" d="M 0,0 5,-5 -12.5,0 5,5 0,0 z" transform="matrix(0.4,0,0,0.4,4,0)" style="fill-rule:evenodd;stroke:#000;stroke-width:1pt"/></marker><marker id="marker4039" orient="auto" refX="0" refY="0" style="overflow:visible"><path id="path4041" d="M 0,0 5,-5 -12.5,0 5,5 0,0 z" transform="matrix(0.4,0,0,0.4,4,0)" style="fill-rule:evenodd;stroke:#000;stroke-width:1pt"/></marker><marker id="marker4043" orient="auto" refX="0" refY="0" style="overflow:visible"><path id="path4045" d="M 0,0 5,-5 -12.5,0 5,5 0,0 z" transform="matrix(0.4,0,0,0.4,4,0)" style="fill-rule:evenodd;stroke:#000;stroke-width:1pt"/></marker><marker id="marker4047" orient="auto" refX="0" refY="0" style="overflow:visible"><path id="path4049" d="M 0,0 5,-5 -12.5,0 5,5 0,0 z" transform="matrix(0.4,0,0,0.4,4,0)" style="fill-rule:evenodd;stroke:#000;stroke-width:1pt"/></marker></defs><metadata id="metadata4095"/><g id="layer1" transform="translate(-35.078263,-28.308125)"><rect style="fill:none;stroke:#000;stroke-width:.99999988;stroke-opacity:.98412697" id="rect10443" width="152.964" height="266.926" x="122.956" y="34.643"/><rect style="fill:none;stroke:#000;stroke-width:1;stroke-opacity:.98412697" id="rect10445" width="124.714" height="46.676" x="435.775" y="28.808"/><rect style="fill:none;stroke:#000;stroke-width:.99999988;stroke-opacity:.98412697" id="rect10445-2" width="124.714" height="46.676" x="435.43" y="103.927"/><rect style="fill:none;stroke:#000;stroke-width:.99999988;stroke-opacity:.98412697" id="rect10445-0" width="124.714" height="46.676" x="436.808" y="178.316"/><rect style="fill:none;stroke:#000;stroke-width:.99999988;stroke-opacity:.98412697" id="rect10445-9" width="124.714" height="46.676" x="436.808" y="246.87"/><rect style="fill:none;stroke:#000;stroke-width:.99999988;stroke-opacity:.98412697" id="rect10445-7" width="124.714" height="46.676" x="135.706" y="360.669"/><path style="fill:none;stroke:#000;stroke-width:.99200004;stroke-linecap:butt;stroke-linejoin:miter;stroke-miterlimit:3;stroke-opacity:1;stroke-dasharray:none;marker-start:url(#Arrow1Mstart)" id="path10486" d="M 277.293,44.129101 433.02373,43.388655"/><path style="fill:none;stroke:#000;stroke-width:.99200004;stroke-linecap:butt;stroke-linejoin:miter;stroke-miterlimit:3;stroke-opacity:1;stroke-dasharray:none;marker-start:url(#Arrow1Mstart)" id="path10486-2" d="m 277.83855,110.78109 155.73073,-0.74044"/><path style="fill:none;stroke:#000;stroke-width:.99200004;stroke-linecap:butt;stroke-linejoin:miter;stroke-miterlimit:3;stroke-opacity:1;stroke-dasharray:none;marker-start:url(#Arrow1Mstart)" id="path10486-1" d="m 278.48623,189.32721 155.73073,-0.74042"/><path style="fill:none;stroke:#000;stroke-width:.99200004;stroke-linecap:butt;stroke-linejoin:miter;stroke-miterlimit:3;stroke-opacity:1;stroke-dasharray:none;marker-start:url(#Arrow1Mstart)" id="path10486-4" d="m 278.48623,255.19448 155.73073,-0.74043"/><path style="fill:none;stroke:#000;stroke-width:.99200004;stroke-linecap:butt;stroke-linejoin:miter;stroke-miterlimit:3;stroke-opacity:1;stroke-dasharray:none;marker-start:none;marker-mid:none;marker-end:url(#Arrow1Mend)" id="path10486-0" d="M 277.11852,66.041829 432.84924,65.301384"/><path style="fill:none;stroke:#000;stroke-width:.99200004;stroke-linecap:butt;stroke-linejoin:miter;stroke-miterlimit:3;stroke-opacity:1;stroke-dasharray:none;marker-start:none;marker-mid:none;marker-end:url(#Arrow1Mend)" id="path10486-0-4" d="M 277.46746,136.71727 433.1982,135.97682"/><path style="fill:none;stroke:#000;stroke-width:.99200004;stroke-linecap:butt;stroke-linejoin:miter;stroke-miterlimit:3;stroke-opacity:1;stroke-dasharray:none;marker-start:none;marker-mid:none;marker-end:url(#Arrow1Mend)" id="path10486-0-7" d="m 276.77843,210.37709 155.73073,-0.74044"/><path style="fill:none;stroke:#000;stroke-width:.99200004;stroke-linecap:butt;stroke-linejoin:miter;stroke-miterlimit:3;stroke-opacity:1;stroke-dasharray:none;marker-start:none;marker-mid:none;marker-end:url(#Arrow1Mend)" id="path10486-0-77" d="M 277.46746,282.5783 433.1982,281.83785"/><text style="font-size:9.32312489px;font-style:normal;font-weight:400;line-height:125%;letter-spacing:0;word-spacing:0;fill:#000;fill-opacity:1;stroke:none;font-family:Sans" id="text11995" x="348.032" y="34.793" transform="scale(0.93992342,1.0639165)" xml:space="preserve"><tspan id="tspan11997" x="348.032" y="34.793">Request packet</tspan></text><text style="font-size:9.32312489px;font-style:normal;font-weight:400;line-height:125%;letter-spacing:0;word-spacing:0;fill:#000;fill-opacity:1;stroke:none;font-family:Sans" id="text11995-7" x="349.519" y="74.045" transform="scale(0.93992342,1.0639165)" xml:space="preserve"><tspan id="tspan11997-3" x="349.519" y="74.045">Mbuf pointer</tspan></text><text style="font-size:9.32312489px;font-style:normal;font-weight:400;line-height:125%;letter-spacing:0;word-spacing:0;fill:#000;fill-opacity:1;stroke:none;font-family:Sans" id="text11995-7-3" x="504.266" y="52.166" transform="scale(0.93992342,1.0639165)" xml:space="preserve"><tspan id="tspan11997-3-5" x="504.266" y="52.166">WorkerThread1</tspan></text><text style="font-size:9.32312489px;font-style:normal;font-weight:400;line-height:125%;letter-spacing:0;word-spacing:0;fill:#000;fill-opacity:1;stroke:none;font-family:Sans" id="text11995-7-3-9" x="501.658" y="121.544" transform="scale(0.93992342,1.0639165)" xml:space="preserve"><tspan id="tspan11997-3-5-9" x="501.658" y="121.544">WorkerThread2</tspan></text><text style="font-size:9.32312489px;font-style:normal;font-weight:400;line-height:125%;letter-spacing:0;word-spacing:0;fill:#000;fill-opacity:1;stroke:none;font-family:Sans" id="text11995-7-3-8" x="499.459" y="191.464" transform="scale(0.93992342,1.0639165)" xml:space="preserve"><tspan id="tspan11997-3-5-1" x="499.459" y="191.464">WorkerThread3</tspan></text><text style="font-size:9.32312489px;font-style:normal;font-weight:400;line-height:125%;letter-spacing:0;word-spacing:0;fill:#000;fill-opacity:1;stroke:none;font-family:Sans" id="text11995-7-3-82" x="500.192" y="257.956" transform="scale(0.93992342,1.0639165)" xml:space="preserve"><tspan id="tspan11997-3-5-6" x="500.192" y="257.956">WorkerThreadN</tspan></text><text style="font-size:9.32312489px;font-style:normal;font-weight:400;line-height:125%;letter-spacing:0;word-spacing:0;fill:#000;fill-opacity:1;stroke:none;font-family:Sans" id="text11995-7-3-6" x="193.797" y="362.852" transform="scale(0.93992342,1.0639165)" xml:space="preserve"><tspan id="tspan11997-3-5-0" x="193.797" y="362.852">TX thread</tspan></text><text style="font-size:9.32312489px;font-style:normal;font-weight:400;line-height:125%;letter-spacing:0;word-spacing:0;fill:#000;fill-opacity:1;stroke:none;font-family:Sans" id="text11995-7-3-3" x="162.248" y="142.794" transform="scale(0.93992342,1.0639165)" xml:space="preserve"><tspan id="tspan11997-3-5-8" x="162.248" y="142.794">RX thread &amp; Distributor</tspan></text><path style="fill:none;stroke:#000;stroke-width:.75945646;stroke-linecap:butt;stroke-linejoin:miter;stroke-miterlimit:3;stroke-opacity:1;stroke-dasharray:none;marker-start:none;marker-mid:none;marker-end:url(#Arrow1Mend)" id="path10486-0-4-5" d="m 35.457991,109.77995 85.546359,-0.79004"/><path style="fill:none;stroke:#000;stroke-width:.75945646;stroke-linecap:butt;stroke-linejoin:miter;stroke-miterlimit:3;stroke-opacity:1;stroke-dasharray:none;marker-start:none;marker-mid:none;marker-end:url(#Arrow1Mend)" id="path10486-0-4-5-7" d="m 135.70569,384.00706 -85.546361,0.79003"/><text style="font-size:9.32312489px;font-style:normal;font-weight:400;line-height:125%;letter-spacing:0;word-spacing:0;fill:#000;fill-opacity:1;stroke:none;font-family:Sans" id="text11995-7-8" x="58.297" y="96.037" transform="scale(0.93992342,1.0639165)" xml:space="preserve"><tspan id="tspan11997-3-3" x="58.297" y="96.037">Mbufs In</tspan></text><text style="font-size:9.32312489px;font-style:normal;font-weight:400;line-height:125%;letter-spacing:0;word-spacing:0;fill:#000;fill-opacity:1;stroke:none;font-family:Sans" id="text11995-7-8-5" x="83.481" y="352.625" transform="scale(0.93992342,1.0639165)" xml:space="preserve"><tspan id="tspan11997-3-3-1" x="83.481" y="352.625">Mbufs Out</tspan></text><path style="fill:none;stroke:#000;stroke-width:1.05720723;stroke-miterlimit:3;stroke-opacity:.98412697;stroke-dasharray:none" id="path12188" d="m 171.68192,303.16236 0.21464,30.4719 -8.6322,0.40574 -11.33877,0.1956 25.75778,14.79103 23.25799,11.11792 18.87014,-7.32926 31.83305,-17.26495 -10.75831,-0.32986 -10.37586,-0.44324 -0.22443,-31.54093 z"/><text style="font-size:9.32312489px;font-style:normal;font-weight:400;line-height:125%;letter-spacing:0;word-spacing:0;fill:#000;fill-opacity:1;stroke:none;font-family:Sans" id="text11995-7-3-6-2" x="193.689" y="309.263" transform="scale(0.93992342,1.0639165)" xml:space="preserve"><tspan id="tspan12214" x="193.689" y="309.263">SW Ring</tspan></text></g></svg>