<svg xmlns="http://www.w3.org/2000/svg" xmlns:svg="http://www.w3.org/2000/svg" id="svg6126" width="469.492" height="382.115" version="1.1"><defs id="defs6128"><clipPath id="clipEmfPath1" clipPathUnits="userSpaceOnUse"><rect id="rect6139" width="585" height="406.594" x="0" y="0"/></clipPath><clipPath id="clipEmfPath2" clipPathUnits="userSpaceOnUse"><rect id="rect6142" width="277.8" height="134.382" x="49.65" y="247.766"/></clipPath><clipPath id="clipEmfPath3" clipPathUnits="userSpaceOnUse"><rect id="rect6145" width="230.55" height="93.137" x="72.15" y="280.012"/></clipPath><clipPath id="clipEmfPath4" clipPathUnits="userSpaceOnUse"><rect id="rect6148" width="45.9" height="13.648" x="76.65" y="308.508"/></clipPath><clipPath id="clipEmfPath5" clipPathUnits="userSpaceOnUse"><rect id="rect6151" width="83.4" height="13.648" x="126.15" y="308.508"/></clipPath><clipPath id="clipEmfPath6" clipPathUnits="userSpaceOnUse"><rect id="rect6154" width="208.2" height="137.381" x="240.75" y="18.148"/></clipPath><clipPath id="clipEmfPath7" clipPathUnits="userSpaceOnUse"><rect id="rect6157" width="190.2" height="137.381" x="42.75" y="18.148"/></clipPath><clipPath id="clipEmfPath8" clipPathUnits="userSpaceOnUse"><rect id="rect6160" width="142.65" height="93.137" x="66.45" y="54.593"/></clipPath><clipPath id="clipEmfPath9" clipPathUnits="userSpaceOnUse"><rect id="rect6163" width="45.9" height="13.648" x="70.95" y="83.089"/></clipPath><clipPath id="clipEmfPath10" clipPathUnits="userSpaceOnUse"><rect id="rect6166" width="83.4" height="13.648" x="120.45" y="83.089"/></clipPath><clipPath id="clipEmfPath11" clipPathUnits="userSpaceOnUse"><rect id="rect6169" width="161.4" height="90.888" x="265.2" y="53.093"/></clipPath><clipPath id="clipEmfPath12" clipPathUnits="userSpaceOnUse"><rect id="rect6172" width="54.6" height="13.648" x="270.45" y="84.588"/></clipPath><clipPath id="clipEmfPath13" clipPathUnits="userSpaceOnUse"><rect id="rect6175" width="90.15" height="13.648" x="329.55" y="84.588"/></clipPath><clipPath id="clipEmfPath14" clipPathUnits="userSpaceOnUse"><rect id="rect6178" width="83.4" height="13.648" x="213.9" y="308.508"/></clipPath></defs><metadata id="metadata6131"/><g id="layer1" transform="translate(-156.65375,-367.02875)"><rect id="rect3114" width="279.144" height="142.716" x="186.01" y="597.786" style="fill:none;stroke:#000;stroke-width:1.1530993;stroke-linecap:butt;stroke-linejoin:miter;stroke-miterlimit:4;stroke-opacity:1;stroke-dasharray:3.45929811,1.15309937;stroke-dashoffset:0"/><path id="path6188" d="m 71.775,275.13743 0,102.73597 231.15,0 0,-102.73597 -231.15,0 z" clip-path="url(#clipEmfPath2)" transform="translate(137.14575,354.09808)" style="fill:#fff;fill-opacity:1;fill-rule:evenodd;stroke:none"/><path id="path6190" d="m 208.92075,629.23551 231.15,0 0,102.73597 -231.15,0 z" style="fill:none;stroke:#000;stroke-width:.60000002px;stroke-linecap:butt;stroke-linejoin:round;stroke-opacity:1;stroke-dasharray:none"/><path id="path6192" d="m 76.275,303.63354 0,23.24683 46.5,0 0,-23.24683 -46.5,0 z" clip-path="url(#clipEmfPath3)" transform="translate(137.14575,354.09808)" style="fill:#fff;fill-opacity:1;fill-rule:evenodd;stroke:none"/><path id="path6194" d="m 213.42075,657.73162 46.5,0 0,23.24683 -46.5,0 z" style="fill:none;stroke:#000;stroke-width:.60000002px;stroke-linecap:butt;stroke-linejoin:round;stroke-opacity:1;stroke-dasharray:none"/><path id="path6196" d="m 125.775,303.63354 0,23.24683 84,0 0,-23.24683 -84,0 z" clip-path="url(#clipEmfPath4)" transform="translate(137.14575,354.09808)" style="fill:#fff;fill-opacity:1;fill-rule:evenodd;stroke:none"/><path id="path6198" d="m 262.92075,657.73162 84,0 0,23.24683 -84,0 z" style="fill:none;stroke:#000;stroke-width:.60000002px;stroke-linecap:butt;stroke-linejoin:round;stroke-opacity:1;stroke-dasharray:none"/><path id="path6200" d="m 76.275,329.87996 0,41.99426 46.5,0 0,-41.99426 -46.5,0 z" clip-path="url(#clipEmfPath5)" transform="translate(137.14575,354.09808)" style="fill:#fff;fill-opacity:1;fill-rule:evenodd;stroke:none"/><path id="path6202" d="m 213.42075,683.97804 46.5,0 0,41.99426 -46.5,0 z" style="fill:none;stroke:#000;stroke-width:.60000002px;stroke-linecap:butt;stroke-linejoin:round;stroke-opacity:1;stroke-dasharray:none"/><path id="path6204" d="m 262.92075,683.97804 0,42.74416 84,0 0,-42.74416 -84,0 z" style="fill:#fff;fill-opacity:1;fill-rule:evenodd;stroke:none"/><path id="path6206" d="m 262.92075,683.97804 84,0 0,42.74416 -84,0 z" style="fill:none;stroke:#000;stroke-width:.60000002px;stroke-linecap:butt;stroke-linejoin:round;stroke-opacity:1;stroke-dasharray:none"/><rect id="rect3920-48" width="16.515" height="21.219" x="177.682" y="647.82" style="fill:#fff;fill-opacity:1;stroke:none"/><path id="path6208" d="m 179.52075,649.33277 3.2625,0 c 0.35625,0 0.6375,0.29996 0.6375,0.65616 l 0,16.74146 -3.9,0 z" style="fill:none;stroke:#000;stroke-width:1.20000005px;stroke-linecap:butt;stroke-linejoin:miter;stroke-miterlimit:4;stroke-opacity:1;stroke-dasharray:none"/><path id="path6210" d="m 183.42075,649.18279 3.13125,0 c 0.35625,0 0.61875,0.28121 0.61875,0.63741 l 0,16.91019 -3.75,0 z" style="fill:none;stroke:#000;stroke-width:1.20000005px;stroke-linecap:butt;stroke-linejoin:miter;stroke-miterlimit:4;stroke-opacity:1;stroke-dasharray:none"/><path id="path6212" d="m 187.17075,649.33277 3.2625,0 c 0.35625,0 0.6375,0.29996 0.6375,0.65616 l 0,16.74146 -3.9,0 z" style="fill:none;stroke:#000;stroke-width:1.20000005px;stroke-linecap:butt;stroke-linejoin:miter;stroke-miterlimit:4;stroke-opacity:1;stroke-dasharray:none"/><rect id="rect3920-48-8" width="16.515" height="21.219" x="176.61" y="694.249" style="fill:#fff;fill-opacity:1;stroke:none"/><path id="path6214" d="m 179.52075,696.57632 3.2625,0 c 0.35625,0 0.6375,0.29996 0.6375,0.65616 l 0,16.74146 -3.9,0 z" style="fill:none;stroke:#000;stroke-width:1.20000005px;stroke-linecap:butt;stroke-linejoin:miter;stroke-miterlimit:4;stroke-opacity:1;stroke-dasharray:none"/><path id="path6216" d="m 183.42075,696.42634 3.13125,0 c 0.35625,0 0.61875,0.28121 0.61875,0.63741 l 0,16.91019 -3.75,0 z" style="fill:none;stroke:#000;stroke-width:1.20000005px;stroke-linecap:butt;stroke-linejoin:miter;stroke-miterlimit:4;stroke-opacity:1;stroke-dasharray:none"/><path id="path6218" d="m 187.17075,696.57632 3.2625,0 c 0.35625,0 0.6375,0.29996 0.6375,0.65616 l 0,16.74146 -3.9,0 z" style="fill:none;stroke:#000;stroke-width:1.20000005px;stroke-linecap:butt;stroke-linejoin:miter;stroke-miterlimit:4;stroke-opacity:1;stroke-dasharray:none"/><path id="path6220" d="m 162.4395,659.13768 12.1125,-0.33745 -0.0375,-1.25608 -12.09375,0.33745 0.0188,1.25608 z m 12.09375,-0.95612 -2.4,3.80573 7.3875,-3.95571 -7.59375,-3.52452 2.60625,3.6745 z" style="fill:#000;fill-opacity:1;fill-rule:nonzero;stroke:#000;stroke-width:.01875;stroke-linecap:butt;stroke-linejoin:round;stroke-opacity:1;stroke-dasharray:.01875,.01875;stroke-miterlimit:4;stroke-dashoffset:0"/><path id="path6222" d="m 191.8395,659.13768 12.1125,-0.33745 -0.0375,-1.25608 -12.09375,0.33745 0.0187,1.25608 z m 12.09375,-0.95612 -2.4,3.80573 7.3875,-3.95571 -7.59375,-3.52452 2.60625,3.6745 z" style="fill:#000;fill-opacity:1;fill-rule:nonzero;stroke:#000;stroke-width:.01875;stroke-linecap:butt;stroke-linejoin:round;stroke-opacity:1;stroke-dasharray:.01875,.01875;stroke-miterlimit:4;stroke-dashoffset:0"/><path id="path6224" d="m 191.0895,705.63133 12.1125,-0.33745 -0.0375,-1.25608 -12.09375,0.33745 0.0187,1.25608 z m 12.09375,-0.95612 -2.4,3.80573 7.3875,-3.95571 -7.59375,-3.52452 2.60625,3.6745 z" style="fill:#000;fill-opacity:1;fill-rule:nonzero;stroke:#000;stroke-width:.01875;stroke-linecap:butt;stroke-linejoin:round;stroke-opacity:1;stroke-dasharray:.01875,.0375;stroke-miterlimit:4;stroke-dashoffset:0"/><path id="path6226" d="m 162.4395,705.63133 12.1125,-0.33745 -0.0375,-1.25608 -12.09375,0.33745 0.0188,1.25608 z m 12.09375,-0.95612 -2.4,3.80573 7.3875,-3.95571 -7.59375,-3.52452 2.60625,3.6745 z" style="fill:#000;fill-opacity:1;fill-rule:nonzero;stroke:#000;stroke-width:.01875;stroke-linecap:butt;stroke-linejoin:round;stroke-opacity:1;stroke-dasharray:.01875,.01875;stroke-miterlimit:4;stroke-dashoffset:0"/><path id="path6228" d="m 377.52075,367.37127 0,146.97993 208.8,0 0,-146.97993 -208.8,0 z" style="fill:#fff;fill-opacity:1;fill-rule:evenodd;stroke:none"/><path id="path6232" d="m 42.375,13.273188 0,146.979932 190.8,0 0,-146.979932 -190.8,0 z" clip-path="url(#clipEmfPath6)" transform="translate(137.14575,354.09808)" style="fill:#fff;fill-opacity:1;fill-rule:evenodd;stroke:none"/><rect id="rect3114-1" width="191.966" height="148.43" x="180.025" y="368.291" style="fill:none;stroke:#000;stroke-width:1.1530993;stroke-linecap:butt;stroke-linejoin:miter;stroke-miterlimit:4;stroke-opacity:1;stroke-dasharray:3.45929801,1.15309934;stroke-dashoffset:0"/><path id="path6236" d="m 66.075,49.718211 0,102.735969 143.25,0 0,-102.735969 -143.25,0 z" clip-path="url(#clipEmfPath7)" transform="translate(137.14575,354.09808)" style="fill:#fff;fill-opacity:1;fill-rule:evenodd;stroke:none"/><path id="path6238" d="m 203.22075,403.81629 143.25,0 0,102.73597 -143.25,0 z" style="fill:none;stroke:#000;stroke-width:.60000002px;stroke-linecap:butt;stroke-linejoin:round;stroke-opacity:1;stroke-dasharray:none"/><path id="path6240" d="m 70.575,78.21432 0,23.24683 46.5,0 0,-23.24683 -46.5,0 z" clip-path="url(#clipEmfPath8)" transform="translate(137.14575,354.09808)" style="fill:#fff;fill-opacity:1;fill-rule:evenodd;stroke:none"/><path id="path6242" d="m 207.72075,432.3124 46.5,0 0,23.24683 -46.5,0 z" style="fill:none;stroke:#000;stroke-width:.60000002px;stroke-linecap:butt;stroke-linejoin:round;stroke-opacity:1;stroke-dasharray:none"/><path id="path6244" d="m 120.075,78.21432 0,23.24683 84,0 0,-23.24683 -84,0 z" clip-path="url(#clipEmfPath9)" transform="translate(137.14575,354.09808)" style="fill:#fff;fill-opacity:1;fill-rule:evenodd;stroke:none"/><path id="path6246" d="m 257.22075,432.3124 84,0 0,23.24683 -84,0 z" style="fill:none;stroke:#000;stroke-width:.60000002px;stroke-linecap:butt;stroke-linejoin:round;stroke-opacity:1;stroke-dasharray:none"/><path id="path6248" d="m 70.575,104.46074 0,41.99426 46.5,0 0,-41.99426 -46.5,0 z" clip-path="url(#clipEmfPath10)" transform="translate(137.14575,354.09808)" style="fill:#fff;fill-opacity:1;fill-rule:evenodd;stroke:none"/><path id="path6250" d="m 207.72075,458.55882 46.5,0 0,41.99426 -46.5,0 z" style="fill:none;stroke:#000;stroke-width:.60000002px;stroke-linecap:butt;stroke-linejoin:round;stroke-opacity:1;stroke-dasharray:none"/><path id="path6252" d="m 257.22075,458.55882 0,42.74416 84,0 0,-42.74416 -84,0 z" style="fill:#fff;fill-opacity:1;fill-rule:evenodd;stroke:none"/><path id="path6254" d="m 257.22075,458.55882 84,0 0,42.74416 -84,0 z" style="fill:none;stroke:#000;stroke-width:.60000002px;stroke-linecap:butt;stroke-linejoin:round;stroke-opacity:1;stroke-dasharray:none"/><path id="path6256" d="m 401.97075,402.3165 0,100.48628 162,0 0,-100.48628 -162,0 z" style="fill:#fff;fill-opacity:1;fill-rule:evenodd;stroke:none"/><path id="path6258" d="m 401.97075,402.3165 162,0 0,100.48628 -162,0 z" style="fill:none;stroke:#000;stroke-width:.60000002px;stroke-linecap:butt;stroke-linejoin:round;stroke-opacity:1;stroke-dasharray:none"/><path id="path6260" d="m 270.075,79.714116 0,23.246824 55.2,0 0,-23.246824 -55.2,0 z" clip-path="url(#clipEmfPath11)" transform="translate(137.14575,354.09808)" style="fill:#fff;fill-opacity:1;fill-rule:evenodd;stroke:none"/><path id="path6262" d="m 407.22075,433.8122 55.2,0 0,23.24682 -55.2,0 z" style="fill:none;stroke:#000;stroke-width:.60000002px;stroke-linecap:butt;stroke-linejoin:round;stroke-opacity:1;stroke-dasharray:none"/><path id="path6264" d="m 329.025,79.714116 0,23.246824 90.9,0 0,-23.246824 -90.9,0 z" clip-path="url(#clipEmfPath12)" transform="translate(137.14575,354.09808)" style="fill:#fff;fill-opacity:1;fill-rule:evenodd;stroke:none"/><path id="path6266" d="m 466.17075,433.8122 90.9,0 0,23.24682 -90.9,0 z" style="fill:none;stroke:#000;stroke-width:.60000002px;stroke-linecap:butt;stroke-linejoin:round;stroke-opacity:1;stroke-dasharray:none"/><path id="path6268" d="m 269.325,106.71043 0,36.74498 55.95,0 0,-36.74498 -55.95,0 z" clip-path="url(#clipEmfPath13)" transform="translate(137.14575,354.09808)" style="fill:#fff;fill-opacity:1;fill-rule:evenodd;stroke:none"/><path id="path6270" d="m 406.47075,460.80851 55.95,0 0,36.74498 -55.95,0 z" style="fill:none;stroke:#000;stroke-width:.60000002px;stroke-linecap:butt;stroke-linejoin:round;stroke-opacity:1;stroke-dasharray:none"/><path id="path6272" d="m 466.92075,460.80851 0,36.74498 90.15,0 0,-36.74498 -90.15,0 z" style="fill:#fff;fill-opacity:1;fill-rule:evenodd;stroke:none"/><rect id="rect3114-1-7" width="208.756" height="148.379" x="377.859" y="367.843" style="fill:none;stroke:#000;stroke-width:1.1530993;stroke-linecap:butt;stroke-linejoin:miter;stroke-miterlimit:4;stroke-opacity:1;stroke-dasharray:3.45929818,1.15309941;stroke-dashoffset:0"/><path id="path6274" d="m 466.92075,460.80851 90.15,0 0,36.74498 -90.15,0 z" style="fill:none;stroke:#000;stroke-width:.60000002px;stroke-linecap:butt;stroke-linejoin:round;stroke-opacity:1;stroke-dasharray:none"/><rect id="rect3920-9" width="16.515" height="21.219" x="171.556" y="422.165" style="fill:#fff;fill-opacity:1;stroke:none"/><path id="path6276" d="m 173.82075,423.91355 3.25312,0 c 0.35625,0 0.64688,0.29996 0.64688,0.65616 l 0,16.74146 -3.9,0 z" style="fill:none;stroke:#000;stroke-width:1.20000005px;stroke-linecap:butt;stroke-linejoin:miter;stroke-miterlimit:4;stroke-opacity:1;stroke-dasharray:none"/><path id="path6278" d="m 177.72075,423.76357 3.25312,0 c 0.35625,0 0.64688,0.29996 0.64688,0.65616 l 0,16.89144 -3.9,0 z" style="fill:none;stroke:#000;stroke-width:1.20000005px;stroke-linecap:butt;stroke-linejoin:miter;stroke-miterlimit:4;stroke-opacity:1;stroke-dasharray:none"/><path id="path6280" d="m 181.62075,423.91355 3.13125,0 c 0.34687,0 0.61875,0.28121 0.61875,0.62804 l 0,16.76958 -3.75,0 z" style="fill:none;stroke:#000;stroke-width:1.20000005px;stroke-linecap:butt;stroke-linejoin:miter;stroke-miterlimit:4;stroke-opacity:1;stroke-dasharray:none"/><rect id="rect3920-0" width="16.515" height="21.219" x="171.503" y="469.729" style="fill:#fff;fill-opacity:1;stroke:none"/><path id="path6282" d="m 173.82075,471.1571 3.25312,0 c 0.35625,0 0.64688,0.29996 0.64688,0.65616 l 0,16.74146 -3.9,0 z" style="fill:none;stroke:#000;stroke-width:1.20000005px;stroke-linecap:butt;stroke-linejoin:miter;stroke-miterlimit:4;stroke-opacity:1;stroke-dasharray:none"/><path id="path6284" d="m 177.72075,471.00712 3.25312,0 c 0.35625,0 0.64688,0.29996 0.64688,0.65616 l 0,16.89144 -3.9,0 z" style="fill:none;stroke:#000;stroke-width:1.20000005px;stroke-linecap:butt;stroke-linejoin:miter;stroke-miterlimit:4;stroke-opacity:1;stroke-dasharray:none"/><path id="path6286" d="m 181.62075,471.1571 3.13125,0 c 0.34687,0 0.61875,0.28121 0.61875,0.62804 l 0,16.76958 -3.75,0 z" style="fill:none;stroke:#000;stroke-width:1.20000005px;stroke-linecap:butt;stroke-linejoin:miter;stroke-miterlimit:4;stroke-opacity:1;stroke-dasharray:none"/><path id="path6288" d="m 156.7395,433.70908 12.10312,-0.32808 -0.0375,-1.2467 -12.09375,0.32808 0.0281,1.24671 z m 12.08437,-0.95611 -2.39062,3.8151 7.3875,-3.95571 -7.59375,-3.53389 2.59687,3.6745 z" style="fill:#000;fill-opacity:1;fill-rule:nonzero;stroke:#000;stroke-width:.009375;stroke-linecap:butt;stroke-linejoin:round;stroke-opacity:1;stroke-dasharray:.009375,.009375;stroke-miterlimit:4;stroke-dashoffset:0"/><path id="path6290" d="m 186.1395,433.70908 12.10312,-0.32808 -0.0375,-1.2467 -12.09375,0.32808 0.0281,1.24671 z m 12.08437,-0.95611 -2.39062,3.8151 7.3875,-3.95571 -7.59375,-3.53389 2.59687,3.6745 z" style="fill:#000;fill-opacity:1;fill-rule:nonzero;stroke:#000;stroke-width:.009375;stroke-linecap:butt;stroke-linejoin:round;stroke-opacity:1;stroke-dasharray:.009375,.009375;stroke-miterlimit:4;stroke-dashoffset:0"/><path id="path6292" d="m 185.3895,480.20274 12.10312,-0.32808 -0.0375,-1.24671 -12.09375,0.32808 0.0281,1.24671 z m 12.08437,-0.95612 -2.39062,3.8151 7.3875,-3.95571 -7.59375,-3.53389 2.59687,3.6745 z" style="fill:#000;fill-opacity:1;fill-rule:nonzero;stroke:#000;stroke-width:.009375;stroke-linecap:butt;stroke-linejoin:round;stroke-opacity:1;stroke-dasharray:.009375,.009375;stroke-miterlimit:4;stroke-dashoffset:0"/><path id="path6294" d="m 156.7395,480.20274 12.10312,-0.32808 -0.0375,-1.24671 -12.09375,0.32808 0.0281,1.24671 z m 12.08437,-0.95612 -2.39062,3.8151 7.3875,-3.95571 -7.59375,-3.53389 2.59687,3.6745 z" style="fill:#000;fill-opacity:1;fill-rule:nonzero;stroke:#000;stroke-width:.009375;stroke-linecap:butt;stroke-linejoin:round;stroke-opacity:1;stroke-dasharray:.009375,.009375;stroke-miterlimit:4;stroke-dashoffset:0"/><rect id="rect3920-4" width="16.515" height="21.219" x="578.847" y="448.116" style="fill:#fff;fill-opacity:1;stroke:none"/><path id="path6296" d="m 581.07075,450.6099 3.13125,0 c 0.35625,0 0.61875,0.28121 0.61875,0.63741 l 0,16.9102 -3.75,0 z" style="fill:none;stroke:#000;stroke-width:1.20000005px;stroke-linecap:butt;stroke-linejoin:miter;stroke-miterlimit:4;stroke-opacity:1;stroke-dasharray:none"/><path id="path6298" d="m 584.82075,450.6099 3.2625,0 c 0.35625,0 0.6375,0.29996 0.6375,0.65616 l 0,16.74147 -3.9,0 z" style="fill:none;stroke:#000;stroke-width:1.20000005px;stroke-linecap:butt;stroke-linejoin:miter;stroke-miterlimit:4;stroke-opacity:1;stroke-dasharray:none"/><path id="path6300" d="m 588.72075,450.6099 3.2625,0 c 0.35625,0 0.6375,0.29996 0.6375,0.65616 l 0,16.89145 -3.9,0 z" style="fill:none;stroke:#000;stroke-width:1.20000005px;stroke-linecap:butt;stroke-linejoin:miter;stroke-miterlimit:4;stroke-opacity:1;stroke-dasharray:none"/><path id="path6302" d="m 563.2395,459.21498 12.1125,-0.33746 -0.0375,-1.25608 -12.09375,0.33746 0.0188,1.25608 z m 12.09375,-0.95612 -2.4,3.80573 7.3875,-3.95571 -7.59375,-3.52452 2.60625,3.6745 z" style="fill:#000;fill-opacity:1;fill-rule:nonzero;stroke:#000;stroke-width:.01875;stroke-linecap:butt;stroke-linejoin:round;stroke-opacity:1;stroke-dasharray:.01875,.01875;stroke-miterlimit:4;stroke-dashoffset:0"/><path id="path6304" d="m 593.9895,458.76504 12.1125,-0.33746 -0.0375,-1.25607 -12.09375,0.33745 0.0188,1.25608 z m 12.09375,-0.95612 -2.4,3.80573 7.3875,-3.95571 -7.59375,-3.52452 2.60625,3.6745 z" style="fill:#000;fill-opacity:1;fill-rule:nonzero;stroke:#000;stroke-width:.01875;stroke-linecap:butt;stroke-linejoin:round;stroke-opacity:1;stroke-dasharray:.01875,.01875;stroke-miterlimit:4;stroke-dashoffset:0"/><rect id="rect3920" width="16.515" height="21.219" x="366.358" y="448.704" style="fill:#fff;fill-opacity:1;stroke:none"/><path id="path6306" d="m 368.67075,450.90986 3.13125,0 c 0.34687,0 0.61875,0.28121 0.61875,0.62804 l 0,16.76959 -3.75,0 z" style="fill:none;stroke:#000;stroke-width:1.20000005px;stroke-linecap:butt;stroke-linejoin:miter;stroke-miterlimit:4;stroke-opacity:1;stroke-dasharray:none"/><path id="path6308" d="m 372.42075,450.90986 3.25312,0 c 0.35625,0 0.64688,0.29996 0.64688,0.65616 l 0,16.74147 -3.9,0 z" style="fill:none;stroke:#000;stroke-width:1.20000005px;stroke-linecap:butt;stroke-linejoin:miter;stroke-miterlimit:4;stroke-opacity:1;stroke-dasharray:none"/><path id="path6310" d="m 376.32075,450.90986 3.25312,0 c 0.35625,0 0.64688,0.29996 0.64688,0.65616 l 0,16.74147 -3.9,0 z" style="fill:none;stroke:#000;stroke-width:1.20000005px;stroke-linecap:butt;stroke-linejoin:miter;stroke-miterlimit:4;stroke-opacity:1;stroke-dasharray:none"/><path id="path6312" d="m 347.52075,457.79017 13.7625,0 0,1.24671 -13.7625,0 0,-1.24671 z m 13.7625,0.61867 -2.50312,-3.74949 7.5,3.74949 -7.5,3.74949 2.50312,-3.74949 z" style="fill:#000;fill-opacity:1;fill-rule:nonzero;stroke:#000;stroke-width:.009375;stroke-linecap:butt;stroke-linejoin:round;stroke-opacity:1;stroke-dasharray:.009375,.009375;stroke-miterlimit:4;stroke-dashoffset:0"/><path id="path6314" d="m 381.27075,457.79017 13.7625,0 0,1.24671 -13.7625,0 0,-1.24671 z m 13.7625,0.61867 -2.50313,-3.74949 7.5,3.74949 -7.5,3.74949 2.50313,-3.74949 z" style="fill:#000;fill-opacity:1;fill-rule:nonzero;stroke:#000;stroke-width:.009375;stroke-linecap:butt;stroke-linejoin:round;stroke-opacity:1;stroke-dasharray:.009375,.009375;stroke-miterlimit:4;stroke-dashoffset:0"/><path id="path6316" d="m 350.67075,657.73162 0,23.24683 84,0 0,-23.24683 -84,0 z" style="fill:#fff;fill-opacity:1;fill-rule:evenodd;stroke:none"/><path id="path6318" d="m 350.67075,657.73162 84,0 0,23.24683 -84,0 z" style="fill:none;stroke:#000;stroke-width:.60000002px;stroke-linecap:butt;stroke-linejoin:round;stroke-opacity:1;stroke-dasharray:none"/><path id="path6320" d="m 213.675,329.87996 0,42.74416 84,0 0,-42.74416 -84,0 z" clip-path="url(#clipEmfPath14)" transform="translate(137.14575,354.09808)" style="fill:#fff;fill-opacity:1;fill-rule:evenodd;stroke:none"/><path id="path6322" d="m 350.82075,683.97804 84,0 0,42.74416 -84,0 z" style="fill:none;stroke:#000;stroke-width:.60000002px;stroke-linecap:butt;stroke-linejoin:round;stroke-opacity:1;stroke-dasharray:none"/><rect id="rect3920-48-2" width="16.515" height="21.219" x="456.968" y="669.963" style="fill:#fff;fill-opacity:1;stroke:none"/><path id="path6324" d="m 459.57075,671.67972 3.2625,0 c 0.35625,0 0.6375,0.29996 0.6375,0.65616 l 0,16.89144 -3.9,0 z" style="fill:none;stroke:#000;stroke-width:1.20000005px;stroke-linecap:butt;stroke-linejoin:miter;stroke-miterlimit:4;stroke-opacity:1;stroke-dasharray:none"/><path id="path6326" d="m 463.47075,671.67972 3.13125,0 c 0.35625,0 0.61875,0.28121 0.61875,0.63741 l 0,16.76021 -3.75,0 z" style="fill:none;stroke:#000;stroke-width:1.20000005px;stroke-linecap:butt;stroke-linejoin:miter;stroke-miterlimit:4;stroke-opacity:1;stroke-dasharray:none"/><path id="path6328" d="m 467.22075,671.67972 3.2625,0 c 0.35625,0 0.6375,0.29996 0.6375,0.65616 l 0,16.89144 -3.9,0 z" style="fill:none;stroke:#000;stroke-width:1.20000005px;stroke-linecap:butt;stroke-linejoin:miter;stroke-miterlimit:4;stroke-opacity:1;stroke-dasharray:none"/><path id="path6330" d="m 440.0895,681.16592 14.475,-0.11248 -0.0188,-1.25608 -14.475,0.11248 0.0188,1.25608 z m 14.45625,-0.73115 -2.45625,3.76824 7.4625,-3.82448 -7.5375,-3.6745 2.53125,3.73074 z" style="fill:#000;fill-opacity:1;fill-rule:nonzero;stroke:#000;stroke-width:.01875;stroke-linecap:butt;stroke-linejoin:round;stroke-opacity:1;stroke-dasharray:.01875,.01875;stroke-miterlimit:4;stroke-dashoffset:0"/><path id="path6332" d="m 471.12075,679.4599 13.48125,0 0,1.25608 -13.48125,0 0,-1.25608 z m 13.48125,0.61867 -2.5125,-3.74949 7.5,3.74949 -7.5,3.74949 2.5125,-3.74949 z" style="fill:#000;fill-opacity:1;fill-rule:nonzero;stroke:#000;stroke-width:.01875;stroke-linecap:butt;stroke-linejoin:round;stroke-opacity:1;stroke-dasharray:.01875,.0375;stroke-miterlimit:4;stroke-dashoffset:0"/><path id="path6334" d="m 316.58325,533.69856 0,36.37003 2.4375,0 -4.875,4.87434 -4.875,-4.87434 2.4375,0 0,-36.37003 z" style="fill:#fff;fill-opacity:1;fill-rule:evenodd;stroke:none"/><path id="path6336" d="m 316.58325,533.69856 0,36.37003 2.4375,0 -4.875,4.87434 -4.875,-4.87434 2.4375,0 0,-36.37003 z" style="fill:none;stroke:#000;stroke-width:1.20000005px;stroke-linecap:butt;stroke-linejoin:miter;stroke-miterlimit:4;stroke-opacity:1;stroke-dasharray:none"/><text id="text4458-5-6-8-7" x="251.328" y="385.151" xml:space="preserve" style="font-size:11px;font-style:normal;font-variant:normal;font-weight:400;font-stretch:normal;text-align:start;line-height:125%;letter-spacing:0;word-spacing:0;writing-mode:lr-tb;text-anchor:start;fill:#000;fill-opacity:1;stroke:none;font-family:Sans;-inkscape-font-specification:Sans"><tspan id="tspan4668-2-5" x="251.328" y="385.151" style="font-size:11px;font-style:normal;font-variant:normal;font-weight:400;font-stretch:normal;text-align:start;line-height:125%;writing-mode:lr-tb;text-anchor:start;font-family:Sans;-inkscape-font-specification:Sans">Pipeline 1</tspan></text><text id="text4458-5-6-8-7-4" x="458.328" y="385.151" xml:space="preserve" style="font-size:11px;font-style:normal;font-variant:normal;font-weight:400;font-stretch:normal;text-align:start;line-height:125%;letter-spacing:0;word-spacing:0;writing-mode:lr-tb;text-anchor:start;fill:#000;fill-opacity:1;stroke:none;font-family:Sans;-inkscape-font-specification:Sans"><tspan id="tspan6590" x="458.328" y="385.151" style="font-size:11px;font-style:normal;font-variant:normal;font-weight:400;font-stretch:normal;text-align:start;line-height:125%;writing-mode:lr-tb;text-anchor:start;font-family:Sans;-inkscape-font-specification:Sans">Pipeline 2</tspan></text><text id="text4458-5-6-8-7-7" x="252.122" y="418.594" xml:space="preserve" style="font-size:11px;font-style:normal;font-variant:normal;font-weight:400;font-stretch:normal;text-align:start;line-height:125%;letter-spacing:0;word-spacing:0;writing-mode:lr-tb;text-anchor:start;fill:#000;fill-opacity:1;stroke:none;font-family:Sans;-inkscape-font-specification:Sans"><tspan id="tspan4668-2-5-6" x="252.122" y="418.594" style="font-size:11px;font-style:normal;font-variant:normal;font-weight:400;font-stretch:normal;text-align:start;line-height:125%;writing-mode:lr-tb;text-anchor:start;font-family:Sans;-inkscape-font-specification:Sans">Flow Table 1</tspan></text><text id="text4458-5-6-8-7-7-3" x="452.025" y="418.594" xml:space="preserve" style="font-size:11px;font-style:normal;font-variant:normal;font-weight:400;font-stretch:normal;text-align:start;line-height:125%;letter-spacing:0;word-spacing:0;writing-mode:lr-tb;text-anchor:start;fill:#000;fill-opacity:1;stroke:none;font-family:Sans;-inkscape-font-specification:Sans"><tspan id="tspan4668-2-5-6-6" x="452.025" y="418.594" style="font-size:11px;font-style:normal;font-variant:normal;font-weight:400;font-stretch:normal;text-align:start;line-height:125%;writing-mode:lr-tb;text-anchor:start;font-family:Sans;-inkscape-font-specification:Sans">Flow Table 2</tspan></text><text id="text4458-5-6-8-7-7-1" x="214.382" y="447.873" xml:space="preserve" style="font-size:11px;font-style:normal;font-variant:normal;font-weight:400;font-stretch:normal;text-align:start;line-height:125%;letter-spacing:0;word-spacing:0;writing-mode:lr-tb;text-anchor:start;fill:#000;fill-opacity:1;stroke:none;font-family:Sans;-inkscape-font-specification:Sans"><tspan id="tspan4668-2-5-6-5" x="214.382" y="447.873" style="font-size:11px;font-style:normal;font-variant:normal;font-weight:400;font-stretch:normal;text-align:start;line-height:125%;writing-mode:lr-tb;text-anchor:start;font-family:Sans;-inkscape-font-specification:Sans">Flow #</tspan></text><text id="text4458-5-6-8-7-7-1-4" x="418.232" y="449.373" xml:space="preserve" style="font-size:11px;font-style:normal;font-variant:normal;font-weight:400;font-stretch:normal;text-align:start;line-height:125%;letter-spacing:0;word-spacing:0;writing-mode:lr-tb;text-anchor:start;fill:#000;fill-opacity:1;stroke:none;font-family:Sans;-inkscape-font-specification:Sans"><tspan id="tspan4668-2-5-6-5-2" x="418.232" y="449.373" style="font-size:11px;font-style:normal;font-variant:normal;font-weight:400;font-stretch:normal;text-align:start;line-height:125%;writing-mode:lr-tb;text-anchor:start;font-family:Sans;-inkscape-font-specification:Sans">Flow #</tspan></text><text id="text4458-5-6-8-7-7-1-4-0" x="489.288" y="449.324" xml:space="preserve" style="font-size:11px;font-style:normal;font-variant:normal;font-weight:400;font-stretch:normal;text-align:start;line-height:125%;letter-spacing:0;word-spacing:0;writing-mode:lr-tb;text-anchor:start;fill:#000;fill-opacity:1;stroke:none;font-family:Sans;-inkscape-font-specification:Sans"><tspan id="tspan6678" x="489.288" y="449.324" style="font-size:11px;font-style:normal;font-variant:normal;font-weight:400;font-stretch:normal;text-align:start;line-height:125%;writing-mode:lr-tb;text-anchor:start;font-family:Sans;-inkscape-font-specification:Sans">Actions 2</tspan></text><text id="text4458-5-6-8-7-7-1-4-0-7" x="277.607" y="447.824" xml:space="preserve" style="font-size:11px;font-style:normal;font-variant:normal;font-weight:400;font-stretch:normal;text-align:start;line-height:125%;letter-spacing:0;word-spacing:0;writing-mode:lr-tb;text-anchor:start;fill:#000;fill-opacity:1;stroke:none;font-family:Sans;-inkscape-font-specification:Sans"><tspan id="tspan6678-3" x="277.607" y="447.824" style="font-size:11px;font-style:normal;font-variant:normal;font-weight:400;font-stretch:normal;text-align:start;line-height:125%;writing-mode:lr-tb;text-anchor:start;font-family:Sans;-inkscape-font-specification:Sans">Actions 1</tspan></text><text id="text4458-5-6-8-7-72" x="302.028" y="613.459" xml:space="preserve" style="font-size:11px;font-style:normal;font-variant:normal;font-weight:400;font-stretch:normal;text-align:start;line-height:125%;letter-spacing:0;word-spacing:0;writing-mode:lr-tb;text-anchor:start;fill:#000;fill-opacity:1;stroke:none;font-family:Sans;-inkscape-font-specification:Sans"><tspan id="tspan4668-2-5-60" x="302.028" y="613.459" style="font-size:11px;font-style:normal;font-variant:normal;font-weight:400;font-stretch:normal;text-align:start;line-height:125%;writing-mode:lr-tb;text-anchor:start;font-family:Sans;-inkscape-font-specification:Sans">Pipeline 1</tspan></text><text id="text4458-5-6-8-7-7-16" x="293.55" y="644.901" xml:space="preserve" style="font-size:11px;font-style:normal;font-variant:normal;font-weight:400;font-stretch:normal;text-align:start;line-height:125%;letter-spacing:0;word-spacing:0;writing-mode:lr-tb;text-anchor:start;fill:#000;fill-opacity:1;stroke:none;font-family:Sans;-inkscape-font-specification:Sans"><tspan id="tspan4668-2-5-6-57" x="293.55" y="644.901" style="font-size:11px;font-style:normal;font-variant:normal;font-weight:400;font-stretch:normal;text-align:start;line-height:125%;writing-mode:lr-tb;text-anchor:start;font-family:Sans;-inkscape-font-specification:Sans">Flow Table 1</tspan></text><text id="text4458-5-6-8-7-7-1-5" x="220.082" y="673.292" xml:space="preserve" style="font-size:11px;font-style:normal;font-variant:normal;font-weight:400;font-stretch:normal;text-align:start;line-height:125%;letter-spacing:0;word-spacing:0;writing-mode:lr-tb;text-anchor:start;fill:#000;fill-opacity:1;stroke:none;font-family:Sans;-inkscape-font-specification:Sans"><tspan id="tspan4668-2-5-6-5-4" x="220.082" y="673.292" style="font-size:11px;font-style:normal;font-variant:normal;font-weight:400;font-stretch:normal;text-align:start;line-height:125%;writing-mode:lr-tb;text-anchor:start;font-family:Sans;-inkscape-font-specification:Sans">Flow #</tspan></text><text id="text4458-5-6-8-7-7-1-4-0-7-1" x="283.307" y="673.244" xml:space="preserve" style="font-size:11px;font-style:normal;font-variant:normal;font-weight:400;font-stretch:normal;text-align:start;line-height:125%;letter-spacing:0;word-spacing:0;writing-mode:lr-tb;text-anchor:start;fill:#000;fill-opacity:1;stroke:none;font-family:Sans;-inkscape-font-specification:Sans"><tspan id="tspan6678-3-2" x="283.307" y="673.244" style="font-size:11px;font-style:normal;font-variant:normal;font-weight:400;font-stretch:normal;text-align:start;line-height:125%;writing-mode:lr-tb;text-anchor:start;font-family:Sans;-inkscape-font-specification:Sans">Actions 1</tspan></text><text id="text4458-5-6-8-7-7-1-4-0-7-1-0" x="370.338" y="673.244" xml:space="preserve" style="font-size:11px;font-style:normal;font-variant:normal;font-weight:400;font-stretch:normal;text-align:start;line-height:125%;letter-spacing:0;word-spacing:0;writing-mode:lr-tb;text-anchor:start;fill:#000;fill-opacity:1;stroke:none;font-family:Sans;-inkscape-font-specification:Sans"><tspan id="tspan6678-3-2-0" x="370.338" y="673.244" style="font-size:11px;font-style:normal;font-variant:normal;font-weight:400;font-stretch:normal;text-align:start;line-height:125%;writing-mode:lr-tb;text-anchor:start;font-family:Sans;-inkscape-font-specification:Sans">Actions 2</tspan></text></g></svg>