<svg xmlns="http://www.w3.org/2000/svg" xmlns:svg="http://www.w3.org/2000/svg" id="svg5382" width="520.434" height="438.617" version="1.1"><defs id="defs5384"><marker style="overflow:visible" id="Arrow1Lstart" orient="auto" refX="0" refY="0"><path style="fill-rule:evenodd;stroke:#000;stroke-width:1pt" id="path4018" d="M 0.0,0.0 L 5.0,-5.0 L -12.5,0.0 L 5.0,5.0 L 0.0,0.0 z" transform="scale(0.8) translate(12.5,0)"/></marker><clipPath id="clipEmfPath1" clipPathUnits="userSpaceOnUse"><rect id="rect5395" width="585" height="465.839" x="0" y="0"/></clipPath><clipPath id="clipEmfPath2" clipPathUnits="userSpaceOnUse"><rect id="rect5398" width="37.65" height="0" x="120.9" y="202.923"/></clipPath><clipPath id="clipEmfPath3" clipPathUnits="userSpaceOnUse"><rect id="rect5401" width="391.65" height="186.875" x="49.65" y="247.767"/></clipPath><clipPath id="clipEmfPath4" clipPathUnits="userSpaceOnUse"><rect id="rect5404" width="142.65" height="93.138" x="72.15" y="280.013"/></clipPath><clipPath id="clipEmfPath5" clipPathUnits="userSpaceOnUse"><rect id="rect5407" width="45.9" height="13.648" x="76.65" y="308.509"/></clipPath><clipPath id="clipEmfPath6" clipPathUnits="userSpaceOnUse"><rect id="rect5410" width="83.4" height="13.648" x="126.15" y="308.509"/></clipPath><clipPath id="clipEmfPath7" clipPathUnits="userSpaceOnUse"><rect id="rect5413" width="161.4" height="90.888" x="257.4" y="333.256"/></clipPath><clipPath id="clipEmfPath8" clipPathUnits="userSpaceOnUse"><rect id="rect5416" width="54.6" height="13.648" x="262.65" y="364.752"/></clipPath><clipPath id="clipEmfPath9" clipPathUnits="userSpaceOnUse"><rect id="rect5419" width="90.15" height="13.648" x="321.6" y="364.752"/></clipPath><clipPath id="clipEmfPath10" clipPathUnits="userSpaceOnUse"><rect id="rect5422" width="240" height="133.632" x="240" y="75.59"/></clipPath><clipPath id="clipEmfPath11" clipPathUnits="userSpaceOnUse"><rect id="rect5425" width="191.85" height="137.382" x="39.75" y="20.847"/></clipPath><clipPath id="clipEmfPath12" clipPathUnits="userSpaceOnUse"><rect id="rect5428" width="142.65" height="93.138" x="66.45" y="54.593"/></clipPath><clipPath id="clipEmfPath13" clipPathUnits="userSpaceOnUse"><rect id="rect5431" width="45.9" height="13.648" x="70.95" y="83.089"/></clipPath><clipPath id="clipEmfPath14" clipPathUnits="userSpaceOnUse"><rect id="rect5434" width="83.4" height="13.648" x="120.45" y="83.089"/></clipPath><clipPath id="clipEmfPath15" clipPathUnits="userSpaceOnUse"><rect id="rect5437" width="161.4" height="90.888" x="298.95" y="107.836"/></clipPath><clipPath id="clipEmfPath16" clipPathUnits="userSpaceOnUse"><rect id="rect5440" width="54.6" height="13.648" x="304.2" y="139.332"/></clipPath><clipPath id="clipEmfPath17" clipPathUnits="userSpaceOnUse"><rect id="rect5443" width="90.15" height="13.648" x="363.3" y="139.332"/></clipPath></defs><metadata id="metadata5387"/><g id="layer1" transform="translate(-132.40505,-338.57503)"><path id="path5449" d="m 49.275,242.89298 0,196.4741 392.25,0 0,-196.4741 -392.25,0 z" clip-path="url(#clipEmfPath2)" transform="translate(112.83943,322.9021)" style="fill:#fff;fill-opacity:1;fill-rule:evenodd;stroke:none"/><rect id="rect4458-1-7" width="393.019" height="197.304" x="161.225" y="565.612" style="fill:none;stroke:#000;stroke-width:1.002;stroke-miterlimit:4;stroke-opacity:1;stroke-dasharray:3.006,1.002;stroke-dashoffset:0"/><rect id="rect3945-9" width="15.714" height="18.571" x="153.476" y="664.692" style="fill:#fff;fill-opacity:1;stroke:none"/><rect id="rect3945-4" width="15.714" height="18.571" x="547.405" y="689.692" style="fill:#fff;fill-opacity:1;stroke:none"/><path id="path5453" d="m 71.775,275.13873 0,102.73646 143.25,0 0,-102.73646 -143.25,0 z" clip-path="url(#clipEmfPath3)" transform="translate(112.83943,322.9021)" style="fill:#fff;fill-opacity:1;fill-rule:evenodd;stroke:none"/><path id="path5455" d="m 184.61443,598.04083 143.25,0 0,102.73646 -143.25,0 z" style="fill:none;stroke:#000;stroke-width:.60000002px;stroke-linecap:butt;stroke-linejoin:round;stroke-opacity:1;stroke-dasharray:none"/><path id="path5457" d="m 76.275,303.63497 0,23.24694 46.5,0 0,-23.24694 -46.5,0 z" clip-path="url(#clipEmfPath4)" transform="translate(112.83943,322.9021)" style="fill:#fff;fill-opacity:1;fill-rule:evenodd;stroke:none"/><path id="path5459" d="m 189.11443,626.53707 46.5,0 0,23.24694 -46.5,0 z" style="fill:none;stroke:#000;stroke-width:.60000002px;stroke-linecap:butt;stroke-linejoin:round;stroke-opacity:1;stroke-dasharray:none"/><path id="path5461" d="m 125.775,303.63497 0,23.24694 84,0 0,-23.24694 -84,0 z" clip-path="url(#clipEmfPath5)" transform="translate(112.83943,322.9021)" style="fill:#fff;fill-opacity:1;fill-rule:evenodd;stroke:none"/><path id="path5463" d="m 238.61443,626.53707 84,0 0,23.24694 -84,0 z" style="fill:none;stroke:#000;stroke-width:.60000002px;stroke-linecap:butt;stroke-linejoin:round;stroke-opacity:1;stroke-dasharray:none"/><path id="path5465" d="m 76.275,329.88151 0,41.99447 46.5,0 0,-41.99447 -46.5,0 z" clip-path="url(#clipEmfPath6)" transform="translate(112.83943,322.9021)" style="fill:#fff;fill-opacity:1;fill-rule:evenodd;stroke:none"/><path id="path5467" d="m 189.11443,652.78361 46.5,0 0,41.99447 -46.5,0 z" style="fill:none;stroke:#000;stroke-width:.60000002px;stroke-linecap:butt;stroke-linejoin:round;stroke-opacity:1;stroke-dasharray:none"/><path id="path5469" d="m 238.61443,652.78361 0,42.74437 84,0 0,-42.74437 -84,0 z" style="fill:#fff;fill-opacity:1;fill-rule:evenodd;stroke:none"/><path id="path5471" d="m 238.61443,652.78361 84,0 0,42.74437 -84,0 z" style="fill:none;stroke:#000;stroke-width:.60000002px;stroke-linecap:butt;stroke-linejoin:round;stroke-opacity:1;stroke-dasharray:none"/><path id="path5473" d="m 369.86443,651.28381 0,100.48676 162,0 0,-100.48676 -162,0 z" style="fill:#fff;fill-opacity:1;fill-rule:evenodd;stroke:none"/><path id="path5475" d="m 369.86443,651.28381 162,0 0,100.48676 -162,0 z" style="fill:none;stroke:#000;stroke-width:.60000002px;stroke-linecap:butt;stroke-linejoin:round;stroke-opacity:1;stroke-dasharray:none"/><path id="path5477" d="m 262.275,359.87756 0,23.24694 55.2,0 0,-23.24694 -55.2,0 z" clip-path="url(#clipEmfPath7)" transform="translate(112.83943,322.9021)" style="fill:#fff;fill-opacity:1;fill-rule:evenodd;stroke:none"/><path id="path5479" d="m 375.11443,682.77966 55.2,0 0,23.24694 -55.2,0 z" style="fill:none;stroke:#000;stroke-width:.60000002px;stroke-linecap:butt;stroke-linejoin:round;stroke-opacity:1;stroke-dasharray:none"/><path id="path5481" d="m 321.225,359.87756 0,23.24694 90.9,0 0,-23.24694 -90.9,0 z" clip-path="url(#clipEmfPath8)" transform="translate(112.83943,322.9021)" style="fill:#fff;fill-opacity:1;fill-rule:evenodd;stroke:none"/><path id="path5483" d="m 434.06443,682.77966 90.9,0 0,23.24694 -90.9,0 z" style="fill:none;stroke:#000;stroke-width:.60000002px;stroke-linecap:butt;stroke-linejoin:round;stroke-opacity:1;stroke-dasharray:none"/><path id="path5485" d="m 261.525,386.874 0,36.74516 55.95,0 0,-36.74516 -55.95,0 z" clip-path="url(#clipEmfPath9)" transform="translate(112.83943,322.9021)" style="fill:#fff;fill-opacity:1;fill-rule:evenodd;stroke:none"/><path id="path5487" d="m 374.36443,709.7761 55.95,0 0,36.74516 -55.95,0 z" style="fill:none;stroke:#000;stroke-width:.60000002px;stroke-linecap:butt;stroke-linejoin:round;stroke-opacity:1;stroke-dasharray:none"/><path id="path5489" d="m 434.81443,709.7761 0,36.74516 90.15,0 0,-36.74516 -90.15,0 z" style="fill:#fff;fill-opacity:1;fill-rule:evenodd;stroke:none"/><path id="path5491" d="m 434.81443,709.7761 90.15,0 0,36.74516 -90.15,0 z" style="fill:none;stroke:#000;stroke-width:.60000002px;stroke-linecap:butt;stroke-linejoin:round;stroke-opacity:1;stroke-dasharray:none"/><rect id="rect3945-0" width="15.714" height="18.571" x="152.762" y="617.906" style="fill:#fff;fill-opacity:1;stroke:none"/><path id="path5493" d="m 155.21443,618.13818 3.2625,0 c 0.35625,0 0.6375,0.29996 0.6375,0.65617 l 0,16.74154 -3.9,0 z" style="fill:none;stroke:#000;stroke-width:1.20000005px;stroke-linecap:butt;stroke-linejoin:miter;stroke-miterlimit:4;stroke-opacity:1;stroke-dasharray:none"/><path id="path5495" d="m 159.11443,617.9882 3.13125,0 c 0.35625,0 0.61875,0.28121 0.61875,0.63742 l 0,16.91027 -3.75,0 z" style="fill:none;stroke:#000;stroke-width:1.20000005px;stroke-linecap:butt;stroke-linejoin:miter;stroke-miterlimit:4;stroke-opacity:1;stroke-dasharray:none"/><path id="path5497" d="m 162.86443,618.13818 3.2625,0 c 0.35625,0 0.6375,0.29996 0.6375,0.65617 l 0,16.74154 -3.9,0 z" style="fill:none;stroke:#000;stroke-width:1.20000005px;stroke-linecap:butt;stroke-linejoin:miter;stroke-miterlimit:4;stroke-opacity:1;stroke-dasharray:none"/><path id="path5501" d="m 159.11443,665.23197 3.13125,0 c 0.35625,0 0.61875,0.28122 0.61875,0.63742 l 0,16.91027 -3.75,0 z" style="fill:none;stroke:#000;stroke-width:1.20000005px;stroke-linecap:butt;stroke-linejoin:miter;stroke-miterlimit:4;stroke-opacity:1;stroke-dasharray:none"/><path id="path5503" d="m 162.86443,665.38195 3.2625,0 c 0.35625,0 0.6375,0.29996 0.6375,0.65617 l 0,16.74154 -3.9,0 z" style="fill:none;stroke:#000;stroke-width:1.20000005px;stroke-linecap:butt;stroke-linejoin:miter;stroke-miterlimit:4;stroke-opacity:1;stroke-dasharray:none"/><path id="path5505" d="m 138.13318,627.94314 12.1125,-0.33746 -0.0375,-1.25608 -12.09375,0.33745 0.0188,1.25609 z m 12.09375,-0.95612 -2.4,3.80574 7.3875,-3.95573 -7.59375,-3.52453 2.60625,3.67452 z" style="fill:#000;fill-opacity:1;fill-rule:nonzero;stroke:#000;stroke-width:.01875;stroke-linecap:butt;stroke-linejoin:round;stroke-opacity:1;stroke-dasharray:.05625,.01875;stroke-miterlimit:4;stroke-dashoffset:0"/><path id="path5507" d="m 167.53318,627.94314 12.1125,-0.33746 -0.0375,-1.25608 -12.09375,0.33745 0.0187,1.25609 z m 12.09375,-0.95612 -2.4,3.80574 7.3875,-3.95573 -7.59375,-3.52453 2.60625,3.67452 z" style="fill:#000;fill-opacity:1;fill-rule:nonzero;stroke:#000;stroke-width:.01875;stroke-linecap:butt;stroke-linejoin:round;stroke-opacity:1;stroke-dasharray:.05625,.01875;stroke-miterlimit:4;stroke-dashoffset:0"/><path id="path5509" d="m 166.78318,674.43701 12.1125,-0.33746 -0.0375,-1.25608 -12.09375,0.33746 0.0187,1.25608 z m 12.09375,-0.95612 -2.4,3.80574 7.3875,-3.95572 -7.59375,-3.52454 2.60625,3.67452 z" style="fill:#000;fill-opacity:1;fill-rule:nonzero;stroke:#000;stroke-width:.01875;stroke-linecap:butt;stroke-linejoin:round;stroke-opacity:1;stroke-dasharray:.05625,.01875;stroke-miterlimit:4;stroke-dashoffset:0"/><path id="path5511" d="m 138.13318,674.43701 12.1125,-0.33746 -0.0375,-1.25608 -12.09375,0.33746 0.0188,1.25608 z m 12.09375,-0.95612 -2.4,3.80574 7.3875,-3.95572 -7.59375,-3.52454 2.60625,3.67452 z" style="fill:#000;fill-opacity:1;fill-rule:nonzero;stroke:#000;stroke-width:.01875;stroke-linecap:butt;stroke-linejoin:round;stroke-opacity:1;stroke-dasharray:.05625,.01875;stroke-miterlimit:4;stroke-dashoffset:0"/><path id="path5499" d="m 155.21443,665.38195 3.2625,0 c 0.35625,0 0.6375,0.29996 0.6375,0.65617 l 0,16.74154 -3.9,0 z" style="fill:none;stroke:#000;stroke-width:1.20000005px;stroke-linecap:butt;stroke-linejoin:miter;stroke-miterlimit:4;stroke-opacity:1;stroke-dasharray:none"/><rect id="rect3945" width="15.714" height="18.571" x="547.405" y="612.907" style="fill:#fff;fill-opacity:1;stroke:none"/><path id="path5513" d="m 548.96443,613.33881 3.2625,0 c 0.35625,0 0.6375,0.29996 0.6375,0.65617 l 0,16.89152 -3.9,0 z" style="fill:none;stroke:#000;stroke-width:1.20000005px;stroke-linecap:butt;stroke-linejoin:miter;stroke-miterlimit:4;stroke-opacity:1;stroke-dasharray:none"/><path id="path5515" d="m 552.86443,613.33881 3.13125,0 c 0.35625,0 0.61875,0.28122 0.61875,0.63742 l 0,16.76029 -3.75,0 z" style="fill:none;stroke:#000;stroke-width:1.20000005px;stroke-linecap:butt;stroke-linejoin:miter;stroke-miterlimit:4;stroke-opacity:1;stroke-dasharray:none"/><path id="path5517" d="m 556.61443,613.33881 3.2625,0 c 0.35625,0 0.6375,0.29996 0.6375,0.65617 l 0,16.89152 -3.9,0 z" style="fill:none;stroke:#000;stroke-width:1.20000005px;stroke-linecap:butt;stroke-linejoin:miter;stroke-miterlimit:4;stroke-opacity:1;stroke-dasharray:none"/><path id="path5519" d="m 328.76443,621.419 215.04375,0 0,1.25608 -215.04375,0 0,-1.25608 z m 215.04375,0.61867 -2.49375,-3.74951 7.5,3.74951 -7.5,3.7495 2.49375,-3.7495 z" style="fill:#000;fill-opacity:1;fill-rule:nonzero;stroke:#000;stroke-width:.01875;stroke-linecap:butt;stroke-linejoin:round;stroke-opacity:1;stroke-dasharray:.01875,.01875;stroke-miterlimit:4;stroke-dashoffset:0"/><path id="path5521" d="m 560.38318,623.14377 12.1125,-0.33745 -0.0375,-1.25609 -12.09375,0.33746 0.0188,1.25608 z m 12.09375,-0.95612 -2.4,3.80575 7.3875,-3.95573 -7.59375,-3.52454 2.60625,3.67452 z" style="fill:#000;fill-opacity:1;fill-rule:nonzero;stroke:#000;stroke-width:.01875;stroke-linecap:butt;stroke-linejoin:round;stroke-opacity:1;stroke-dasharray:.05625,.01875;stroke-miterlimit:4;stroke-dashoffset:0"/><path id="path5523" d="m 329.36443,682.16099 20.86875,0 0,29.93981 -0.61875,-0.63742 15.225,0 0,1.25608 -15.8625,0 0,-29.9398 0.6375,0.63742 -20.25,0 0,-1.25609 z m 35.475,29.93981 -2.49375,-3.74951 7.5,3.74951 -7.5,3.7495 2.49375,-3.7495 z" style="fill:#000;fill-opacity:1;fill-rule:nonzero;stroke:#000;stroke-width:.01875;stroke-linecap:butt;stroke-linejoin:round;stroke-opacity:1;stroke-dasharray:.01875,.01875;stroke-miterlimit:4;stroke-dashoffset:0"/><path id="path5525" d="m 548.81443,690.57863 3.2625,0 c 0.35625,0 0.6375,0.29996 0.6375,0.65617 l 0,16.89152 -3.9,0 z" style="fill:none;stroke:#000;stroke-width:1.20000005px;stroke-linecap:butt;stroke-linejoin:miter;stroke-miterlimit:4;stroke-opacity:1;stroke-dasharray:none"/><path id="path5527" d="m 552.71443,690.57863 3.2625,0 c 0.35625,0 0.6375,0.29996 0.6375,0.65617 l 0,16.74154 -3.9,0 z" style="fill:none;stroke:#000;stroke-width:1.20000005px;stroke-linecap:butt;stroke-linejoin:miter;stroke-miterlimit:4;stroke-opacity:1;stroke-dasharray:none"/><path id="path5529" d="m 556.61443,690.57863 3.13125,0 c 0.35625,0 0.61875,0.28122 0.61875,0.63742 l 0,16.91027 -3.75,0 z" style="fill:none;stroke:#000;stroke-width:1.20000005px;stroke-linecap:butt;stroke-linejoin:miter;stroke-miterlimit:4;stroke-opacity:1;stroke-dasharray:none"/><path id="path5531" d="m 530.98318,699.18375 12.1125,-0.33746 -0.0375,-1.25608 -12.09375,0.33745 0.0188,1.25609 z m 12.09375,-0.95613 -2.4,3.80575 7.3875,-3.95573 -7.59375,-3.52453 2.60625,3.67451 z" style="fill:#000;fill-opacity:1;fill-rule:nonzero;stroke:#000;stroke-width:.01875;stroke-linecap:butt;stroke-linejoin:round;stroke-opacity:1;stroke-dasharray:.01875,.01875;stroke-miterlimit:4;stroke-dashoffset:0"/><path id="path5533" d="m 561.88318,698.73381 12.1125,-0.33746 -0.0375,-1.25608 -12.09375,0.33745 0.0188,1.25609 z m 12.09375,-0.95613 -2.4,3.80575 7.3875,-3.95573 -7.59375,-3.52453 2.60625,3.67451 z" style="fill:#000;fill-opacity:1;fill-rule:nonzero;stroke:#000;stroke-width:.01875;stroke-linecap:butt;stroke-linejoin:round;stroke-opacity:1;stroke-dasharray:.01875,.01875;stroke-miterlimit:4;stroke-dashoffset:0"/><rect id="rect4458-1" width="212.047" height="146.39" x="384.986" y="391.86" style="fill:none;stroke:#000;stroke-width:1.03885794;stroke-miterlimit:4;stroke-opacity:1;stroke-dasharray:3.11657381,1.03885794;stroke-dashoffset:0"/><rect id="rect3945-48" width="15.714" height="18.571" x="586.691" y="463.621" style="fill:#fff;fill-opacity:1;stroke:none"/><path id="path5539" d="m 39.225,15.972894 0,146.980626 192.6,0 0,-146.980626 -192.6,0 z" clip-path="url(#clipEmfPath10)" transform="translate(112.83943,322.9021)" style="fill:#fff;fill-opacity:1;fill-rule:evenodd;stroke:none"/><path id="path5543" d="m 66.075,49.718446 0,102.736454 143.25,0 0,-102.736454 -143.25,0 z" clip-path="url(#clipEmfPath11)" transform="translate(112.83943,322.9021)" style="fill:#fff;fill-opacity:1;fill-rule:evenodd;stroke:none"/><path id="path5545" d="m 178.91443,372.62055 143.25,0 0,102.73645 -143.25,0 z" style="fill:none;stroke:#000;stroke-width:.60000002px;stroke-linecap:butt;stroke-linejoin:round;stroke-opacity:1;stroke-dasharray:none"/><path id="path5547" d="m 70.575,78.21469 0,23.24694 46.5,0 0,-23.24694 -46.5,0 z" clip-path="url(#clipEmfPath12)" transform="translate(112.83943,322.9021)" style="fill:#fff;fill-opacity:1;fill-rule:evenodd;stroke:none"/><rect id="rect4458" width="193.91" height="146.435" x="155.259" y="342.903" style="fill:none;stroke:#000;stroke-width:.99358916;stroke-miterlimit:4;stroke-opacity:1;stroke-dasharray:2.98076741,.99358914;stroke-dashoffset:0"/><path id="path5549" d="m 183.41443,401.11679 46.5,0 0,23.24694 -46.5,0 z" style="fill:none;stroke:#000;stroke-width:.60000002px;stroke-linecap:butt;stroke-linejoin:round;stroke-opacity:1;stroke-dasharray:none"/><path id="path5551" d="m 120.075,78.21469 0,23.24694 84,0 0,-23.24694 -84,0 z" clip-path="url(#clipEmfPath13)" transform="translate(112.83943,322.9021)" style="fill:#fff;fill-opacity:1;fill-rule:evenodd;stroke:none"/><path id="path5553" d="m 232.91443,401.11679 84,0 0,23.24694 -84,0 z" style="fill:none;stroke:#000;stroke-width:.60000002px;stroke-linecap:butt;stroke-linejoin:round;stroke-opacity:1;stroke-dasharray:none"/><path id="path5555" d="m 70.575,104.46123 0,41.99446 46.5,0 0,-41.99446 -46.5,0 z" clip-path="url(#clipEmfPath14)" transform="translate(112.83943,322.9021)" style="fill:#fff;fill-opacity:1;fill-rule:evenodd;stroke:none"/><path id="path5557" d="m 183.41443,427.36333 46.5,0 0,41.99446 -46.5,0 z" style="fill:none;stroke:#000;stroke-width:.60000002px;stroke-linecap:butt;stroke-linejoin:round;stroke-opacity:1;stroke-dasharray:none"/><path id="path5559" d="m 232.91443,427.36333 0,42.74437 84,0 0,-42.74437 -84,0 z" style="fill:#fff;fill-opacity:1;fill-rule:evenodd;stroke:none"/><path id="path5561" d="m 232.91443,427.36333 84,0 0,42.74437 -84,0 z" style="fill:none;stroke:#000;stroke-width:.60000002px;stroke-linecap:butt;stroke-linejoin:round;stroke-opacity:1;stroke-dasharray:none"/><path id="path5563" d="m 408.38397,422.83307 0,100.48675 162,0 0,-100.48675 -162,0 z" style="fill:#fff;fill-opacity:1;fill-rule:evenodd;stroke:none"/><path id="path5565" d="m 408.38397,422.83307 162,0 0,100.48675 -162,0 z" style="fill:none;stroke:#000;stroke-width:.60000002px;stroke-linecap:butt;stroke-linejoin:round;stroke-opacity:1;stroke-dasharray:none"/><path id="path5567" d="m 303.825,134.45728 0,23.24693 55.2,0 0,-23.24693 -55.2,0 z" clip-path="url(#clipEmfPath15)" transform="translate(109.80897,319.87164)" style="fill:#fff;fill-opacity:1;fill-rule:evenodd;stroke:none"/><path id="path5569" d="m 413.63397,454.32892 55.2,0 0,23.24693 -55.2,0 z" style="fill:none;stroke:#000;stroke-width:.60000002px;stroke-linecap:butt;stroke-linejoin:round;stroke-opacity:1;stroke-dasharray:none"/><path id="path5571" d="m 362.775,134.45728 0,23.24693 90.9,0 0,-23.24693 -90.9,0 z" clip-path="url(#clipEmfPath16)" transform="translate(112.83943,322.9021)" style="fill:#fff;fill-opacity:1;fill-rule:evenodd;stroke:none"/><path id="path5573" d="m 475.58964,454.32892 90.9,0 0,23.24693 -90.9,0 z" style="fill:none;stroke:#000;stroke-width:.60000002px;stroke-linecap:butt;stroke-linejoin:round;stroke-opacity:1;stroke-dasharray:none"/><path id="path5575" d="m 303.075,161.45372 0,36.74515 55.95,0 0,-36.74515 -55.95,0 z" clip-path="url(#clipEmfPath17)" transform="translate(112.83943,322.9021)" style="fill:#fff;fill-opacity:1;fill-rule:evenodd;stroke:none"/><path id="path5577" d="m 412.88397,481.32536 55.95,0 0,36.74515 -55.95,0 z" style="fill:none;stroke:#000;stroke-width:.60000002px;stroke-linecap:butt;stroke-linejoin:round;stroke-opacity:1;stroke-dasharray:none"/><path id="path5579" d="m 473.33397,481.32536 0,36.74515 90.15,0 0,-36.74515 -90.15,0 z" style="fill:#fff;fill-opacity:1;fill-rule:evenodd;stroke:none"/><path id="path5581" d="m 473.33397,481.32536 90.15,0 0,36.74515 -90.15,0 z" style="fill:none;stroke:#000;stroke-width:.60000002px;stroke-linecap:butt;stroke-linejoin:round;stroke-opacity:1;stroke-dasharray:none"/><rect id="rect3945-45" width="15.714" height="18.571" x="147.941" y="392.371" style="fill:#fff;fill-opacity:1;stroke:none"/><path id="path5583" d="m 149.51443,392.7179 3.25312,0 c 0.35625,0 0.64688,0.29996 0.64688,0.65616 l 0,16.74154 -3.9,0 z" style="fill:none;stroke:#000;stroke-width:1.20000005px;stroke-linecap:butt;stroke-linejoin:miter;stroke-miterlimit:4;stroke-opacity:1;stroke-dasharray:none"/><path id="path5585" d="m 153.41443,392.56792 3.25312,0 c 0.35625,0 0.64688,0.29996 0.64688,0.65616 l 0,16.89152 -3.9,0 z" style="fill:none;stroke:#000;stroke-width:1.20000005px;stroke-linecap:butt;stroke-linejoin:miter;stroke-miterlimit:4;stroke-opacity:1;stroke-dasharray:none"/><path id="path5587" d="m 157.31443,392.7179 3.13125,0 c 0.34687,0 0.61875,0.28121 0.61875,0.62804 l 0,16.76966 -3.75,0 z" style="fill:none;stroke:#000;stroke-width:1.20000005px;stroke-linecap:butt;stroke-linejoin:miter;stroke-miterlimit:4;stroke-opacity:1;stroke-dasharray:none"/><rect id="rect3945-5" width="15.714" height="18.571" x="147.762" y="439.692" style="fill:#fff;fill-opacity:1;stroke:none"/><path id="path5589" d="m 149.51443,439.96167 3.25312,0 c 0.35625,0 0.64688,0.29996 0.64688,0.65616 l 0,16.74155 -3.9,0 z" style="fill:none;stroke:#000;stroke-width:1.20000005px;stroke-linecap:butt;stroke-linejoin:miter;stroke-miterlimit:4;stroke-opacity:1;stroke-dasharray:none"/><path id="path5591" d="m 153.41443,439.81169 3.25312,0 c 0.35625,0 0.64688,0.29996 0.64688,0.65616 l 0,16.89153 -3.9,0 z" style="fill:none;stroke:#000;stroke-width:1.20000005px;stroke-linecap:butt;stroke-linejoin:miter;stroke-miterlimit:4;stroke-opacity:1;stroke-dasharray:none"/><path id="path5593" d="m 157.31443,439.96167 3.13125,0 c 0.34687,0 0.61875,0.28121 0.61875,0.62804 l 0,16.76967 -3.75,0 z" style="fill:none;stroke:#000;stroke-width:1.20000005px;stroke-linecap:butt;stroke-linejoin:miter;stroke-miterlimit:4;stroke-opacity:1;stroke-dasharray:none"/><path id="path5595" d="m 132.43318,402.51348 12.10312,-0.32808 -0.0375,-1.24671 -12.09375,0.32808 0.0281,1.24671 z m 12.08437,-0.95612 -2.39062,3.81512 7.3875,-3.95573 -7.59375,-3.53391 2.59687,3.67452 z" style="fill:#000;fill-opacity:1;fill-rule:nonzero;stroke:#000;stroke-width:.009;stroke-linecap:butt;stroke-linejoin:round;stroke-opacity:1;stroke-dasharray:.009,.009;stroke-miterlimit:4;stroke-dashoffset:0"/><path id="path5597" d="m 161.83318,402.51348 12.10312,-0.32808 -0.0375,-1.24671 -12.09375,0.32808 0.0281,1.24671 z m 12.08437,-0.95612 -2.39062,3.81512 7.3875,-3.95573 -7.59375,-3.53391 2.59687,3.67452 z" style="fill:#000;fill-opacity:1;fill-rule:nonzero;stroke:#000;stroke-width:.009;stroke-linecap:butt;stroke-linejoin:round;stroke-opacity:1;stroke-dasharray:.009,.009;stroke-miterlimit:4;stroke-dashoffset:0"/><path id="path5599" d="m 161.08318,449.00735 12.10312,-0.32808 -0.0375,-1.24671 -12.09375,0.32808 0.0281,1.24671 z m 12.08437,-0.95612 -2.39062,3.81512 7.3875,-3.95573 -7.59375,-3.53391 2.59687,3.67452 z" style="fill:#000;fill-opacity:1;fill-rule:nonzero;stroke:#000;stroke-width:.009375;stroke-linecap:butt;stroke-linejoin:round;stroke-opacity:1;stroke-dasharray:.009375,.009375;stroke-miterlimit:4;stroke-dashoffset:0"/><path id="path5601" d="m 132.43318,449.00735 12.10312,-0.32808 -0.0375,-1.24671 -12.09375,0.32808 0.0281,1.24671 z m 12.08437,-0.95612 -2.39062,3.81512 7.3875,-3.95573 -7.59375,-3.53391 2.59687,3.67452 z" style="fill:#000;fill-opacity:1;fill-rule:nonzero;stroke:#000;stroke-width:.009;stroke-linecap:butt;stroke-linejoin:round;stroke-opacity:1;stroke-dasharray:.009,.009;stroke-miterlimit:4;stroke-dashoffset:0"/><rect id="rect3945-2" width="15.714" height="18.571" x="341.369" y="371.264" style="fill:#fff;fill-opacity:1;stroke:none"/><path id="path5603" d="m 343.61443,372.17061 3.13125,0 c 0.34687,0 0.61875,0.28121 0.61875,0.62804 l 0,16.76966 -3.75,0 z" style="fill:none;stroke:#000;stroke-width:1.20000005px;stroke-linecap:butt;stroke-linejoin:miter;stroke-miterlimit:4;stroke-opacity:1;stroke-dasharray:none"/><path id="path5605" d="m 347.36443,372.17061 3.25312,0 c 0.35625,0 0.64688,0.29996 0.64688,0.65616 l 0,16.74154 -3.9,0 z" style="fill:none;stroke:#000;stroke-width:1.20000005px;stroke-linecap:butt;stroke-linejoin:miter;stroke-miterlimit:4;stroke-opacity:1;stroke-dasharray:none"/><path id="path5607" d="m 351.26443,372.17061 3.25312,0 c 0.35625,0 0.64688,0.29996 0.64688,0.65616 l 0,16.74154 -3.9,0 z" style="fill:none;stroke:#000;stroke-width:1.20000005px;stroke-linecap:butt;stroke-linejoin:miter;stroke-miterlimit:4;stroke-opacity:1;stroke-dasharray:none"/><path id="path5609" d="m 323.21443,378.75099 13.7625,0 0,1.24671 -13.7625,0 0,-1.24671 z m 13.7625,0.61867 -2.50312,-3.74951 7.5,3.74951 -7.5,3.7495 2.50312,-3.7495 z" style="fill:#000;fill-opacity:1;fill-rule:nonzero;stroke:#000;stroke-width:.009375;stroke-linecap:butt;stroke-linejoin:round;stroke-opacity:1;stroke-dasharray:.009375,.009375;stroke-miterlimit:4;stroke-dashoffset:0"/><path id="path5611" d="m 356.53318,380.16643 259.24599,-0.32809 -0.0375,-1.24671 -259.23661,0.32809 0.0281,1.24671 z m 259.22723,-0.95613 -2.39062,3.81512 7.3875,-3.95572 -7.59375,-3.53391 z" style="fill:#000;fill-opacity:1;fill-rule:nonzero;stroke:#000;stroke-width:.009375;stroke-linecap:butt;stroke-linejoin:round;stroke-miterlimit:4;stroke-opacity:1;stroke-dasharray:.009375,.009375;stroke-dashoffset:0"/><path id="path5613" d="m 590.51443,465.15835 3.13125,0 c 0.35625,0 0.61875,0.28121 0.61875,0.63741 l 0,16.91027 -3.75,0 z" style="fill:none;stroke:#000;stroke-width:1.20000005px;stroke-linecap:butt;stroke-linejoin:miter;stroke-miterlimit:4;stroke-opacity:1;stroke-dasharray:none"/><path id="path5615" d="m 594.26443,465.15835 3.2625,0 c 0.35625,0 0.6375,0.29996 0.6375,0.65616 l 0,16.74154 -3.9,0 z" style="fill:none;stroke:#000;stroke-width:1.20000005px;stroke-linecap:butt;stroke-linejoin:miter;stroke-miterlimit:4;stroke-opacity:1;stroke-dasharray:none"/><path id="path5617" d="m 598.16443,465.15835 3.2625,0 c 0.35625,0 0.6375,0.29996 0.6375,0.65616 l 0,16.89152 -3.9,0 z" style="fill:none;stroke:#000;stroke-width:1.20000005px;stroke-linecap:butt;stroke-linejoin:miter;stroke-miterlimit:4;stroke-opacity:1;stroke-dasharray:none"/><path id="path5619" d="m 572.68318,473.76346 12.1125,-0.33745 -0.0375,-1.25609 -12.09375,0.33746 0.0188,1.25608 z m 12.09375,-0.95612 -2.4,3.80575 7.3875,-3.95573 -7.59375,-3.52454 2.60625,3.67452 z" style="fill:#000;fill-opacity:1;fill-rule:nonzero;stroke:#000;stroke-width:.01875;stroke-linecap:butt;stroke-linejoin:round;stroke-opacity:1;stroke-dasharray:.01875,.01875;stroke-miterlimit:4;stroke-dashoffset:0"/><path id="path5621" d="m 603.43318,473.31352 12.1125,-0.33745 -0.0375,-1.25609 -12.09375,0.33746 0.0188,1.25608 z m 12.09375,-0.95612 -2.4,3.80575 7.3875,-3.95573 -7.59375,-3.52454 2.60625,3.67452 z" style="fill:#000;fill-opacity:1;fill-rule:nonzero;stroke:#000;stroke-width:.01875;stroke-linecap:butt;stroke-linejoin:round;stroke-opacity:1;stroke-dasharray:.01875,.01875;stroke-miterlimit:4;stroke-dashoffset:0"/><rect id="rect3945-8" width="15.714" height="18.571" x="342.405" y="438.621" style="fill:#fff;fill-opacity:1;stroke:none"/><path id="path5623" d="m 343.61443,439.96167 3.13125,0 c 0.34687,0 0.61875,0.28121 0.61875,0.62804 l 0,16.76967 -3.75,0 z" style="fill:none;stroke:#000;stroke-width:1.20000005px;stroke-linecap:butt;stroke-linejoin:miter;stroke-miterlimit:4;stroke-opacity:1;stroke-dasharray:none"/><path id="path5625" d="m 347.36443,439.96167 3.25312,0 c 0.35625,0 0.64688,0.29996 0.64688,0.65616 l 0,16.74155 -3.9,0 z" style="fill:none;stroke:#000;stroke-width:1.20000005px;stroke-linecap:butt;stroke-linejoin:miter;stroke-miterlimit:4;stroke-opacity:1;stroke-dasharray:none"/><path id="path5627" d="m 351.26443,439.96167 3.25312,0 c 0.35625,0 0.64688,0.29996 0.64688,0.65616 l 0,16.74155 -3.9,0 z" style="fill:none;stroke:#000;stroke-width:1.20000005px;stroke-linecap:butt;stroke-linejoin:miter;stroke-miterlimit:4;stroke-opacity:1;stroke-dasharray:none"/><path id="path5629" d="m 323.21443,446.54205 13.7625,0 0,1.24671 -13.7625,0 0,-1.24671 z m 13.7625,0.61867 -2.50312,-3.74951 7.5,3.74951 -7.5,3.74951 2.50312,-3.74951 z" style="fill:#000;fill-opacity:1;fill-rule:nonzero;stroke:#000;stroke-width:.009375;stroke-linecap:butt;stroke-linejoin:round;stroke-opacity:1;stroke-dasharray:.009375,.009375;stroke-miterlimit:4;stroke-dashoffset:0"/><path id="path5631" d="m 356.50859,445.94165 25.2708,0 0,30.18438 -0.55633,-0.61869 20.19642,0 0,1.23737 -20.7696,0 0,-30.18438 0.57318,0.63744 -24.71447,0 0,-1.25612 z m 44.91089,30.18438 -2.24217,-3.74961 6.74338,3.74961 -6.74338,3.74961 2.24217,-3.74961 z" style="fill:#000;fill-opacity:1;fill-rule:nonzero;stroke:#000;stroke-width:.01777934;stroke-linecap:butt;stroke-linejoin:round;stroke-miterlimit:4;stroke-opacity:1;stroke-dasharray:.01777934,.01777934;stroke-dashoffset:0"/><path id="path5633" d="m 256.12693,502.50342 0,36.37021 2.4375,0 -4.875,4.87436 -4.875,-4.87436 2.4375,0 0,-36.37021 z" style="fill:#fff;fill-opacity:1;fill-rule:evenodd;stroke:none"/><path id="path5635" d="m 256.12693,502.50342 0,36.37021 2.4375,0 -4.875,4.87436 -4.875,-4.87436 2.4375,0 0,-36.37021 z" style="fill:none;stroke:#000;stroke-width:1.20000005px;stroke-linecap:butt;stroke-linejoin:miter;stroke-miterlimit:4;stroke-opacity:1;stroke-dasharray:none"/><text id="text4458-5-6-8-7" x="224.772" y="353.738" xml:space="preserve" style="font-size:11px;font-style:normal;font-variant:normal;font-weight:400;font-stretch:normal;text-align:start;line-height:125%;letter-spacing:0;word-spacing:0;writing-mode:lr-tb;text-anchor:start;fill:#000;fill-opacity:1;stroke:none;font-family:Sans;-inkscape-font-specification:Sans"><tspan id="tspan4668-2-5" x="224.772" y="353.738" style="font-size:11px;font-style:normal;font-variant:normal;font-weight:400;font-stretch:normal;text-align:start;line-height:125%;writing-mode:lr-tb;text-anchor:start;font-family:Sans;-inkscape-font-specification:Sans">Pipeline 1</tspan></text><text id="text4458-5-6-8-7-0" x="233.065" y="387.511" xml:space="preserve" style="font-size:11px;font-style:normal;font-variant:normal;font-weight:400;font-stretch:normal;text-align:start;line-height:125%;letter-spacing:0;word-spacing:0;writing-mode:lr-tb;text-anchor:start;fill:#000;fill-opacity:1;stroke:none;font-family:Sans;-inkscape-font-specification:Sans"><tspan id="tspan4668-2-5-6" x="233.065" y="387.511" style="font-size:11px;font-style:normal;font-variant:normal;font-weight:400;font-stretch:normal;text-align:start;line-height:125%;writing-mode:lr-tb;text-anchor:start;font-family:Sans;-inkscape-font-specification:Sans">Table 1</tspan></text><text id="text4458-5-6-8-7-0-1" x="191.778" y="416.613" xml:space="preserve" style="font-size:11px;font-style:normal;font-variant:normal;font-weight:400;font-stretch:normal;text-align:start;line-height:125%;letter-spacing:0;word-spacing:0;writing-mode:lr-tb;text-anchor:start;fill:#000;fill-opacity:1;stroke:none;font-family:Sans;-inkscape-font-specification:Sans"><tspan id="tspan4668-2-5-6-3" x="191.778" y="416.613" style="font-size:11px;font-style:normal;font-variant:normal;font-weight:400;font-stretch:normal;text-align:start;line-height:125%;writing-mode:lr-tb;text-anchor:start;font-family:Sans;-inkscape-font-specification:Sans">Route</tspan></text><text id="text4458-5-6-8-7-0-1-8" x="251.784" y="415.584" xml:space="preserve" style="font-size:11px;font-style:normal;font-variant:normal;font-weight:400;font-stretch:normal;text-align:start;line-height:125%;letter-spacing:0;word-spacing:0;writing-mode:lr-tb;text-anchor:start;fill:#000;fill-opacity:1;stroke:none;font-family:Sans;-inkscape-font-specification:Sans"><tspan id="tspan4668-2-5-6-3-9" x="251.784" y="415.584" style="font-size:11px;font-style:normal;font-variant:normal;font-weight:400;font-stretch:normal;text-align:start;line-height:125%;writing-mode:lr-tb;text-anchor:start;font-family:Sans;-inkscape-font-specification:Sans">Next Hop</tspan></text><text id="text4458-5-6-8-7-3" x="462.594" y="411.554" xml:space="preserve" style="font-size:11px;font-style:normal;font-variant:normal;font-weight:400;font-stretch:normal;text-align:start;line-height:125%;letter-spacing:0;word-spacing:0;writing-mode:lr-tb;text-anchor:start;fill:#000;fill-opacity:1;stroke:none;font-family:Sans;-inkscape-font-specification:Sans"><tspan id="tspan4668-2-5-4" x="462.594" y="411.554" style="font-size:11px;font-style:normal;font-variant:normal;font-weight:400;font-stretch:normal;text-align:start;line-height:125%;writing-mode:lr-tb;text-anchor:start;font-family:Sans;-inkscape-font-specification:Sans">Pipeline 2</tspan></text><text id="text4458-5-6-8-7-0-4" x="471.909" y="442.297" xml:space="preserve" style="font-size:11px;font-style:normal;font-variant:normal;font-weight:400;font-stretch:normal;text-align:start;line-height:125%;letter-spacing:0;word-spacing:0;writing-mode:lr-tb;text-anchor:start;fill:#000;fill-opacity:1;stroke:none;font-family:Sans;-inkscape-font-specification:Sans"><tspan id="tspan4668-2-5-6-6" x="471.909" y="442.297" style="font-size:11px;font-style:normal;font-variant:normal;font-weight:400;font-stretch:normal;text-align:start;line-height:125%;writing-mode:lr-tb;text-anchor:start;font-family:Sans;-inkscape-font-specification:Sans">Table 2</tspan></text><text id="text4458-5-6-8-7-0-4-0" x="431.394" y="468.732" xml:space="preserve" style="font-size:11px;font-style:normal;font-variant:normal;font-weight:400;font-stretch:normal;text-align:start;line-height:125%;letter-spacing:0;word-spacing:0;writing-mode:lr-tb;text-anchor:start;fill:#000;fill-opacity:1;stroke:none;font-family:Sans;-inkscape-font-specification:Sans"><tspan id="tspan4668-2-5-6-6-6" x="431.394" y="468.732" style="font-size:11px;font-style:normal;font-variant:normal;font-weight:400;font-stretch:normal;text-align:start;line-height:125%;writing-mode:lr-tb;text-anchor:start;font-family:Sans;-inkscape-font-specification:Sans">Key</tspan></text><text id="text4458-5-6-8-7-0-4-0-6" x="486.888" y="469.889" xml:space="preserve" style="font-size:11px;font-style:normal;font-variant:normal;font-weight:400;font-stretch:normal;text-align:start;line-height:125%;letter-spacing:0;word-spacing:0;writing-mode:lr-tb;text-anchor:start;fill:#000;fill-opacity:1;stroke:none;font-family:Sans;-inkscape-font-specification:Sans"><tspan id="tspan4668-2-5-6-6-6-1" x="486.888" y="469.889" style="font-size:11px;font-style:normal;font-variant:normal;font-weight:400;font-stretch:normal;text-align:start;line-height:125%;writing-mode:lr-tb;text-anchor:start;font-family:Sans;-inkscape-font-specification:Sans">MAC Address</tspan></text><text id="text4458-5-6-8-7-8" x="334.647" y="584.996" xml:space="preserve" style="font-size:11px;font-style:normal;font-variant:normal;font-weight:400;font-stretch:normal;text-align:start;line-height:125%;letter-spacing:0;word-spacing:0;writing-mode:lr-tb;text-anchor:start;fill:#000;fill-opacity:1;stroke:none;font-family:Sans;-inkscape-font-specification:Sans"><tspan id="tspan4668-2-5-49" x="334.647" y="584.996" style="font-size:11px;font-style:normal;font-variant:normal;font-weight:400;font-stretch:normal;text-align:start;line-height:125%;writing-mode:lr-tb;text-anchor:start;font-family:Sans;-inkscape-font-specification:Sans">Pipeline 1</tspan></text><text id="text4458-5-6-8-7-0-1-6" x="197.478" y="642.033" xml:space="preserve" style="font-size:11px;font-style:normal;font-variant:normal;font-weight:400;font-stretch:normal;text-align:start;line-height:125%;letter-spacing:0;word-spacing:0;writing-mode:lr-tb;text-anchor:start;fill:#000;fill-opacity:1;stroke:none;font-family:Sans;-inkscape-font-specification:Sans"><tspan id="tspan4668-2-5-6-3-3" x="197.478" y="642.033" style="font-size:11px;font-style:normal;font-variant:normal;font-weight:400;font-stretch:normal;text-align:start;line-height:125%;writing-mode:lr-tb;text-anchor:start;font-family:Sans;-inkscape-font-specification:Sans">Route</tspan></text><text id="text4458-5-6-8-7-0-1-8-7" x="257.484" y="641.005" xml:space="preserve" style="font-size:11px;font-style:normal;font-variant:normal;font-weight:400;font-stretch:normal;text-align:start;line-height:125%;letter-spacing:0;word-spacing:0;writing-mode:lr-tb;text-anchor:start;fill:#000;fill-opacity:1;stroke:none;font-family:Sans;-inkscape-font-specification:Sans"><tspan id="tspan4668-2-5-6-3-9-8" x="257.484" y="641.005" style="font-size:11px;font-style:normal;font-variant:normal;font-weight:400;font-stretch:normal;text-align:start;line-height:125%;writing-mode:lr-tb;text-anchor:start;font-family:Sans;-inkscape-font-specification:Sans">Next Hop</tspan></text><text id="text4458-5-6-8-7-0-4-0-8" x="392.875" y="697.183" xml:space="preserve" style="font-size:11px;font-style:normal;font-variant:normal;font-weight:400;font-stretch:normal;text-align:start;line-height:125%;letter-spacing:0;word-spacing:0;writing-mode:lr-tb;text-anchor:start;fill:#000;fill-opacity:1;stroke:none;font-family:Sans;-inkscape-font-specification:Sans"><tspan id="tspan4668-2-5-6-6-6-2" x="392.875" y="697.183" style="font-size:11px;font-style:normal;font-variant:normal;font-weight:400;font-stretch:normal;text-align:start;line-height:125%;writing-mode:lr-tb;text-anchor:start;font-family:Sans;-inkscape-font-specification:Sans">Key</tspan></text><text id="text4458-5-6-8-7-0-4-0-6-9" x="445.362" y="698.34" xml:space="preserve" style="font-size:11px;font-style:normal;font-variant:normal;font-weight:400;font-stretch:normal;text-align:start;line-height:125%;letter-spacing:0;word-spacing:0;writing-mode:lr-tb;text-anchor:start;fill:#000;fill-opacity:1;stroke:none;font-family:Sans;-inkscape-font-specification:Sans"><tspan id="tspan4668-2-5-6-6-6-1-1" x="445.362" y="698.34" style="font-size:11px;font-style:normal;font-variant:normal;font-weight:400;font-stretch:normal;text-align:start;line-height:125%;writing-mode:lr-tb;text-anchor:start;font-family:Sans;-inkscape-font-specification:Sans">MAC Address</tspan></text><text id="text4458-5-6-8-7-0-3" x="238.765" y="611.665" xml:space="preserve" style="font-size:11px;font-style:normal;font-variant:normal;font-weight:400;font-stretch:normal;text-align:start;line-height:125%;letter-spacing:0;word-spacing:0;writing-mode:lr-tb;text-anchor:start;fill:#000;fill-opacity:1;stroke:none;font-family:Sans;-inkscape-font-specification:Sans"><tspan id="tspan4668-2-5-6-5" x="238.765" y="611.665" style="font-size:11px;font-style:normal;font-variant:normal;font-weight:400;font-stretch:normal;text-align:start;line-height:125%;writing-mode:lr-tb;text-anchor:start;font-family:Sans;-inkscape-font-specification:Sans">Table 1</tspan></text><text id="text4458-5-6-8-7-0-4-9" x="432.67" y="666.956" xml:space="preserve" style="font-size:11px;font-style:normal;font-variant:normal;font-weight:400;font-stretch:normal;text-align:start;line-height:125%;letter-spacing:0;word-spacing:0;writing-mode:lr-tb;text-anchor:start;fill:#000;fill-opacity:1;stroke:none;font-family:Sans;-inkscape-font-specification:Sans"><tspan id="tspan4668-2-5-6-6-8" x="432.67" y="666.956" style="font-size:11px;font-style:normal;font-variant:normal;font-weight:400;font-stretch:normal;text-align:start;line-height:125%;writing-mode:lr-tb;text-anchor:start;font-family:Sans;-inkscape-font-specification:Sans">Table 2</tspan></text></g></svg>