<svg xmlns="http://www.w3.org/2000/svg" xmlns:svg="http://www.w3.org/2000/svg" id="svg2" width="638.182" height="273.164" version="1.1"><defs id="defs4"><marker style="overflow:visible" id="Arrow1Mend" orient="auto" refX="0" refY="0"><path style="fill-rule:evenodd;stroke:#000;stroke-width:1pt" id="path3887" d="M 0.0,0.0 L 5.0,-5.0 L -12.5,0.0 L 5.0,5.0 L 0.0,0.0 z" transform="scale(0.4) rotate(180) translate(10,0)"/></marker><marker style="overflow:visible" id="Arrow1Lstart" orient="auto" refX="0" refY="0"><path style="fill-rule:evenodd;stroke:#000;stroke-width:1pt" id="path3878" d="M 0.0,0.0 L 5.0,-5.0 L -12.5,0.0 L 5.0,5.0 L 0.0,0.0 z" transform="scale(0.8) translate(12.5,0)"/></marker><clipPath id="clipEmfPath1" clipPathUnits="userSpaceOnUse"><rect id="rect2990" width="585" height="213.839" x="0" y="0"/></clipPath><clipPath id="clipEmfPath2" clipPathUnits="userSpaceOnUse"><rect id="rect2993" width="66.3" height="71.379" x="132.75" y="118.016"/></clipPath><clipPath id="clipEmfPath3" clipPathUnits="userSpaceOnUse"><rect id="rect2996" width="66.3" height="72.879" x="132.3" y="19.794"/></clipPath><clipPath id="clipEmfPath4" clipPathUnits="userSpaceOnUse"><rect id="rect2999" width="65.7" height="75.428" x="31.2" y="56.984"/></clipPath><clipPath id="clipEmfPath5" clipPathUnits="userSpaceOnUse"><rect id="rect3002" width="168" height="157.605" x="331.95" y="16.795"/></clipPath></defs><metadata id="metadata7"/><g id="layer1" transform="translate(-82.82706,-337.43917)"><path id="path3008" d="m 132.375,113.1425 0,80.97674 66.9,0 0,-80.97674 -66.9,0 z" clip-path="url(#clipEmfPath1)" transform="matrix(1.1694604,0,0,1.4323235,83.010165,320.85569)" style="fill:#fff;fill-opacity:1;fill-rule:evenodd;stroke:none"/><path id="path3010" d="m 237.46665,598.89724 0,-3.43659 0.70167,0 0,3.43659 z m 0,-6.01403 0,-3.43658 0.70167,0 0,3.43658 z m 0,-6.01404 0,-3.43658 0.70167,0 0,3.43658 z m 0,-6.01402 0,-3.43659 0.70167,0 0,3.43659 z m 0,-6.01403 0,-3.4366 0.70167,0 0,3.4366 z m 0,-6.01404 0,-3.43659 0.70167,0 0,3.43659 z m 0,-6.01402 0,-3.43659 0.70167,0 0,3.43659 z m 0,-6.01404 0,-3.43659 0.70167,0 0,3.43659 z m 0,-6.01403 0,-3.43659 0.70167,0 0,3.43659 z m 0,-6.01402 0,-3.43659 0.70167,0 0,3.43659 z m 0,-6.01404 0,-3.43659 0.70167,0 0,3.43659 z m 0,-6.01403 0,-3.43659 0.70167,0 0,3.43659 z m 0,-6.01404 0,-3.43659 0.70167,0 0,3.43659 z m 0,-6.01403 0,-3.43658 0.70167,0 0,3.43658 z m 0,-6.01402 0,-3.43659 0.70167,0 0,3.43659 z m 0,-6.01404 0,-3.43659 0.70167,0 0,3.43659 z m 0,-6.01403 0,-3.43658 0.70167,0 0,3.43658 z m 0,-6.01404 0,-3.43658 0.70167,0 0,3.43658 z m 0,-6.01402 0,-3.43659 0.70167,0 0,3.43659 z m 0,-6.01403 0, -1.7183 c 0,-0.22821 0.16445,-0.42957 0.35084,-0.42957 l 1.40335,0 0,0.85914 -1.40335,0 0.35083,-0.42957 0,1.7183 z m 3.85922,-2.14787 2.8067,0 0,0.85914 -2.8067,0 z m 4.91173,0 2.80671,0 0,0.85914 -2.80671,0 z m 4.91173,0 2.80671,0 0,0.85914 -2.80671,0 z m 4.91174,0 2.8067,0 0,0.85914 -2.8067,0 z m 4.91173,0 2.80671,0 0,0.85914 -2.80671,0 z m 4.91174,0 2.8067,0 0,0.85914 -2.8067,0 z m 4.91173,0 2.8067,0 0,0.85914 -2.8067,0 z m 4.91173,0 2.80671,0 0,0.85914 -2.80671,0 z m 4.91174,0 2.8067,0 0,0.85914 -2.8067,0 z m 4.91173,0 2.8067,0 0,0.85914 -2.8067,0 z m 4.91173,0 2.80671,0 0,0.85914 -2.80671,0 z m 4.91174,0 2.8067,0 0,0.85914 -2.8067,0 z m 4.91173,0 2.80671,0 0,0.85914 -2.80671,0 z m 4.91173,0 2.80671,0 0,0.85914 -2.80671,0 z m 4.91174,0 2.8067,0 0,0.85914 -2.8067,0 z m 4.91173,0 1.05252,0 c 0.19734,0 0.35083,0.20136 0.35083, 0.42957 l 0,2.14787 -0.70167,0 0,-2.14787 0.35084,0.42957 -1.05252,0 z m 1.40335,5.15488 0,3.43659 -0.70167,0 0,-3.43659 z m 0,6.01404 0,3.43659 -0.70167,0 0,-3.43659 z m 0,6.01402 0,3.43659 -0.70167,0 0,-3.43659 z m 0,6.01404 0,3.43659 -0.70167,0 0,-3.43659 z m 0,6.01403 0,3.43659 -0.70167,0 0,-3.43659 z m 0,6.01403 0,3.43658 -0.70167,0 0,-3.43658 z m 0,6.01403 0,3.43659 -0.70167,0 0,-3.43659 z m 0,6.01403 0,3.43659 -0.70167,0 0,-3.43659 z m 0,6.01404 0,3.43659 -0.70167,0 0,-3.43659 z m 0,6.01403 0,3.43658 -0.70167,0 0,-3.43658 z m 0,6.01402 0,3.43659 -0.70167,0 0,-3.43659 z m 0,6.01404 0,3.43659 -0.70167,0 0,-3.43659 z m 0,6.01403 0,3.43659 -0.70167,0 0,-3.43659 z m 0,6.01402 0,3.43661 -0.70167,0 0,-3.43661 z m 0,6.01404 0,3.43659 -0.70167,0 0,-3.43659 z m 0,6.01403 0,3.43659 -0.70167,0 0,-3.43659 z m 0,6.01404 0,3.43659 -0.70167, 0 0,-3.43659 z m 0,6.01402 0,3.43659 -0.70167,0 0,-3.43659 z m 0,6.01403 0,3.00702 c 0,0.24163 -0.15349,0.42958 -0.35083,0.42958 l -0.35084,0 0,-0.85915 0.35084,0 -0.35084,0.42957 0,-3.00702 z m -2.8067,3.4366 -2.80671,0 0,-0.85915 2.80671,0 z m -4.91173,0 -2.80671,0 0,-0.85915 2.80671,0 z m -4.91174,0 -2.8067,0 0,-0.85915 2.8067,0 z m -4.91173,0 -2.80671,0 0,-0.85915 2.80671,0 z m -4.91174,0 -2.8067,0 0,-0.85915 2.8067,0 z m -4.91173,0 -2.8067,0 0,-0.85915 2.8067,0 z m -4.91173,0 -2.80671,0 0,-0.85915 2.80671,0 z m -4.91174,0 -2.8067,0 0,-0.85915 2.8067,0 z m -4.91173,0 -2.80671,0 0,-0.85915 2.80671,0 z m -4.91173,0 -2.80671,0 0,-0.85915 2.80671,0 z m -4.91174,0 -2.8067,0 0,-0.85915 2.8067,0 z m -4.91173,0 -2.80671,0 0,-0.85915 2.80671,0 z m -4.91173,0 -2.80671,0 0,-0.85915 2.80671,0 z m -4.91174,0 -2.8067,0 0,-0.85915 2.8067,0 z m -4.91173,0 -2.80671,0 0,-0.85915 2.80671,0 z m -4.91174,0 -2.10502,0 0,-0.85915 2.10502,0 z" style="fill:#000;fill-opacity:1;fill-rule:nonzero;stroke:#000;stroke-width:.01213346;stroke-linecap:butt;stroke-linejoin:round;stroke-opacity:1;stroke-dasharray:.03640038,.01213346;stroke-miterlimit:4;stroke-dashoffset:0"/><path id="path3012" d="m 131.925,14.920714 0,82.626267 66.9,0 0,-82.626267 -66.9,0 z" clip-path="url(#clipEmfPath2)" transform="matrix(1.1694604,0,0,1.4323235,83.010165,320.85569)" style="fill:#fff;fill-opacity:1;fill-rule:evenodd;stroke:none"/><path id="path3014" d="m 236.94039,460.57452 0,-3.43659 0.70168,0 0,3.43659 z m 0,-6.01403 0,-3.43659 0.70168,0 0,3.43659 z m 0,-6.01403 0,-3.43659 0.70168,0 0,3.43659 z m 0,-6.01403 0,-3.43659 0.70168,0 0,3.43659 z m 0,-6.01403 0,-3.43659 0.70168,0 0,3.43659 z m 0,-6.01403 0,-3.43659 0.70168,0 0,3.43659 z m 0,-6.01403 0,-3.43659 0.70168,0 0,3.43659 z m 0,-6.01404 0,-3.43659 0.70168,0 0,3.43659 z m 0,-6.01403 0,-3.43659 0.70168,0 0,3.43659 z m 0,-6.01403 0,-3.43659 0.70168,0 0,3.43659 z m 0,-6.01403 0,-3.43659 0.70168,0 0,3.43659 z m 0,-6.01403 0,-3.43659 0.70168,0 0,3.43659 z m 0,-6.01403 0,-3.43659 0.70168,0 0,3.43659 z m 0,-6.01403 0,-3.43659 0.70168,0 0,3.43659 z m 0,-6.01403 0,-3.43659 0.70168,0 0,3.43659 z m 0,-6.01404 0,-3.43658 0.70168,0 0,3.43658 z m 0,-6.01403 0,-3.43659 0.70168,0 0,3.43659 z m 0,-6.01403 0,-3.43659 0.70168, 0 0,3.43659 z m 0,-6.01403 0,-3.43659 0.70168,0 0,3.43659 z m 0,-6.01403 0,-3.43659 0.70168,0 0,3.43659 z m 1.92961,-4.51052 2.8067,0 0,0.85914 -2.8067,0 z m 4.91173,0 2.80671,0 0,0.85914 -2.80671,0 z m 4.91174,0 2.8067,0 0,0.85914 -2.8067,0 z m 4.91173,0 2.80671,0 0,0.85914 -2.80671,0 z m 4.91173,0 2.80671,0 0,0.85914 -2.80671,0 z m 4.91174,0 2.8067,0 0,0.85914 -2.8067,0 z m 4.91173,0 2.80671,0 0,0.85914 -2.80671,0 z m 4.91174,0 2.8067,0 0,0.85914 -2.8067,0 z m 4.91173,0 2.8067,0 0,0.85914 -2.8067,0 z m 4.91173,0 2.80671,0 0,0.85914 -2.80671,0 z m 4.91174,0 2.8067,0 0,0.85914 -2.8067,0 z m 4.91173,0 2.80671,0 0,0.85914 -2.80671,0 z m 4.91173,0 2.80671,0 0,0.85914 -2.80671,0 z m 4.91174,0 2.8067,0 0,0.85914 -2.8067,0 z m 4.91173,0 2.80671,0 0,0.85914 -2.80671,0 z m 4.91174,0 2.8067,0 0,0.85914 -2.8067,0 z m 3.33296,2.79222 0, 3.43659 -0.70168,0 0,-3.43659 z m 0,6.01404 0,3.43658 -0.70168,0 0,-3.43658 z m 0,6.01403 0,3.43659 -0.70168,0 0,-3.43659 z m 0,6.01403 0,3.43659 -0.70168,0 0,-3.43659 z m 0,6.01403 0,3.43659 -0.70168,0 0,-3.43659 z m 0,6.01403 0,3.43659 -0.70168,0 0,-3.43659 z m 0,6.01403 0,3.43659 -0.70168,0 0,-3.43659 z m 0,6.01403 0,3.43659 -0.70168,0 0,-3.43659 z m 0,6.01403 0,3.43659 -0.70168,0 0,-3.43659 z m 0,6.01404 0,3.43659 -0.70168,0 0,-3.43659 z m 0,6.01403 0,3.43659 -0.70168,0 0,-3.43659 z m 0,6.01403 0,3.43659 -0.70168,0 0,-3.43659 z m 0,6.01403 0,3.43659 -0.70168,0 0,-3.43659 z m 0,6.01403 0,3.43659 -0.70168,0 0,-3.43659 z m 0,6.01403 0,3.43659 -0.70168,0 0,-3.43659 z m 0,6.01403 0,3.43659 -0.70168,0 0,-3.43659 z m 0,6.01403 0,3.43659 -0.70168,0 0,-3.43659 z m 0,6.01404 0,3.43658 -0.70168,0 0,-3.43658 z m 0,6.01403 0,3.43659 -0.70168, 0 0,-3.43659 z m 0,6.01403 0,1.71829 c 0,0.24164 -0.15349,0.42958 -0.35084,0.42958 l -1.40335,0 0,-0.85915 1.40335,0 -0.35084,0.42957 0,-1.71829 z m -3.85922,2.14787 -2.80671,0 0,-0.85915 2.80671,0 z m -4.91174,0 -2.8067,0 0,-0.85915 2.8067,0 z m -4.91173,0 -2.8067,0 0,-0.85915 2.8067,0 z m -4.91173,0 -2.80671,0 0,-0.85915 2.80671,0 z m -4.91174,0 -2.8067,0 0,-0.85915 2.8067,0 z m -4.91173,0 -2.80671,0 0,-0.85915 2.80671,0 z m -4.91173,0 -2.80671,0 0,-0.85915 2.80671,0 z m -4.91174,0 -2.8067,0 0,-0.85915 2.8067,0 z m -4.91173,0 -2.80671,0 0,-0.85915 2.80671,0 z m -4.91174,0 -2.8067,0 0,-0.85915 2.8067,0 z m -4.91173,0 -2.8067,0 0,-0.85915 2.8067,0 z m -4.91173,0 -2.80671,0 0,-0.85915 2.80671,0 z m -4.91174,0 -2.8067,0 0,-0.85915 2.8067,0 z m -4.91173,0 -2.8067,0 0,-0.85915 2.8067,0 z m -4.91173,0 -2.80671,0 0,-0.85915 2.80671,0 z m -4.91174,0 -1.05251,0 0,-0.85915 1.05251,0 z" style="fill:#000;fill-opacity:1;fill-rule:nonzero;stroke:#000;stroke-width:.01213346;stroke-linecap:butt;stroke-linejoin:round;stroke-opacity:1;stroke-dasharray:.04853384,.01213346;stroke-miterlimit:4;stroke-dashoffset:0"/><path id="path3016" d="m 30.825,52.110032 0,85.025578 66.3,0 0,-85.025578 -66.3,0 z" clip-path="url(#clipEmfPath3)" transform="matrix(1.1694604,0,0,1.4323235,83.010165,320.85569)" style="fill:#fff;fill-opacity:1;fill-rule:evenodd;stroke:none"/><path id="path3018" d="m 118.70794,517.27825 0,-3.43659 0.70168,0 0,3.43659 z m 0,-6.01403 0,-3.4366 0.70168,0 0,3.4366 z m 0,-6.01404 0,-3.43659 0.70168,0 0,3.43659 z m 0,-6.01402 0,-3.43659 0.70168,0 0,3.43659 z m 0,-6.01404 0,-3.43659 0.70168,0 0,3.43659 z m 0,-6.01403 0,-3.43659 0.70168,0 0,3.43659 z m 0,-6.01403 0,-3.4366 0.70168,0 0,3.4366 z m 0,-6.01404 0,-3.43658 0.70168,0 0,3.43658 z m 0,-6.01402 0,-3.43659 0.70168,0 0,3.43659 z m 0,-6.01403 0,-3.43659 0.70168,0 0,3.43659 z m 0,-6.01404 0,-3.43659 0.70168,0 0,3.43659 z m 0,-6.01403 0,-3.43659 0.70168,0 0,3.43659 z m 0,-6.01403 0,-3.43659 0.70168,0 0,3.43659 z m 0,-6.01403 0,-3.43659 0.70168,0 0,3.43659 z m 0,-6.01403 0,-3.43659 0.70168,0 0,3.43659 z m 0,-6.01403 0,-3.43659 0.70168,0 0,3.43659 z m 0,-6.01403 0,-3.43659 0.70168,0 0,3.43659 z m 0,-6.01404 0,-3.43659 0.70168, 0 0,3.43659 z m 0,-6.01403 0,-3.43658 0.70168,0 0,3.43658 z m 0,-6.01403 0,-3.43659 0.70168,0 0,3.43659 z m 0,-6.01403 0,-1.50351 c 0,-0.22821 0.16446,-0.42957 0.35084,-0.42957 l 1.57877,0 0,0.85915 -1.57877,0 0.35084,-0.42958 0,1.50351 z m 4.03464,-1.93308 2.80671,0 0,0.85915 -2.80671,0 z m 4.91174,0 2.8067,0 0,0.85915 -2.8067,0 z m 4.91173,0 2.8067,0 0,0.85915 -2.8067,0 z m 4.91173,0 2.80671,0 0,0.85915 -2.80671,0 z m 4.91174,0 2.8067,0 0,0.85915 -2.8067,0 z m 4.91173,0 2.80671,0 0,0.85915 -2.80671,0 z m 4.91173,0 2.80671,0 0,0.85915 -2.80671,0 z m 4.91174,0 2.8067,0 0,0.85915 -2.8067,0 z m 4.91173,0 2.80671,0 0,0.85915 -2.80671,0 z m 4.91174,0 2.8067,0 0,0.85915 -2.8067,0 z m 4.91173,0 2.8067,0 0,0.85915 -2.8067,0 z m 4.91173,0 2.80671,0 0,0.85915 -2.80671,0 z m 4.91174,0 2.8067,0 0,0.85915 -2.8067,0 z m 4.91173,0 2.8067, 0 0,0.85915 -2.8067,0 z m 4.91173,0 2.80671,0 0,0.85915 -2.80671,0 z m 4.91174,0 0.17542,0 c 0.19734,0 0.35083,0.20136 0.35083,0.42957 l 0,3.22181 -0.70167,0 0,-3.22181 0.35084,0.42958 -0.17542,0 z m 0.52625,6.22882 0,3.43659 -0.70167,0 0,-3.43659 z m 0,6.01403 0,3.43659 -0.70167,0 0,-3.43659 z m 0,6.01403 0,3.43659 -0.70167,0 0,-3.43659 z m 0,6.01403 0,3.43659 -0.70167,0 0,-3.43659 z m 0,6.01403 0,3.43659 -0.70167,0 0,-3.43659 z m 0,6.01403 0,3.43659 -0.70167,0 0,-3.43659 z m 0,6.01404 0,3.43658 -0.70167,0 0,-3.43658 z m 0,6.01403 0,3.43659 -0.70167,0 0,-3.43659 z m 0,6.01403 0,3.43659 -0.70167,0 0,-3.43659 z m 0,6.01403 0,3.43659 -0.70167,0 0,-3.43659 z m 0,6.01403 0,3.43659 -0.70167,0 0,-3.43659 z m 0,6.01403 0,3.43659 -0.70167,0 0,-3.43659 z m 0,6.01404 0,3.43659 -0.70167,0 0,-3.43659 z m 0,6.01402 0,3.43659 -0.70167, 0 0,-3.43659 z m 0,6.01403 0,3.4366 -0.70167,0 0,-3.4366 z m 0,6.01404 0,3.43659 -0.70167,0 0,-3.43659 z m 0,6.01402 0,3.43659 -0.70167,0 0,-3.43659 z m 0,6.01404 0,3.43659 -0.70167,0 0,-3.43659 z m 0,6.01403 0,3.43659 -0.70167,0 0,-3.43659 z m 0,6.01403 0,1.7183 c 0,0.24163 -0.15349,0.42957 -0.35083,0.42957 l -1.40336,0 0,-0.85914 1.40336,0 -0.35084,0.42957 0,-1.7183 z m -3.85921,2.14787 -2.80671,0 0,-0.85914 2.80671,0 z m -4.91174,0 -2.8067,0 0,-0.85914 2.8067,0 z m -4.91173,0 -2.80671,0 0,-0.85914 2.80671,0 z m -4.91174,0 -2.8067,0 0,-0.85914 2.8067,0 z m -4.91173,0 -2.8067,0 0,-0.85914 2.8067,0 z m -4.91173,0 -2.80671,0 0,-0.85914 2.80671,0 z m -4.91174,0 -2.8067,0 0,-0.85914 2.8067,0 z m -4.91173,0 -2.80671,0 0,-0.85914 2.80671,0 z m -4.91173,0 -2.80671,0 0,-0.85914 2.80671,0 z m -4.91174,0 -2.8067,0 0,-0.85914 2.8067, 0 z m -4.91173,0 -2.80671,0 0,-0.85914 2.80671,0 z m -4.91174,0 -2.8067,0 0,-0.85914 2.8067,0 z m -4.91173,0 -2.8067,0 0,-0.85914 2.8067,0 z m -4.91173,0 -2.80671,0 0,-0.85914 2.80671,0 z m -4.91174,0 -2.8067,0 0,-0.85914 2.8067,0 z m -4.91173,0 -0.35084,0 0,-0.85914 0.35084,0 z" style="fill:#000;fill-opacity:1;fill-rule:nonzero;stroke:#000;stroke-width:.01213346;stroke-linecap:butt;stroke-linejoin:round;stroke-opacity:1;stroke-dasharray:.03640038,.01213346;stroke-miterlimit:4;stroke-dashoffset:0"/><path id="path3020" d="m 15.225,83.001159 3.253125,0 c 0.35625,0 0.646875,0.299914 0.646875,0.656061 l 0,16.73894 -3.9,0 z" clip-path="url(#clipEmfPath4)" transform="matrix(1.1694604,0,0,1.4323235,83.010165,320.85569)" style="fill:none;stroke:#000;stroke-width:1.20000005px;stroke-linecap:butt;stroke-linejoin:miter;stroke-miterlimit:4;stroke-opacity:1;stroke-dasharray:none"/><path id="path3022" d="m 105.3761,439.52541 3.8044,0 c 0.41662,0 0.75649,0.42958 0.75649,0.9397 l 0,24.19036 -4.56089,0 z" style="fill:none;stroke:#000;stroke-width:1.5530827px;stroke-linecap:butt;stroke-linejoin:miter;stroke-miterlimit:4;stroke-opacity:1;stroke-dasharray:none"/><path id="path3024" d="m 109.93699,439.7402 3.66187,0 c 0.40566,0 0.72361,0.40273 0.72361,0.89942 l 0,24.01585 -4.38548,0 z" style="fill:none;stroke:#000;stroke-width:1.5530827px;stroke-linecap:butt;stroke-linejoin:miter;stroke-miterlimit:4;stroke-opacity:1;stroke-dasharray:none"/><path id="path3026" d="m 130.46102,435.44446 0,75.17539 60.695,0 0,-75.17539 -60.695,0 z" style="fill:#fff;fill-opacity:1;fill-rule:evenodd;stroke:none"/><path id="path3028" d="m 130.46102,435.44446 60.695,0 0,75.17539 -60.695,0 z" style="fill:none;stroke:#000;stroke-width:.77654135px;stroke-linecap:butt;stroke-linejoin:round;stroke-opacity:1;stroke-dasharray:none"/><path id="path3030" d="m 100.8152,483.12714 3.8044,0 c 0.41662,0 0.7565,0.42957 0.7565,0.93969 l 0,23.97558 -4.5609,0 z" style="fill:none;stroke:#000;stroke-width:1.5530827px;stroke-linecap:butt;stroke-linejoin:miter;stroke-miterlimit:4;stroke-opacity:1;stroke-dasharray:none"/><path id="path3032" d="m 105.3761,482.91235 3.8044,0 c 0.41662,0 0.75649,0.42957 0.75649,0.93969 l 0,24.19037 -4.56089,0 z" style="fill:none;stroke:#000;stroke-width:1.5530827px;stroke-linecap:butt;stroke-linejoin:miter;stroke-miterlimit:4;stroke-opacity:1;stroke-dasharray:none"/><path id="path3034" d="m 109.93699,483.12714 3.66187,0 c 0.40566,0 0.72361,0.40273 0.72361,0.89942 l 0,24.01585 -4.38548,0 z" style="fill:none;stroke:#000;stroke-width:1.5530827px;stroke-linecap:butt;stroke-linejoin:miter;stroke-miterlimit:4;stroke-opacity:1;stroke-dasharray:none"/><path id="path3036" d="m 216.06552,512.55294 3.66187,0 c 0.40566,0 0.72361,0.40273 0.72361,0.89941 l 0,24.23065 -4.38548,0 z" style="fill:none;stroke:#000;stroke-width:1.5530827px;stroke-linecap:butt;stroke-linejoin:miter;stroke-miterlimit:4;stroke-opacity:1;stroke-dasharray:none"/><path id="path3038" d="m 220.451,512.55294 3.80439,0 c 0.41662,0 0.7565,0.42957 0.7565,0.93969 l 0,23.97558 -4.56089,0 z" style="fill:none;stroke:#000;stroke-width:1.5530827px;stroke-linecap:butt;stroke-linejoin:miter;stroke-miterlimit:4;stroke-opacity:1;stroke-dasharray:none"/><path id="path3040" d="m 225.01189,512.55294 3.8044,0 c 0.41662,0 0.7565,0.42957 0.7565,0.93969 l 0,24.19037 -4.5609,0 z" style="fill:none;stroke:#000;stroke-width:1.5530827px;stroke-linecap:butt;stroke-linejoin:miter;stroke-miterlimit:4;stroke-opacity:1;stroke-dasharray:none"/><path id="path3042" d="m 248.86889,377.88159 0,75.17539 60.51957,0 0,-75.17539 -60.51957,0 z" style="fill:#fff;fill-opacity:1;fill-rule:evenodd;stroke:none"/><path id="path3044" d="m 248.86889,377.88159 60.51957,0 0,75.17539 -60.51957,0 z" style="fill:none;stroke:#000;stroke-width:.77654135px;stroke-linecap:butt;stroke-linejoin:round;stroke-opacity:1;stroke-dasharray:none"/><path id="path3046" d="m 249.57056,488.06724 0,75.17539 60.695,0 0,-75.17539 -60.695,0 z" style="fill:#fff;fill-opacity:1;fill-rule:evenodd;stroke:none"/><path id="path3048" d="m 249.57056,488.06724 60.695,0 0,75.17539 -60.695,0 z" style="fill:none;stroke:#000;stroke-width:.77654135px;stroke-linecap:butt;stroke-linejoin:round;stroke-opacity:1;stroke-dasharray:none"/><path id="path3050" d="m 216.06552,404.30037 3.66187,0 c 0.40566,0 0.72361,0.40273 0.72361,0.89942 l 0,24.01586 -4.38548,0 z" style="fill:none;stroke:#000;stroke-width:1.5530827px;stroke-linecap:butt;stroke-linejoin:miter;stroke-miterlimit:4;stroke-opacity:1;stroke-dasharray:none"/><path id="path3052" d="m 220.451,404.30037 3.80439,0 c 0.41662,0 0.7565,0.42958 0.7565,0.9397 l 0,23.97558 -4.56089,0 z" style="fill:none;stroke:#000;stroke-width:1.5530827px;stroke-linecap:butt;stroke-linejoin:miter;stroke-miterlimit:4;stroke-opacity:1;stroke-dasharray:none"/><path id="path3054" d="m 225.01189,404.30037 3.8044,0 c 0.41662,0 0.7565,0.42958 0.7565,0.9397 l 0,23.97558 -4.5609,0 z" style="fill:none;stroke:#000;stroke-width:1.5530827px;stroke-linecap:butt;stroke-linejoin:miter;stroke-miterlimit:4;stroke-opacity:1;stroke-dasharray:none"/><path id="path3056" d="m 114.36632,451.31184 9.51649,0.57724 -0.0768,1.78542 -9.51648,-0.57724 0.0768,-1.78542 z m 9.48359,1.47666 -2.70803,-5.54418 8.54072,5.89321 -8.97926,4.8327 3.14657,-5.18173 z" style="fill:#000;fill-opacity:1;fill-rule:nonzero;stroke:#000;stroke-width:.01213346;stroke-linecap:butt;stroke-linejoin:miter;stroke-opacity:1;stroke-dasharray:.01213346,.01213346;stroke-miterlimit:4;stroke-dashoffset:0;marker-mid:none"/><path id="path3058" d="m 115.24342,495.34314 9.51648,0.56382 -0.0768,1.78541 -9.51648,-0.56381 0.0768,-1.78542 z m 9.48359,1.46324 -2.70803,-5.54418 8.54071,5.89321 -8.9683,4.8327 3.13562,-5.18173 z" style="fill:#000;fill-opacity:1;fill-rule:nonzero;stroke:#000;stroke-width:.01213346;stroke-linecap:butt;stroke-linejoin:miter;stroke-opacity:1;stroke-dasharray:.01213346,.01213346;stroke-miterlimit:4;stroke-dashoffset:0;marker-mid:none"/><path id="path3060" d="m 191.15602,445.78108 12.2574,0 0,-28.37871 -0.73457,0.89942 5.66823,0 0,-1.78542 -6.40279,0 0,28.36529 0.73456,-0.886 -11.52283,0 0,1.78542 z m 17.19106,-28.37871 -2.91634,5.36967 8.77095,-5.36967 -8.77095,-5.36967 2.91634,5.36967 z" style="fill:#000;fill-opacity:1;fill-rule:nonzero;stroke:#000;stroke-width:.01213346;stroke-linecap:butt;stroke-linejoin:miter;stroke-opacity:1;stroke-dasharray:.01213346,.01213346;stroke-miterlimit:4;stroke-dashoffset:0;marker-mid:none"/><path id="path3062" d="m 192.03311,499.85366 11.87367,0 0,23.8145 -0.73456,-0.89943 5.2845,0 0,1.78542 -6.01906,0 0,-23.81448 0.73456,0.89941 -11.13911,0 0,-1.78542 z m 16.42361,23.8145 -2.91634,-5.36968 8.77095,5.36968 -8.77095,5.36966 2.91634,-5.36966 z" style="fill:#000;fill-opacity:1;fill-rule:nonzero;stroke:#000;stroke-width:.01213346;stroke-linecap:butt;stroke-linejoin:miter;stroke-opacity:1;stroke-dasharray:.01213346,.01213346;stroke-miterlimit:4;stroke-dashoffset:0;marker-mid:none"/><path id="path3064" d="m 82.96631,451.31184 9.516484,0.57724 -0.07675,1.78542 -9.516484,-0.57724 0.07675,-1.78542 z m 9.483593,1.47666 -2.708032,-5.54418 8.540716,5.89321 -8.979263,4.8327 3.146579,-5.18173 z" style="fill:#000;fill-opacity:1;fill-rule:nonzero;stroke:#000;stroke-width:.01213346;stroke-linecap:butt;stroke-linejoin:miter;stroke-opacity:1;stroke-dasharray:.01213346,.01213346;stroke-miterlimit:4;stroke-dashoffset:0;marker-mid:none"/><path id="path3066" d="m 83.667986,494.48399 9.516484,0.57724 -0.07675,1.78542 -9.516484,-0.57724 0.07675,-1.78542 z m 9.483593,1.47666 -2.708031,-5.54418 8.540715,5.89321 -8.979263,4.83271 3.146579,-5.18174 z" style="fill:#000;fill-opacity:1;fill-rule:nonzero;stroke:#000;stroke-width:.01213346;stroke-linecap:butt;stroke-linejoin:miter;stroke-opacity:1;stroke-dasharray:.01213346,.01213346;stroke-miterlimit:4;stroke-dashoffset:0;marker-mid:none"/><path id="path3068" d="m 230.28542,414.58329 12.57536,0.0268 0,1.78542 -12.58631,-0.0268 0.0105,-1.78542 z m 12.57536,0.92627 -2.91634,-5.38309 8.75999,5.39651 -8.77096,5.34283 2.92731,-5.35625 z" style="fill:#000;fill-opacity:1;fill-rule:nonzero;stroke:#000;stroke-width:.01213346px;stroke-linecap:butt;stroke-linejoin:round;stroke-opacity:1;stroke-dasharray:none"/><path id="path3070" d="m 229.59472,524.12458 14.12123,0.36245 -0.0329,1.78542 -14.12123,-0.36246 0.0329,-1.78541 z m 14.0993,1.24844 -2.82863,-5.43678 8.67228,5.58446 -8.85866,5.15487 3.01501,-5.30255 z" style="fill:#000;fill-opacity:1;fill-rule:nonzero;stroke:#000;stroke-width:.01213346;stroke-linecap:butt;stroke-linejoin:miter;stroke-opacity:1;stroke-dasharray:.01213346,.01213346;stroke-miterlimit:4;stroke-dashoffset:0;marker-mid:none"/><path id="path3072" d="m 310.27652,412.865 12.57535,0.0268 0,1.78541 -12.58631,-0.0269 0.0105,-1.78542 z m 12.57535,0.92627 -2.91634,-5.3831 8.75999,5.39652 -8.77096,5.34282 2.92731,-5.35624 z" style="fill:#000;fill-opacity:1;fill-rule:nonzero;stroke:#000;stroke-width:.01213346;stroke-linecap:butt;stroke-linejoin:miter;stroke-opacity:1;stroke-dasharray:.01213346,.01213346;stroke-miterlimit:4;stroke-dashoffset:0;marker-mid:none"/><path id="path3074" d="m 310.97819,524.55415 12.57536,0.0268 0,1.78542 -12.58632,-0.0268 0.0105,-1.78542 z m 12.57536,0.92627 -2.91634,-5.3831 8.75998,5.39652 -8.77095,5.34282 2.92731,-5.35624 z" style="fill:#000;fill-opacity:1;fill-rule:nonzero;stroke:#000;stroke-width:.01213346;stroke-linecap:butt;stroke-linejoin:miter;stroke-opacity:1;stroke-dasharray:.01213346,.01213346;stroke-miterlimit:4;stroke-dashoffset:0;marker-mid:none"/><path id="path3076" d="m 329.38623,401.50814 3.8044,0 c 0.41662,0 0.7565,0.42958 0.7565,0.9397 l 0,24.19036 -4.5609,0 z" style="fill:none;stroke:#000;stroke-width:1.5530827px;stroke-linecap:butt;stroke-linejoin:miter;stroke-miterlimit:4;stroke-opacity:1;stroke-dasharray:none"/><path id="path3078" d="m 333.94713,401.50814 3.8044,0 c 0.41662,0 0.7565,0.42958 0.7565,0.9397 l 0,23.97558 -4.5609,0 z" style="fill:none;stroke:#000;stroke-width:1.5530827px;stroke-linecap:butt;stroke-linejoin:miter;stroke-miterlimit:4;stroke-opacity:1;stroke-dasharray:none"/><path id="path3080" d="m 338.50803,401.50814 3.8044,0 c 0.41661,0 0.75649,0.42958 0.75649,0.9397 l 0,24.19036 -4.56089,0 z" style="fill:none;stroke:#000;stroke-width:1.5530827px;stroke-linecap:butt;stroke-linejoin:miter;stroke-miterlimit:4;stroke-opacity:1;stroke-dasharray:none"/><path id="path3082" d="m 330.78959,512.55294 3.66187,0 c 0.40566,0 0.7236,0.40273 0.7236,0.89941 l 0,24.23065 -4.38547,0 z" style="fill:none;stroke:#000;stroke-width:1.5530827px;stroke-linecap:butt;stroke-linejoin:miter;stroke-miterlimit:4;stroke-opacity:1;stroke-dasharray:none"/><path id="path3084" d="m 335.17506,512.55294 3.8044,0 c 0.41663,0 0.7565,0.42957 0.7565,0.93969 l 0,24.19037 -4.5609,0 z" style="fill:none;stroke:#000;stroke-width:1.5530827px;stroke-linecap:butt;stroke-linejoin:miter;stroke-miterlimit:4;stroke-opacity:1;stroke-dasharray:none"/><path id="path3086" d="m 339.73596,512.55294 3.80439,0 c 0.41664,0 0.7565,0.42957 0.7565,0.93969 l 0,24.19037 -4.56089,0 z" style="fill:none;stroke:#000;stroke-width:1.5530827px;stroke-linecap:butt;stroke-linejoin:miter;stroke-miterlimit:4;stroke-opacity:1;stroke-dasharray:none"/><path id="path3088" d="m 343.95699,412.865 12.57534,0.0268 0,1.78541 -12.58631,-0.0269 0.0105,-1.78542 z m 12.57534,0.92627 -2.91634,-5.3831 8.75999,5.39652 -8.77096,5.34282 2.92731,-5.35624 z" style="fill:#000;fill-opacity:1;fill-rule:nonzero;stroke:#000;stroke-width:.012;stroke-linecap:butt;stroke-linejoin:miter;stroke-opacity:1;stroke-dasharray:.012,.012;stroke-miterlimit:4;stroke-dashoffset:0;marker-mid:none"/><path id="path3090" d="m 344.30781,524.76894 12.57536,0.0268 0,1.78542 -12.58632,-0.0268 0.0105,-1.7854 z m 12.57536,0.92627 -2.91634,-5.3831 8.75998,5.39652 -8.77095,5.34283 2.92731,-5.35625 z" style="fill:#000;fill-opacity:1;fill-rule:nonzero;stroke:#000;stroke-width:.01213346;stroke-linecap:butt;stroke-linejoin:miter;stroke-opacity:1;stroke-dasharray:.01213346,.01213346;stroke-miterlimit:4;stroke-dashoffset:0;marker-mid:none"/><path id="path3094" d="m 470.42316,577.41856 0,-3.43659 0.70168,0 0,3.43659 -0.70168,0 z m 0,-6.01404 0,-3.43659 0.70168,0 0,3.43659 -0.70168,0 z m 0,-6.01403 0,-3.43658 0.70168,0 0,3.43658 -0.70168,0 z m 0,-6.01402 0,-3.43659 0.70168,0 0,3.43659 -0.70168,0 z m 0,-6.01404 0,-3.43659 0.70168,0 0,3.43659 -0.70168,0 z m 0,-6.01403 0,-3.43658 0.70168,0 0,3.43658 -0.70168,0 z m 0,-6.01402 0,-3.4366 0.70168,0 0,3.4366 -0.70168,0 z m 0,-6.01404 0,-3.43659 0.70168,0 0,3.43659 -0.70168,0 z m 0,-6.01403 0,-3.43659 0.70168,0 0,3.43659 -0.70168,0 z m 0,-6.01404 0,-3.43659 0.70168,0 0,3.43659 -0.70168,0 z m 0,-6.01402 0,-3.43659 0.70168,0 0,3.43659 -0.70168,0 z m 0,-6.01403 0,-3.4366 0.70168,0 0,3.4366 -0.70168,0 z m 0,-6.01404 0,-3.43659 0.70168,0 0,3.43659 -0.70168,0 z m 0,-6.01402 0,-3.43659 0.70168,0 0,3.43659 -0.70168,0 z m 0,-6.01404 0,-3.43659 0.70168, 0 0,3.43659 -0.70168,0 z m 0,-6.01403 0,-3.43659 0.70168,0 0,3.43659 -0.70168,0 z m 0,-6.01403 0,-3.4366 0.70168,0 0,3.4366 -0.70168,0 z m 0,-6.01404 0,-3.43658 0.70168,0 0,3.43658 -0.70168,0 z m 0,-6.01402 0,-3.43659 0.70168,0 0,3.43659 -0.70168,0 z m 0,-6.01403 0,-3.43659 0.70168,0 0,3.43659 -0.70168,0 z m 0,-6.01404 0,-3.43659 0.70168,0 0,3.43659 -0.70168,0 z m 0,-6.01403 0,-3.43659 0.70168,0 0,3.43659 -0.70168,0 z m 0,-6.01403 0,-3.43659 0.70168,0 0,3.43659 -0.70168,0 z m 0,-6.01403 0,-3.43659 0.70168,0 0,3.43659 -0.70168,0 z m 0,-6.01403 0,-3.43659 0.70168,0 0,3.43659 -0.70168,0 z m 0,-6.01403 0,-3.43659 0.70168,0 0,3.43659 -0.70168,0 z m 0,-6.01403 0,-3.43659 0.70168,0 0,3.43659 -0.70168,0 z m 0,-6.01404 0,-3.43659 0.70168,0 0,3.43659 -0.70168,0 z m 0,-6.01403 0,-3.43658 0.70168,0 0,3.43658 -0.70168,0 z m 0,-6.01403 0, -3.43659 0.70168,0 0,3.43659 -0.70168,0 z m 0,-6.01403 0,-3.43659 0.70168,0 0,3.43659 -0.70168,0 z m 0,-6.01403 0,-3.43659 0.70168,0 0,3.43659 -0.70168,0 z m 0,-6.01403 0,-3.43659 0.70168,0 0,3.43659 -0.70168,0 z m 0,-6.01403 0,-3.43659 0.70168,0 0,3.43659 -0.70168,0 z m 0,-6.01403 0,-3.43659 0.70168,0 0,3.43659 -0.70168,0 z m 0,-6.01403 0,-3.43659 0.70168,0 0,3.43659 -0.70168,0 z m 0,-6.01404 0,-3.43659 0.70168,0 0,3.43659 -0.70168,0 z m 0,-6.01403 0,-3.43659 0.70168,0 0,3.43659 -0.70168,0 z m 0,-6.01403 0,-3.43659 0.70168,0 0,3.43659 -0.70168,0 z m 0,-6.01403 0,-3.43659 0.70168,0 0,3.43659 -0.70168,0 z m 1.22793,-5.36967 2.80671,0 0,0.85915 -2.80671,0 0,-0.85915 z m 4.91174,0 2.8067,0 0,0.85915 -2.8067,0 0,-0.85915 z m 4.91173,0 2.8067,0 0,0.85915 -2.8067,0 0,-0.85915 z m 4.91173,0 2.80671,0 0,0.85915 -2.80671,0 0,-0.85915 z m 4.91174, 0 2.8067,0 0,0.85915 -2.8067,0 0,-0.85915 z m 4.91173,0 2.80671,0 0,0.85915 -2.80671,0 0,-0.85915 z m 4.91173,0 2.80671,0 0,0.85915 -2.80671,0 0,-0.85915 z m 4.91174,0 2.8067,0 0,0.85915 -2.8067,0 0,-0.85915 z m 4.91173,0 2.80671,0 0,0.85915 -2.80671,0 0,-0.85915 z m 4.91174,0 2.8067,0 0,0.85915 -2.8067,0 0,-0.85915 z m 4.91173,0 2.8067,0 0,0.85915 -2.8067,0 0,-0.85915 z m 4.91173,0 2.80671,0 0,0.85915 -2.80671,0 0,-0.85915 z m 4.91174,0 2.8067,0 0,0.85915 -2.8067,0 0,-0.85915 z m 4.91173,0 2.80671,0 0,0.85915 -2.80671,0 0,-0.85915 z m 4.91173,0 2.80671,0 0,0.85915 -2.80671,0 0,-0.85915 z m 4.91174,0 2.8067,0 0,0.85915 -2.8067,0 0,-0.85915 z m 4.91173,0 2.80671,0 0,0.85915 -2.80671,0 0,-0.85915 z m 4.91173,0 2.80671,0 0,0.85915 -2.80671,0 0,-0.85915 z m 4.91174,0 2.8067,0 0,0.85915 -2.8067,0 0,-0.85915 z m 4.91173,0 2.80671,0 0, 0.85915 -2.80671,0 0,-0.85915 z m 4.91174,0 2.8067,0 0,0.85915 -2.8067,0 0,-0.85915 z m 4.91173,0 2.8067,0 0,0.85915 -2.8067,0 0,-0.85915 z m 4.91173,0 2.80671,0 0,0.85915 -2.80671,0 0,-0.85915 z m 4.91174,0 2.8067,0 0,0.85915 -2.8067,0 0,-0.85915 z m 4.91173,0 2.80671,0 0,0.85915 -2.80671,0 0,-0.85915 z m 4.91173,0 2.80671,0 0,0.85915 -2.80671,0 0,-0.85915 z m 4.91174,0 2.8067,0 0,0.85915 -2.8067,0 0,-0.85915 z m 4.91173,0 2.80671,0 0,0.85915 -2.80671,0 0,-0.85915 z m 4.91174,0 2.8067,0 0,0.85915 -2.8067,0 0,-0.85915 z m 4.91173,0 2.8067,0 0,0.85915 -2.8067,0 0,-0.85915 z m 4.91173,0 2.80671,0 0,0.85915 -2.80671,0 0,-0.85915 z m 4.91174,0 2.8067,0 0,0.85915 -2.8067,0 0,-0.85915 z m 4.91173,0 2.80671,0 0,0.85915 -2.80671,0 0,-0.85915 z m 4.91173,0 2.80671,0 0,0.85915 -2.80671,0 0,-0.85915 z m 4.91174,0 2.8067,0 0,0.85915 -2.8067, 0 0,-0.85915 z m 4.91173,0 2.80671,0 0,0.85915 -2.80671,0 0,-0.85915 z m 4.91173,0 2.80671,0 0,0.85915 -2.80671,0 0,-0.85915 z m 4.91174,0 2.8067,0 0,0.85915 -2.8067,0 0,-0.85915 z m 4.91173,0 2.80671,0 0,0.85915 -2.80671,0 0,-0.85915 z m 4.91174,0 2.8067,0 0,0.85915 -2.8067,0 0,-0.85915 z m 5.08715,0.64436 0,3.43659 -0.70168,0 0,-3.43659 0.70168,0 z m 0,6.01403 0,3.43659 -0.70168,0 0,-3.43659 0.70168,0 z m 0,6.01403 0,3.43659 -0.70168,0 0,-3.43659 0.70168,0 z m 0,6.01403 0,3.43659 -0.70168,0 0,-3.43659 0.70168,0 z m 0,6.01403 0,3.43659 -0.70168,0 0,-3.43659 0.70168,0 z m 0,6.01404 0,3.43659 -0.70168,0 0,-3.43659 0.70168,0 z m 0,6.01403 0,3.43659 -0.70168,0 0,-3.43659 0.70168,0 z m 0,6.01403 0,3.43659 -0.70168,0 0,-3.43659 0.70168,0 z m 0,6.01403 0,3.43659 -0.70168,0 0,-3.43659 0.70168,0 z m 0,6.01403 0,3.43659 -0.70168,0 0, -3.43659 0.70168,0 z m 0,6.01403 0,3.43659 -0.70168,0 0,-3.43659 0.70168,0 z m 0,6.01403 0,3.43659 -0.70168,0 0,-3.43659 0.70168,0 z m 0,6.01403 0,3.43659 -0.70168,0 0,-3.43659 0.70168,0 z m 0,6.01404 0,3.43659 -0.70168,0 0,-3.43659 0.70168,0 z m 0,6.01403 0,3.43659 -0.70168,0 0,-3.43659 0.70168,0 z m 0,6.01403 0,3.43659 -0.70168,0 0,-3.43659 0.70168,0 z m 0,6.01403 0,3.43659 -0.70168,0 0,-3.43659 0.70168,0 z m 0,6.01403 0,3.43659 -0.70168,0 0,-3.43659 0.70168,0 z m 0,6.01403 0,3.43659 -0.70168,0 0,-3.43659 0.70168,0 z m 0,6.01403 0,3.43659 -0.70168,0 0,-3.43659 0.70168,0 z m 0,6.01403 0,3.43659 -0.70168,0 0,-3.43659 0.70168,0 z m 0,6.01404 0,3.43659 -0.70168,0 0,-3.43659 0.70168,0 z m 0,6.01403 0,3.43659 -0.70168,0 0,-3.43659 0.70168,0 z m 0,6.01402 0,3.43659 -0.70168,0 0,-3.43659 0.70168,0 z m 0,6.01404 0,3.43659 -0.70168, 0 0,-3.43659 0.70168,0 z m 0,6.01403 0,3.43659 -0.70168,0 0,-3.43659 0.70168,0 z m 0,6.01404 0,3.43659 -0.70168,0 0,-3.43659 0.70168,0 z m 0,6.01402 0,3.43659 -0.70168,0 0,-3.43659 0.70168,0 z m 0,6.01403 0,3.43659 -0.70168,0 0,-3.43659 0.70168,0 z m 0,6.01404 0,3.43659 -0.70168,0 0,-3.43659 0.70168,0 z m 0,6.01403 0,3.43658 -0.70168,0 0,-3.43658 0.70168,0 z m 0,6.01402 0,3.4366 -0.70168,0 0,-3.4366 0.70168,0 z m 0,6.01404 0,3.43659 -0.70168,0 0,-3.43659 0.70168,0 z m 0,6.01403 0,3.43658 -0.70168,0 0,-3.43658 0.70168,0 z m 0,6.01404 0,3.43658 -0.70168,0 0,-3.43658 0.70168,0 z m 0,6.01402 0,3.43659 -0.70168,0 0,-3.43659 0.70168,0 z m 0,6.01403 0,3.4366 -0.70168,0 0,-3.4366 0.70168,0 z m 0,6.01404 0,3.43659 -0.70168,0 0,-3.43659 0.70168,0 z m 0,6.01402 0,3.43659 -0.70168,0 0,-3.43659 0.70168,0 z m 0,6.01404 0,3.43659 -0.70168, 0 0,-3.43659 0.70168,0 z m -1.40335,5.15488 -2.80671,0 0,-0.85915 2.80671,0 0,0.85915 z m -4.91174,0 -2.8067,0 0,-0.85915 2.8067,0 0,0.85915 z m -4.91173,0 -2.80671,0 0,-0.85915 2.80671,0 0,0.85915 z m -4.91173,0 -2.80671,0 0,-0.85915 2.80671,0 0,0.85915 z m -4.91174,0 -2.8067,0 0,-0.85915 2.8067,0 0,0.85915 z m -4.91173,0 -2.80671,0 0,-0.85915 2.80671,0 0,0.85915 z m -4.91174,0 -2.8067,0 0,-0.85915 2.8067,0 0,0.85915 z m -4.91173,0 -2.8067,0 0,-0.85915 2.8067,0 0,0.85915 z m -4.91173,0 -2.80671,0 0,-0.85915 2.80671,0 0,0.85915 z m -4.91174,0 -2.8067,0 0,-0.85915 2.8067,0 0,0.85915 z m -4.91173,0 -2.80671,0 0,-0.85915 2.80671,0 0,0.85915 z m -4.91173,0 -2.80671,0 0,-0.85915 2.80671,0 0,0.85915 z m -4.91174,0 -2.8067,0 0,-0.85915 2.8067,0 0,0.85915 z m -4.91173,0 -2.80671,0 0,-0.85915 2.80671,0 0,0.85915 z m -4.91174,0 -2.8067, 0 0,-0.85915 2.8067,0 0,0.85915 z m -4.91173,0 -2.8067,0 0,-0.85915 2.8067,0 0,0.85915 z m -4.91173,0 -2.80671,0 0,-0.85915 2.80671,0 0,0.85915 z m -4.91174,0 -2.8067,0 0,-0.85915 2.8067,0 0,0.85915 z m -4.91173,0 -2.8067,0 0,-0.85915 2.8067,0 0,0.85915 z m -4.91173,0 -2.80671,0 0,-0.85915 2.80671,0 0,0.85915 z m -4.91174,0 -2.8067,0 0,-0.85915 2.8067,0 0,0.85915 z m -4.91173,0 -2.80671,0 0,-0.85915 2.80671,0 0,0.85915 z m -4.91173,0 -2.80671,0 0,-0.85915 2.80671,0 0,0.85915 z m -4.91174,0 -2.8067,0 0,-0.85915 2.8067,0 0,0.85915 z m -4.91173,0 -2.80671,0 0,-0.85915 2.80671,0 0,0.85915 z m -4.91174,0 -2.8067,0 0,-0.85915 2.8067,0 0,0.85915 z m -4.91173,0 -2.8067,0 0,-0.85915 2.8067,0 0,0.85915 z m -4.91173,0 -2.80671,0 0,-0.85915 2.80671,0 0,0.85915 z m -4.91174,0 -2.8067,0 0,-0.85915 2.8067,0 0,0.85915 z m -4.91173,0 -2.80671, 0 0,-0.85915 2.80671,0 0,0.85915 z m -4.91173,0 -2.80671,0 0,-0.85915 2.80671,0 0,0.85915 z m -4.91174,0 -2.8067,0 0,-0.85915 2.8067,0 0,0.85915 z m -4.91173,0 -2.80671,0 0,-0.85915 2.80671,0 0,0.85915 z m -4.91174,0 -2.8067,0 0,-0.85915 2.8067,0 0,0.85915 z m -4.91173,0 -2.8067,0 0,-0.85915 2.8067,0 0,0.85915 z m -4.91173,0 -2.80671,0 0,-0.85915 2.80671,0 0,0.85915 z m -4.91174,0 -2.8067,0 0,-0.85915 2.8067,0 0,0.85915 z m -4.91173,0 -2.8067,0 0,-0.85915 2.8067,0 0,0.85915 z m -4.91173,0 -2.80671,0 0,-0.85915 2.80671,0 0,0.85915 z m -4.91174,0 -2.8067,0 0,-0.85915 2.8067,0 0,0.85915 z" style="fill:#000;fill-opacity:1;fill-rule:nonzero;stroke:#000;stroke-width:.02426692;stroke-linecap:butt;stroke-linejoin:round;stroke-opacity:1;stroke-dasharray:.09706768,.02426692;stroke-miterlimit:4;stroke-dashoffset:0"/><path id="path3096" d="m 315.975,85.250513 3.2625,0 c 0.35625,0 0.6375,0.299914 0.6375,0.656061 l 0,16.738946 -3.9,0 z" clip-path="url(#clipEmfPath5)" transform="matrix(1.1694604,0,0,1.4323235,83.010165,320.85569)" style="fill:none;stroke:#000;stroke-width:1.20000005px;stroke-linecap:butt;stroke-linejoin:miter;stroke-miterlimit:4;stroke-opacity:1;stroke-dasharray:none"/><path id="path3098" d="m 457.09131,442.74722 3.81537,0 c 0.41662,0 0.74553,0.42957 0.74553,0.93969 l 0,24.19037 -4.5609,0 z" style="fill:none;stroke:#000;stroke-width:1.5530827px;stroke-linecap:butt;stroke-linejoin:miter;stroke-miterlimit:4;stroke-opacity:1;stroke-dasharray:none"/><path id="path3100" d="m 461.65221,442.962 3.66187,0 c 0.41662,0 0.7236,0.40273 0.7236,0.91285 l 0,24.00243 -4.38547,0 z" style="fill:none;stroke:#000;stroke-width:1.5530827px;stroke-linecap:butt;stroke-linejoin:miter;stroke-miterlimit:4;stroke-opacity:1;stroke-dasharray:none"/><path id="path3102" d="m 482.17624,438.66627 0,75.17539 60.69499,0 0,-75.17539 -60.69499,0 z" style="fill:#fff;fill-opacity:1;fill-rule:evenodd;stroke:none"/><path id="path3104" d="m 482.17624,438.66627 60.69499,0 0,75.17539 -60.69499,0 z" style="fill:none;stroke:#000;stroke-width:.77654135px;stroke-linecap:butt;stroke-linejoin:round;stroke-opacity:1;stroke-dasharray:none"/><path id="path3106" d="m 452.53041,486.34894 3.81537,0 c 0.41662,0 0.74553,0.42958 0.74553,0.93969 l 0,23.97559 -4.5609,0 z" style="fill:none;stroke:#000;stroke-width:1.5530827px;stroke-linecap:butt;stroke-linejoin:miter;stroke-miterlimit:4;stroke-opacity:1;stroke-dasharray:none"/><path id="path3108" d="m 457.09131,486.13415 3.81537,0 c 0.41662,0 0.74553,0.42958 0.74553,0.9397 l 0,24.19037 -4.5609,0 z" style="fill:none;stroke:#000;stroke-width:1.5530827px;stroke-linecap:butt;stroke-linejoin:miter;stroke-miterlimit:4;stroke-opacity:1;stroke-dasharray:none"/><path id="path3110" d="m 461.65221,486.34894 3.66187,0 c 0.41662,0 0.7236,0.40273 0.7236,0.91285 l 0,24.00243 -4.38547,0 z" style="fill:none;stroke:#000;stroke-width:1.5530827px;stroke-linecap:butt;stroke-linejoin:miter;stroke-miterlimit:4;stroke-opacity:1;stroke-dasharray:none"/><path id="path3112" d="m 567.78074,515.77474 3.66187,0 c 0.41662,0 0.7236,0.40272 0.7236,0.91285 l 0,24.21721 -4.38547,0 z" style="fill:none;stroke:#000;stroke-width:1.5530827px;stroke-linecap:butt;stroke-linejoin:miter;stroke-miterlimit:4;stroke-opacity:1;stroke-dasharray:none"/><path id="path3114" d="m 572.16621,515.77474 3.81537,0 c 0.41662,0 0.74553,0.42957 0.74553,0.93969 l 0,23.97557 -4.5609,0 z" style="fill:none;stroke:#000;stroke-width:1.5530827px;stroke-linecap:butt;stroke-linejoin:miter;stroke-miterlimit:4;stroke-opacity:1;stroke-dasharray:none"/><path id="path3116" d="m 576.72711,515.77474 3.81536,0 c 0.41662,0 0.74553,0.42957 0.74553,0.93969 l 0,24.19037 -4.56089,0 z" style="fill:none;stroke:#000;stroke-width:1.5530827px;stroke-linecap:butt;stroke-linejoin:miter;stroke-miterlimit:4;stroke-opacity:1;stroke-dasharray:none"/><path id="path3118" d="m 600.5841,381.1034 0,75.17539 60.51958,0 0,-75.17539 -60.51958,0 z" style="fill:#fff;fill-opacity:1;fill-rule:evenodd;stroke:none"/><path id="path3120" d="m 600.5841,381.1034 60.51958,0 0,75.17539 -60.51958,0 z" style="fill:none;stroke:#000;stroke-width:.77654135px;stroke-linecap:butt;stroke-linejoin:round;stroke-opacity:1;stroke-dasharray:none"/><path id="path3122" d="m 601.28578,491.28904 0,75.1754 60.69499,0 0,-75.1754 -60.69499,0 z" style="fill:#fff;fill-opacity:1;fill-rule:evenodd;stroke:none"/><path id="path3124" d="m 601.28578,491.28904 60.69499,0 0,75.1754 -60.69499,0 z" style="fill:none;stroke:#000;stroke-width:.77654135px;stroke-linecap:butt;stroke-linejoin:round;stroke-opacity:1;stroke-dasharray:none"/><path id="path3126" d="m 567.78074,407.52218 3.66187,0 c 0.41662,0 0.7236,0.40272 0.7236,0.91284 l 0,24.00243 -4.38547,0 z" style="fill:none;stroke:#000;stroke-width:1.5530827px;stroke-linecap:butt;stroke-linejoin:miter;stroke-miterlimit:4;stroke-opacity:1;stroke-dasharray:none"/><path id="path3128" d="m 572.16621,407.52218 3.81537,0 c 0.41662,0 0.74553,0.42957 0.74553,0.93969 l 0,23.97558 -4.5609,0 z" style="fill:none;stroke:#000;stroke-width:1.5530827px;stroke-linecap:butt;stroke-linejoin:miter;stroke-miterlimit:4;stroke-opacity:1;stroke-dasharray:none"/><path id="path3130" d="m 576.72711,407.52218 3.81536,0 c 0.41662,0 0.74553,0.42957 0.74553,0.93969 l 0,23.97558 -4.56089,0 z" style="fill:none;stroke:#000;stroke-width:1.5530827px;stroke-linecap:butt;stroke-linejoin:miter;stroke-miterlimit:4;stroke-opacity:1;stroke-dasharray:none"/><path id="path3132" d="m 466.08154,454.53364 9.51648,0.59067 -0.0657,1.77199 -9.51649,-0.56382 0.0657,-1.79884 z m 9.49455,1.47666 -2.71899,-5.53076 8.55168,5.87979 -8.99023,4.83271 3.15754,-5.18174 z" style="fill:#000;fill-opacity:1;fill-rule:nonzero;stroke:#000;stroke-width:.02426692;stroke-linecap:butt;stroke-linejoin:miter;stroke-opacity:1;stroke-dasharray:.02426692,.02426692;stroke-miterlimit:4;stroke-dashoffset:0;marker-mid:none"/><path id="path3134" d="m 466.95863,498.56494 9.51649,0.56382 -0.0657,1.79884 -9.51648,-0.56382 0.0657,-1.79884 z m 9.47263,1.47667 -2.69707,-5.55762 8.55168,5.90665 -8.9683,4.8327 3.11369,-5.18173 z" style="fill:#000;fill-opacity:1;fill-rule:nonzero;stroke:#000;stroke-width:.02426692;stroke-linecap:butt;stroke-linejoin:miter;stroke-opacity:1;stroke-dasharray:.02426692,.02426692;stroke-miterlimit:4;stroke-dashoffset:0;marker-mid:none"/><path id="path3136" d="m 542.87123,449.00288 12.25741,0 0,-28.37871 -0.72361,0.91285 5.65727,0 0,-1.79884 -6.4028,0 0,28.37871 0.74553,-0.886 -11.5338,0 0,1.77199 z m 17.19107,-28.37871 -2.91634,5.36967 8.77095,-5.36967 -8.77095,-5.36967 2.91634,5.36967 z" style="fill:#000;fill-opacity:1;fill-rule:nonzero;stroke:#000;stroke-width:.02426692;stroke-linecap:butt;stroke-linejoin:miter;stroke-opacity:1;stroke-dasharray:.02426692,.02426692;stroke-miterlimit:4;stroke-dashoffset:0;marker-mid:none"/><path id="path3138" d="m 543.74833,503.07547 11.88464,0 0,23.81448 -0.74553,-0.88599 5.2845,0 0,1.77199 -6.00811,0 0,-23.81449 0.72361,0.91285 -11.13911,0 0,-1.79884 z m 16.42361,23.81448 -2.91635,-5.36966 8.77096,5.36966 -8.77096,5.36967 2.91635,-5.36967 z" style="fill:#000;fill-opacity:1;fill-rule:nonzero;stroke:#000;stroke-width:.02426692;stroke-linecap:butt;stroke-linejoin:miter;stroke-opacity:1;stroke-dasharray:.02426692,.02426692;stroke-miterlimit:4;stroke-dashoffset:0;marker-mid:none"/><path id="path3140" d="m 434.68153,454.53364 9.51648,0.59067 -0.0658,1.77199 -9.51649,-0.56382 0.0657,-1.79884 z m 9.49455,1.47666 -2.71899,-5.53076 8.55168,5.87979 -8.99023,4.83271 3.15754,-5.18174 z" style="fill:#000;fill-opacity:1;fill-rule:nonzero;stroke:#000;stroke-width:.02426692;stroke-linecap:butt;stroke-linejoin:miter;stroke-opacity:1;stroke-dasharray:.02426692,.02426692;stroke-miterlimit:4;stroke-dashoffset:0;marker-mid:none"/><path id="path3142" d="m 435.3832,497.70579 9.51649,0.59068 -0.0657,1.77198 -9.51648,-0.56382 0.0657,-1.79884 z m 9.49456,1.47667 -2.719,-5.53076 8.55168,5.87979 -8.99022,4.8327 3.15754,-5.18173 z" style="fill:#000;fill-opacity:1;fill-rule:nonzero;stroke:#000;stroke-width:.02426692;stroke-linecap:butt;stroke-linejoin:miter;stroke-opacity:1;stroke-dasharray:.02426692,.02426692;stroke-miterlimit:4;stroke-dashoffset:0;marker-mid:none"/><path id="path3144" d="m 582.01161,417.8051 12.56439,0.0268 0,1.79884 -12.58632,-0.0269 0.022,-1.79884 z m 12.56439,0.93969 -2.91634,-5.39652 8.77095,5.39652 -8.77095,5.34282 2.91634,-5.34282 z" style="fill:#000;fill-opacity:1;fill-rule:nonzero;stroke:#000;stroke-width:.02426692;stroke-linecap:butt;stroke-linejoin:miter;stroke-opacity:1;stroke-dasharray:.02426692,.02426692;stroke-miterlimit:4;stroke-dashoffset:0;marker-mid:none"/><path id="path3146" d="m 581.30993,527.34638 14.12124,0.37587 -0.022,1.772 -14.12123,-0.34903 0.022,-1.79884 z m 14.09931,1.26188 -2.82863,-5.45022 8.68324,5.58445 -8.85866,5.15489 3.00405,-5.28912 z" style="fill:#000;fill-opacity:1;fill-rule:nonzero;stroke:#000;stroke-width:.02426692;stroke-linecap:butt;stroke-linejoin:miter;stroke-opacity:1;stroke-dasharray:.02426692,.02426692;stroke-miterlimit:4;stroke-dashoffset:0;marker-mid:none"/><path id="path3148" d="m 662.0027,416.0868 12.56439,0.0269 0,1.79884 -12.58632,-0.0269 0.022,-1.79884 z m 12.56439,0.93969 -2.91634,-5.39652 8.77095,5.39652 -8.77095,5.34282 2.91634,-5.34282 z" style="fill:#000;fill-opacity:1;fill-rule:nonzero;stroke:#000;stroke-width:.02426692;stroke-linecap:butt;stroke-linejoin:miter;stroke-opacity:1;stroke-dasharray:.02426692,.02426692;stroke-miterlimit:4;stroke-dashoffset:0;marker-mid:none"/><path id="path3150" d="m 662.70438,527.77595 12.56439,0.0268 0,1.79884 -12.58632,-0.0268 0.022,-1.79884 z m 12.56439,0.9397 -2.91635,-5.39652 8.77096,5.39652 -8.77096,5.34281 2.91635,-5.34281 z" style="fill:#000;fill-opacity:1;fill-rule:nonzero;stroke:#000;stroke-width:.02426692;stroke-linecap:butt;stroke-linejoin:miter;stroke-opacity:1;stroke-dasharray:.02426692,.02426692;stroke-miterlimit:4;stroke-dashoffset:0;marker-mid:none"/><path id="path3152" d="m 681.10145,404.72995 3.81536,0 c 0.41662,0 0.74554,0.42957 0.74554,0.93969 l 0,24.19037 -4.5609,0 z" style="fill:none;stroke:#000;stroke-width:1.5530827px;stroke-linecap:butt;stroke-linejoin:miter;stroke-miterlimit:4;stroke-opacity:1;stroke-dasharray:none"/><path id="path3154" d="m 685.66235,404.72995 3.81536,0 c 0.41662,0 0.74553,0.42957 0.74553,0.93969 l 0,23.97558 -4.56089,0 z" style="fill:none;stroke:#000;stroke-width:1.5530827px;stroke-linecap:butt;stroke-linejoin:miter;stroke-miterlimit:4;stroke-opacity:1;stroke-dasharray:none"/><path id="path3156" d="m 690.22324,404.72995 3.81537,0 c 0.41662,0 0.74553,0.42957 0.74553,0.93969 l 0,24.19037 -4.5609,0 z" style="fill:none;stroke:#000;stroke-width:1.5530827px;stroke-linecap:butt;stroke-linejoin:miter;stroke-miterlimit:4;stroke-opacity:1;stroke-dasharray:none"/><path id="path3158" d="m 682.5048,515.77474 3.66188,0 c 0.41662,0 0.7236,0.40272 0.7236,0.91285 l 0,24.21721 -4.38548,0 z" style="fill:none;stroke:#000;stroke-width:1.5530827px;stroke-linecap:butt;stroke-linejoin:miter;stroke-miterlimit:4;stroke-opacity:1;stroke-dasharray:none"/><path id="path3160" d="m 686.89028,515.77474 3.81536,0 c 0.41662,0 0.74553,0.42957 0.74553,0.93969 l 0,24.19037 -4.56089,0 z" style="fill:none;stroke:#000;stroke-width:1.5530827px;stroke-linecap:butt;stroke-linejoin:miter;stroke-miterlimit:4;stroke-opacity:1;stroke-dasharray:none"/><path id="path3162" d="m 691.45117,515.77474 3.81537,0 c 0.41662,0 0.74553,0.42957 0.74553,0.93969 l 0,24.19037 -4.5609,0 z" style="fill:none;stroke:#000;stroke-width:1.5530827px;stroke-linecap:butt;stroke-linejoin:miter;stroke-miterlimit:4;stroke-opacity:1;stroke-dasharray:none"/><path id="path3164" d="m 695.68316,416.0868 12.56439,0.0269 0,1.79884 -12.58632,-0.0269 0.0219,-1.79884 z m 12.56439,0.93969 -2.91634,-5.39652 8.77095,5.39652 -8.77095,5.34282 2.91634,-5.34282 z" style="fill:#000;fill-opacity:1;fill-rule:nonzero;stroke:#000;stroke-width:.02426692px;stroke-linecap:butt;stroke-linejoin:round;stroke-opacity:1;stroke-dasharray:none"/><path id="path3166" d="m 696.034,527.99074 12.56439,0.0269 0,1.79882 -12.58632,-0.0268 0.022,-1.79884 z m 12.56439,0.93969 -2.91634,-5.39652 8.77095,5.39652 -8.77095,5.34282 2.91634,-5.34282 z" style="fill:#000;fill-opacity:1;fill-rule:nonzero;stroke:#000;stroke-width:.02426692px;stroke-linecap:butt;stroke-linejoin:round;stroke-opacity:1;stroke-dasharray:none"/><path id="path3168" d="m 374.1181,472.44149 42.53912,0 0,-3.49028 5.70112,6.98057 -5.70112,6.98057 0,-3.49028 -42.53912,0 z" style="fill:#fff;fill-opacity:1;fill-rule:evenodd;stroke:none"/><path id="path3170" d="m 374.1181,472.44149 42.53912,0 0,-3.49028 5.70112,6.98057 -5.70112,6.98057 0,-3.49028 -42.53912,0 z" style="fill:none;stroke:#000;stroke-width:1.5530827px;stroke-linecap:butt;stroke-linejoin:miter;stroke-miterlimit:4;stroke-opacity:1;stroke-dasharray:none"/></g><g id="layer2" transform="translate(-82.82706,-337.43917)"><rect id="rect4431" width="61.071" height="75.714" x="247.143" y="377.005" style="fill:none;stroke:#000;stroke-width:0;stroke-miterlimit:4;stroke-opacity:1;stroke-dasharray:0,0;stroke-dashoffset:0;stroke-linejoin:miter"/><text id="text4458-5-6" x="129.471" y="417.49" xml:space="preserve" style="font-size:11px;font-style:normal;font-variant:normal;font-weight:400;font-stretch:normal;text-align:start;line-height:125%;letter-spacing:0;word-spacing:0;writing-mode:lr-tb;text-anchor:start;fill:#000;fill-opacity:1;stroke:none;font-family:Sans;-inkscape-font-specification:Sans"><tspan style="font-size:11px;font-style:normal;font-variant:normal;font-weight:400;font-stretch:normal;text-align:start;line-height:125%;writing-mode:lr-tb;text-anchor:start;font-family:Sans;-inkscape-font-specification:Sans" id="tspan4460-7-1" x="129.471" y="417.49">CPU Core 1</tspan></text><text id="text4458-5-6-8-7" x="248.861" y="358.536" xml:space="preserve" style="font-size:11px;font-style:normal;font-variant:normal;font-weight:400;font-stretch:normal;text-align:start;line-height:125%;letter-spacing:0;word-spacing:0;writing-mode:lr-tb;text-anchor:start;fill:#000;fill-opacity:1;stroke:none;font-family:Sans;-inkscape-font-specification:Sans"><tspan style="font-size:11px;font-style:normal;font-variant:normal;font-weight:400;font-stretch:normal;text-align:start;line-height:125%;writing-mode:lr-tb;text-anchor:start;font-family:Sans;-inkscape-font-specification:Sans" id="tspan4460-7-1-9-9" x="248.861" y="358.536">CPU Core 2</tspan></text><text id="text4458-5-6-8-4" x="249.618" y="589.609" xml:space="preserve" style="font-size:11px;font-style:normal;font-variant:normal;font-weight:400;font-stretch:normal;text-align:start;line-height:125%;letter-spacing:0;word-spacing:0;writing-mode:lr-tb;text-anchor:start;fill:#000;fill-opacity:1;stroke:none;font-family:Sans;-inkscape-font-specification:Sans"><tspan id="tspan4668-2-1" x="249.618" y="589.609" style="font-size:11px;font-style:normal;font-variant:normal;font-weight:400;font-stretch:normal;text-align:start;line-height:125%;writing-mode:lr-tb;text-anchor:start;font-family:Sans;-inkscape-font-specification:Sans">CPU Core 3</tspan></text><text id="text4458-5-6-4" x="154.661" y="476.985" xml:space="preserve" style="font-size:11px;font-style:normal;font-variant:normal;font-weight:400;font-stretch:normal;text-align:start;line-height:125%;letter-spacing:0;word-spacing:0;writing-mode:lr-tb;text-anchor:start;fill:#000;fill-opacity:1;stroke:none;font-family:Sans;-inkscape-font-specification:Sans"><tspan id="tspan4668-1" x="154.661" y="476.985" style="font-size:11px;font-style:normal;font-variant:normal;font-weight:400;font-stretch:normal;text-align:start;line-height:125%;writing-mode:lr-tb;text-anchor:start;font-family:Sans;-inkscape-font-specification:Sans">P1</tspan></text><text id="text4458-5-6-4-3" x="272.262" y="419.422" xml:space="preserve" style="font-size:11px;font-style:normal;font-variant:normal;font-weight:400;font-stretch:normal;text-align:start;line-height:125%;letter-spacing:0;word-spacing:0;writing-mode:lr-tb;text-anchor:start;fill:#000;fill-opacity:1;stroke:none;font-family:Sans;-inkscape-font-specification:Sans"><tspan id="tspan4668-1-8" x="272.262" y="419.422" style="font-size:11px;font-style:normal;font-variant:normal;font-weight:400;font-stretch:normal;text-align:start;line-height:125%;writing-mode:lr-tb;text-anchor:start;font-family:Sans;-inkscape-font-specification:Sans">P2</tspan></text><text id="text4458-5-6-4-7" x="273.771" y="529.608" xml:space="preserve" style="font-size:11px;font-style:normal;font-variant:normal;font-weight:400;font-stretch:normal;text-align:start;line-height:125%;letter-spacing:0;word-spacing:0;writing-mode:lr-tb;text-anchor:start;fill:#000;fill-opacity:1;stroke:none;font-family:Sans;-inkscape-font-specification:Sans"><tspan id="tspan4668-1-4" x="273.771" y="529.608" style="font-size:11px;font-style:normal;font-variant:normal;font-weight:400;font-stretch:normal;text-align:start;line-height:125%;writing-mode:lr-tb;text-anchor:start;font-family:Sans;-inkscape-font-specification:Sans">P3</tspan></text><text id="text4458-5-6-3" x="547.641" y="361.297" xml:space="preserve" style="font-size:11px;font-style:normal;font-variant:normal;font-weight:400;font-stretch:normal;text-align:start;line-height:125%;letter-spacing:0;word-spacing:0;writing-mode:lr-tb;text-anchor:start;fill:#000;fill-opacity:1;stroke:none;font-family:Sans;-inkscape-font-specification:Sans"><tspan style="font-size:11px;font-style:normal;font-variant:normal;font-weight:400;font-stretch:normal;text-align:start;line-height:125%;writing-mode:lr-tb;text-anchor:start;font-family:Sans;-inkscape-font-specification:Sans" id="tspan4460-7-1-1" x="547.641" y="361.297">CPU Core 1</tspan></text><text id="text4458-5-6-4-8" x="506.377" y="480.207" xml:space="preserve" style="font-size:11px;font-style:normal;font-variant:normal;font-weight:400;font-stretch:normal;text-align:start;line-height:125%;letter-spacing:0;word-spacing:0;writing-mode:lr-tb;text-anchor:start;fill:#000;fill-opacity:1;stroke:none;font-family:Sans;-inkscape-font-specification:Sans"><tspan id="tspan4668-1-6" x="506.377" y="480.207" style="font-size:11px;font-style:normal;font-variant:normal;font-weight:400;font-stretch:normal;text-align:start;line-height:125%;writing-mode:lr-tb;text-anchor:start;font-family:Sans;-inkscape-font-specification:Sans">P1</tspan></text><text id="text4458-5-6-4-3-0" x="623.977" y="422.644" xml:space="preserve" style="font-size:11px;font-style:normal;font-variant:normal;font-weight:400;font-stretch:normal;text-align:start;line-height:125%;letter-spacing:0;word-spacing:0;writing-mode:lr-tb;text-anchor:start;fill:#000;fill-opacity:1;stroke:none;font-family:Sans;-inkscape-font-specification:Sans"><tspan id="tspan4668-1-8-2" x="623.977" y="422.644" style="font-size:11px;font-style:normal;font-variant:normal;font-weight:400;font-stretch:normal;text-align:start;line-height:125%;writing-mode:lr-tb;text-anchor:start;font-family:Sans;-inkscape-font-specification:Sans">P2</tspan></text><text id="text4458-5-6-4-7-4" x="624.726" y="532.76" xml:space="preserve" style="font-size:11px;font-style:normal;font-variant:normal;font-weight:400;font-stretch:normal;text-align:start;line-height:125%;letter-spacing:0;word-spacing:0;writing-mode:lr-tb;text-anchor:start;fill:#000;fill-opacity:1;stroke:none;font-family:Sans;-inkscape-font-specification:Sans"><tspan id="tspan4668-1-4-8" x="624.726" y="532.76" style="font-size:11px;font-style:normal;font-variant:normal;font-weight:400;font-stretch:normal;text-align:start;line-height:125%;writing-mode:lr-tb;text-anchor:start;font-family:Sans;-inkscape-font-specification:Sans">P3</tspan></text></g></svg>