<svg xmlns="http://www.w3.org/2000/svg" xmlns:svg="http://www.w3.org/2000/svg" xmlns:xlink="http://www.w3.org/1999/xlink" id="svg5187" width="912.448" height="664.979" version="1.1"><metadata id="metadata5497"/><g id="Layer1000" transform="matrix(1.3033705,0,0,1.3931773,-22.056332,168.16686)"><g id="Layer1001" transform="matrix(1.237886,0,0,1.2010974,-4.0390827,-71.427441)"><defs id="defs5191"><filter id="shadow1" color-interpolation-filters="sRGB" filterUnits="userSpaceOnUse"><feOffset id="feOffset5194" dx="1.44" dy="1.44" in="SourceGraphic" result="offset"/><feColorMatrix id="feColorMatrix5196" in="offset" result="offset-color" type="matrix" values="0 0 0 0 0.2745 0 0 0 0 0.2745 0 0 0 0 0.2745 0 0 0 0.4980 0"/><feMerge id="feMerge5198"><feMergeNode id="feMergeNode5200" in="offset-color"/><feMergeNode id="feMergeNode5202" in="SourceGraphic"/></feMerge></filter></defs><defs id="defs5204"><linearGradient id="grad1"><stop id="stop5207" offset="0%" stop-color="#fff" stop-opacity="1"/><stop id="stop5209" offset="100%" stop-color="#fff" stop-opacity="1"/></linearGradient><linearGradient id="grad2" x1="164.378" x2="164.378" y1="54.036" y2="290.975" gradientTransform="scale(0.85432014,1.1705214)" gradientUnits="userSpaceOnUse" xlink:href="#grad1"/></defs><path id="path5212" d="m 157.2997,317.4803 168.6846,0 0,-231.1182 -168.6846,0 0,231.1182 z" style="fill:url(#grad2);fill-rule:evenodd;stroke-width:.25;stroke-linecap:round;stroke-linejoin:round;filter:url(#shadow1)"/><defs id="defs5214"><filter id="shadow2" color-interpolation-filters="sRGB" filterUnits="userSpaceOnUse"><feOffset id="feOffset5217" dx="1.44" dy="1.44" in="SourceGraphic" result="offset"/><feColorMatrix id="feColorMatrix5219" in="offset" result="offset-color" type="matrix" values="0 0 0 0 0.2745 0 0 0 0 0.2745 0 0 0 0 0.2745 0 0 0 0.4980 0"/><feMerge id="feMerge5221"><feMergeNode id="feMergeNode5223" in="offset-color"/><feMergeNode id="feMergeNode5225" in="SourceGraphic"/></feMerge></filter></defs><path id="path5227" d="m 157.2997,317.4803 168.6846,0 0,-231.1182 -168.6846,0 0,231.1182 z" style="fill:none;stroke:#1f497d;stroke-width:.25;stroke-linecap:round;stroke-linejoin:round;stroke-dasharray:none;filter:url(#shadow2)"/></g><text style="font-size:14.63223553px" id="text5229" x="192.703" y="32.793" transform="scale(1.0151991,0.98502847)"><tspan style="font-size:9.75482368px;fill:#000;fill-opacity:1;stroke-opacity:1;font-family:Arial" id="tspan5231" font-size="8">Loop: for each epoll event</tspan></text></g><g id="Layer1002" transform="matrix(1.6134241,0,0,1.6733416,-27.320753,68.655772)"><path id="path5234" d="m 52.7934,331.6535 0,-272.4094" style="fill:none;stroke:#1f497d;stroke-width:.47999999;stroke-linecap:round;stroke-linejoin:round;stroke-dasharray:2.88,1.44,2.88,1.44"/></g><g id="Layer1003" transform="matrix(1.6134241,0,0,1.6733416,-27.320753,68.655772)"><g id="Layer1004"><path id="path5242" d="m 17.2272,59.2441 71.1324,0 0,-25.2284 -71.1324,0 0,25.2284 z" style="fill:#9ab3d1;fill-rule:evenodd;stroke-width:.47999999;stroke-linecap:round;stroke-linejoin:round"/><path id="path5244" d="m 17.2272,59.2441 71.1324,0 0,-25.2284 -71.1324,0 0,25.2284 z" style="fill:none;stroke:#1f497d;stroke-width:.47999999;stroke-linecap:round;stroke-linejoin:round;stroke-dasharray:none"/></g><text id="text5246" x="21.227" y="46.63"><tspan style="font-size:8px;fill:#000;fill-opacity:1;stroke-opacity:1;font-family:Arial" id="tspan5248" font-size="8">librte_power(VM)</tspan></text></g><text style="font-size:19.71731567px" id="text5250" x="334.867" y="44" transform="scale(0.98193323,1.0183992)"><tspan style="font-size:59.15194702px;font-weight:700;fill:#cdcdcd;fill-opacity:1;stroke-opacity:1;font-family:Calibri" id="tspan5252" font-size="36" font-weight="bold">Sequence</tspan></text><g id="Layer1005" transform="matrix(1.6134241,0,0,1.6733416,-27.320753,68.655772)"><path id="path5255" d="m 129.4472,331.6535 0,-272.4094" style="fill:none;stroke:#1f497d;stroke-width:.47999999;stroke-linecap:round;stroke-linejoin:round;stroke-dasharray:2.88,1.44,2.88,1.44"/></g><g id="Layer1006" transform="matrix(1.6134241,0,0,1.6733416,-27.320753,68.655772)"><g id="Layer1007"><path id="path5263" d="m 89.6487,59.2441 79.5971,0 0,-25.2284 -79.5971,0 0,25.2284 z" style="fill:#9ab3d1;fill-rule:evenodd;stroke-width:.47999999;stroke-linecap:round;stroke-linejoin:round"/><path id="path5265" d="m 89.6487,59.2441 79.5971,0 0,-25.2284 -79.5971,0 0,25.2284 z" style="fill:none;stroke:#1f497d;stroke-width:.47999999;stroke-linecap:round;stroke-linejoin:round;stroke-dasharray:none"/></g><text id="text5267" x="93.649" y="46.63"><tspan style="font-size:8px;fill:#000;fill-opacity:1;stroke-opacity:1;font-family:Arial" id="tspan5269" font-size="8">guest_channel(VM)</tspan></text></g><g id="Layer1008" transform="matrix(1.6134241,0,0,1.6733416,-27.320753,68.655772)"><path id="path5272" d="m 240.9449,354.9562 0,-293.7369" style="fill:none;stroke:#1f497d;stroke-width:.47999999;stroke-linecap:round;stroke-linejoin:round;stroke-dasharray:2.88,1.44,2.88,1.44"/></g><g id="Layer1009" transform="matrix(1.6134241,0,0,1.6733416,-27.320753,68.655772)"><g id="Layer1010"><path id="path5280" d="m 195.3689,61.2193 91.152,0 0,-27.2036 -91.152,0 0,27.2036 z" style="fill:#9ab3d1;fill-rule:evenodd;stroke-width:.47999999;stroke-linecap:round;stroke-linejoin:round"/><path id="path5282" d="m 195.3689,61.2193 91.152,0 0,-27.2036 -91.152,0 0,27.2036 z" style="fill:none;stroke:#1f497d;stroke-width:.47999999;stroke-linecap:round;stroke-linejoin:round;stroke-dasharray:none"/></g><text id="text5284" x="199.369" y="47.617"><tspan style="font-size:8px;fill:#000;fill-opacity:1;stroke-opacity:1;font-family:Arial" id="tspan5286" font-size="8">channel_monitor(Host)</tspan></text></g><g id="Layer1011" transform="matrix(1.6134241,0,0,1.6733416,-27.320753,68.655772)"><path id="path5291" d="m 361.5266,352.9811 0,-293.737" style="fill:none;stroke:#1f497d;stroke-width:.47999999;stroke-linecap:round;stroke-linejoin:round;stroke-dasharray:2.88,1.44,2.88,1.44"/></g><g id="Layer1012" transform="matrix(1.6134241,0,0,1.6733416,-27.320753,68.655772)"><g id="Layer1013"><path id="path5299" d="m 313.5013,59.2441 96.0505,0 0,-27.2035 -96.0505,0 0,27.2035 z" style="fill:#9ab3d1;fill-rule:evenodd;stroke-width:.47999999;stroke-linecap:round;stroke-linejoin:round"/><path id="path5301" d="m 313.5013,59.2441 96.0505,0 0,-27.2035 -96.0505,0 0,27.2035 z" style="fill:none;stroke:#1f497d;stroke-width:.47999999;stroke-linecap:round;stroke-linejoin:round;stroke-dasharray:none"/></g><text id="text5303" x="317.501" y="45.642"><tspan style="font-size:8px;fill:#000;fill-opacity:1;stroke-opacity:1;font-family:Arial" id="tspan5305" font-size="8">channel_manager(Host)</tspan></text></g><g id="Layer1014" transform="matrix(1.6134241,0,0,1.6733416,-27.320753,68.655772)"><path id="path5310" d="m 458.3741,331.6535 0,-272.4094" style="fill:none;stroke:#1f497d;stroke-width:.47999999;stroke-linecap:round;stroke-linejoin:round;stroke-dasharray:2.88,1.44,2.88,1.44"/></g><g id="Layer1015" transform="matrix(1.6134241,0,0,1.6733416,-27.320753,68.655772)"><g id="Layer1016"><path id="path5318" d="m 413.466,59.2441 89.8163,0 0,-25.2284 -89.8163,0 0,25.2284 z" style="fill:#9ab3d1;fill-rule:evenodd;stroke-width:.47999999;stroke-linecap:round;stroke-linejoin:round"/><path id="path5320" d="m 413.466,59.2441 89.8163,0 0,-25.2284 -89.8163,0 0,25.2284 z" style="fill:none;stroke:#1f497d;stroke-width:.47999999;stroke-linecap:round;stroke-linejoin:round;stroke-dasharray:none"/></g><text id="text5322" x="417.466" y="46.63"><tspan style="font-size:8px;fill:#000;fill-opacity:1;stroke-opacity:1;font-family:Arial" id="tspan5324" font-size="8">power_manager(Host)</tspan></text></g><g id="Layer1017" transform="matrix(1.6134241,0,0,1.6733416,-27.320753,68.655772)"><path id="path5327" d="m 249.6969,310.3937 0,-209.7638 -9,0 0,209.7638 9,0 z" style="fill:#9ab3d1;fill-rule:evenodd;stroke-width:.47999999;stroke-linecap:round;stroke-linejoin:round"/><path id="path5329" d="m 249.6969,310.3937 0,-209.7638 -9,0 0,209.7638 9,0 z" style="fill:none;stroke:#000;stroke-width:.47999999;stroke-linecap:round;stroke-linejoin:round;stroke-dasharray:none"/></g><g id="Layer1018" transform="matrix(1.6134241,0,0,1.6733416,-27.320753,68.655772)"><defs id="defs5332"><marker id="endMarker1" markerHeight="6" markerUnits="strokeWidth" markerWidth="8" orient="auto" refX="1" refY="5" viewBox="0 0 10 10"><polyline id="polyline5335" fill="solid" points="0 0 10 5 0 10 1 5"/></marker></defs><path id="path5337" d="m 249.6969,154.6299 a 23.4,468 90 0 1 0,18" style="fill:none;stroke:#1f497d;stroke-width:.47999999;stroke-linecap:round;stroke-linejoin:round;stroke-dasharray:none;marker-end:url(#endMarker1)"/><text id="text5339" x="289.697" y="163.63"><tspan style="font-size:8px;fill:#000;fill-opacity:1;stroke-opacity:1;font-family:Arial" id="tspan5341" font-size="8">process_request</tspan></text></g><g id="Layer1019" transform="matrix(1.6134241,0,0,1.6733416,-27.320753,68.655772)"><defs id="defs5344"><marker id="endMarker2" markerHeight="6" markerUnits="strokeWidth" markerWidth="8" orient="auto" refX="1" refY="5" viewBox="0 0 10 10"><polyline id="polyline5347" fill="solid" points="0 0 10 5 0 10 1 5"/></marker></defs><path id="path5349" d="m 249.6969,190.6299 108.6323,-0.7086" style="fill:none;stroke:#1f497d;stroke-width:.47999999;stroke-linecap:round;stroke-linejoin:round;stroke-dasharray:none;marker-end:url(#endMarker2)"/><text id="text5351" x="271.984" y="179.674"><tspan style="font-size:8px;fill:#000;fill-opacity:1;stroke-opacity:1;font-family:Arial" id="tspan5353" font-size="8">get_pcpu_mask()</tspan></text></g><g id="Layer1020" transform="matrix(1.6134241,0,0,1.6733416,-27.320753,68.655772)"><path id="path5356" d="m 367.3292,225.9213 0,-36 -9,0 0,36 9,0 z" style="fill:#9ab3d1;fill-rule:evenodd;stroke-width:.47999999;stroke-linecap:round;stroke-linejoin:round"/><path id="path5358" d="m 367.3292,225.9213 0,-36 -9,0 0,36 9,0 z" style="fill:none;stroke:#000;stroke-width:.47999999;stroke-linecap:round;stroke-linejoin:round;stroke-dasharray:none"/></g><g id="Layer1021" transform="matrix(1.6134241,0,0,1.6733416,-27.320753,68.655772)"><defs id="defs5361"><marker id="startMarker1" markerHeight="6" markerUnits="strokeWidth" markerWidth="8" orient="auto" refX="9" refY="5" viewBox="0 0 10 10"><polyline id="polyline5364" fill="solid" points="10 0 0 5 10 10 9 5"/></marker></defs><path id="path5366" d="m 249.6969,226.6299 108.6323,-0.7086" style="fill:none;stroke:#1f497d;stroke-width:.47999999;stroke-linecap:round;stroke-linejoin:round;stroke-dasharray:2.88,1.44,2.88,1.44;marker-start:url(#startMarker1)"/><text id="text5368" x="282.433" y="215.674"><tspan style="font-size:8px;fill:#000;fill-opacity:1;stroke-opacity:1;font-family:Arial" id="tspan5370" font-size="8">pcpu_mask</tspan></text></g><g id="Layer1022" transform="matrix(1.6134241,0,0,1.6733416,-27.320753,68.655772)"><path id="path5373" d="m 544.3667,331.6535 0,-272.4094" style="fill:none;stroke:#1f497d;stroke-width:.47999999;stroke-linecap:round;stroke-linejoin:round;stroke-dasharray:2.88,1.44,2.88,1.44"/></g><g id="Layer1023" transform="matrix(1.6134241,0,0,1.6733416,-27.320753,68.655772)"><g id="Layer1024"><path id="path5381" d="m 506.5757,59.2441 75.5819,0 0,-25.2284 -75.5819,0 0,25.2284 z" style="fill:#9ab3d1;fill-rule:evenodd;stroke-width:.47999999;stroke-linecap:round;stroke-linejoin:round"/><path id="path5383" d="m 506.5757,59.2441 75.5819,0 0,-25.2284 -75.5819,0 0,25.2284 z" style="fill:none;stroke:#1f497d;stroke-width:.47999999;stroke-linecap:round;stroke-linejoin:round;stroke-dasharray:none"/></g><text id="text5385" x="510.576" y="46.63"><tspan style="font-size:8px;fill:#000;fill-opacity:1;stroke-opacity:1;font-family:Arial" id="tspan5387" font-size="8">librte_power(Host)</tspan></text></g><g id="Layer1025" transform="matrix(1.6134241,0,0,1.6733416,-27.320753,68.655772)"><defs id="defs5390"><marker id="endMarker3" markerHeight="6" markerUnits="strokeWidth" markerWidth="8" orient="auto" refX="1" refY="5" viewBox="0 0 10 10"><polyline id="polyline5393" fill="solid" points="0 0 10 5 0 10 1 5"/></marker></defs><path id="path5395" d="m 249.6969,262.6299 205.4799,-0.7086" style="fill:none;stroke:#1f497d;stroke-width:.47999999;stroke-linecap:round;stroke-linejoin:round;stroke-dasharray:none;marker-end:url(#endMarker3)"/><text id="text5397" x="303.069" y="251.674"><tspan style="font-size:8px;fill:#000;fill-opacity:1;stroke-opacity:1;font-family:Arial" id="tspan5399" font-size="8">scale_freq_up(pcpu_mask)</tspan></text></g><g id="Layer1026" transform="matrix(1.6134241,0,0,1.6733416,-27.320753,68.655772)"><path id="path5402" d="m 464.1768,297.9213 0,-36 -9,0 0,36 9,0 z" style="fill:#9ab3d1;fill-rule:evenodd;stroke-width:.47999999;stroke-linecap:round;stroke-linejoin:round"/><path id="path5404" d="m 464.1768,297.9213 0,-36 -9,0 0,36 9,0 z" style="fill:none;stroke:#000;stroke-width:.47999999;stroke-linecap:round;stroke-linejoin:round;stroke-dasharray:none"/></g><g id="Layer1027" transform="matrix(1.6134241,0,0,1.6733416,-27.320753,68.655772)"><defs id="defs5407"><marker id="endMarker4" markerHeight="6" markerUnits="strokeWidth" markerWidth="8" orient="auto" refX="1" refY="5" viewBox="0 0 10 10"><polyline id="polyline5410" fill="solid" points="0 0 10 5 0 10 1 5"/></marker></defs><path id="path5412" d="m 464.1768,279.9213 76.9925,0" style="fill:none;stroke:#1f497d;stroke-width:.47999999;stroke-linecap:round;stroke-linejoin:round;stroke-dasharray:none;marker-end:url(#endMarker4)"/><text id="text5414" x="465.318" y="269.319"><tspan style="font-size:8px;fill:#000;fill-opacity:1;stroke-opacity:1;font-family:Arial" id="tspan5416" font-size="8">rte_power_freq_up()</tspan></text></g><g id="Layer1028" transform="matrix(1.6134241,0,0,1.6733416,-27.320753,68.655772)"><path id="path5419" d="m 550.1693,297.9213 0,-18 -9,0 0,18 9,0 z" style="fill:#9ab3d1;fill-rule:evenodd;stroke-width:.47999999;stroke-linecap:round;stroke-linejoin:round"/><path id="path5421" d="m 550.1693,297.9213 0,-18 -9,0 0,18 9,0 z" style="fill:none;stroke:#000;stroke-width:.47999999;stroke-linecap:round;stroke-linejoin:round;stroke-dasharray:none"/></g><g id="Layer1029" transform="matrix(1.6134241,0,0,1.6733416,-27.320753,68.655772)"><path id="path5424" d="m 132.0591,154.4882 0,-18 -9,0 0,18 9,0 z" style="fill:#9ab3d1;fill-rule:evenodd;stroke-width:.47999999;stroke-linecap:round;stroke-linejoin:round"/><path id="path5426" d="m 132.0591,154.4882 0,-18 -9,0 0,18 9,0 z" style="fill:none;stroke:#000;stroke-width:.47999999;stroke-linecap:round;stroke-linejoin:round;stroke-dasharray:none"/></g><g id="Layer1030" transform="matrix(1.6134241,0,0,1.6733416,-27.320753,68.655772)"><defs id="defs5429"><marker id="endMarker5" markerHeight="6" markerUnits="strokeWidth" markerWidth="8" orient="auto" refX="1" refY="5" viewBox="0 0 10 10"><polyline id="polyline5432" fill="solid" points="0 0 10 5 0 10 1 5"/></marker></defs><path id="path5434" d="m 132.0591,154.4882 108.6378,0.1417" style="fill:none;stroke:#1f497d;stroke-width:.47999999;stroke-linecap:round;stroke-linejoin:round;stroke-dasharray:none;marker-end:url(#endMarker5)"/><text id="text5436" x="135.902" y="143.957"><tspan style="font-size:8px;fill:#000;fill-opacity:1;stroke-opacity:1;font-family:Arial" id="tspan5438" font-size="8">guest_channel_send_msg()</tspan></text></g><g id="Layer1031" transform="matrix(1.6134241,0,0,1.6733416,-27.320753,68.655772)"><defs id="defs5441"><marker id="startMarker2" markerHeight="6" markerUnits="strokeWidth" markerWidth="8" orient="auto" refX="9" refY="5" viewBox="0 0 10 10"><polyline id="polyline5444" fill="solid" points="10 0 0 5 10 10 9 5"/></marker></defs><path id="path5446" d="m 464.1768,297.9213 76.9925,0" style="fill:none;stroke:#1f497d;stroke-width:.47999999;stroke-linecap:round;stroke-linejoin:round;stroke-dasharray:2.88,1.44,2.88,1.44;marker-start:url(#startMarker2)"/><text id="text5448" x="486.673" y="287.319"><tspan style="font-size:8px;fill:#000;fill-opacity:1;stroke-opacity:1;font-family:Arial" id="tspan5450" font-size="8">status</tspan></text></g><g id="Layer1032" transform="matrix(1.6134241,0,0,1.6733416,-27.320753,68.655772)"><defs id="defs5453"><marker id="startMarker3" markerHeight="6" markerUnits="strokeWidth" markerWidth="8" orient="auto" refX="9" refY="5" viewBox="0 0 10 10"><polyline id="polyline5456" fill="solid" points="10 0 0 5 10 10 9 5"/></marker></defs><path id="path5458" d="m 249.6969,298.6299 205.4799,-0.7086" style="fill:none;stroke:#1f497d;stroke-width:.47999999;stroke-linecap:round;stroke-linejoin:round;stroke-dasharray:2.88,1.44,2.88,1.44;marker-start:url(#startMarker3)"/><text id="text5460" x="336.431" y="287.674"><tspan style="font-size:8px;fill:#000;fill-opacity:1;stroke-opacity:1;font-family:Arial" id="tspan5462" font-size="8">status</tspan></text></g><g id="Layer1033" transform="matrix(1.6134241,0,0,1.6733416,-27.320753,68.655772)"><path id="path5465" d="m 55.4053,154.4882 0,-18 -9,0 0,18 9,0 z" style="fill:#9ab3d1;fill-rule:evenodd;stroke-width:.47999999;stroke-linecap:round;stroke-linejoin:round"/><path id="path5467" d="m 55.4053,154.4882 0,-18 -9,0 0,18 9,0 z" style="fill:none;stroke:#000;stroke-width:.47999999;stroke-linecap:round;stroke-linejoin:round;stroke-dasharray:none"/></g><g id="Layer1034" transform="matrix(1.6134241,0,0,1.6733416,-27.320753,68.655772)"><defs id="defs5470"><marker id="endMarker6" markerHeight="6" markerUnits="strokeWidth" markerWidth="8" orient="auto" refX="1" refY="5" viewBox="0 0 10 10"><polyline id="polyline5473" fill="solid" points="0 0 10 5 0 10 1 5"/></marker></defs><path id="path5475" d="m 55.4053,136.4882 67.6538,0" style="fill:none;stroke:#1f497d;stroke-width:.47999999;stroke-linecap:round;stroke-linejoin:round;stroke-dasharray:none;marker-end:url(#endMarker6)"/><text id="text5477" x="51.877" y="125.886"><tspan style="font-size:8px;fill:#000;fill-opacity:1;stroke-opacity:1;font-family:Arial" id="tspan5479" font-size="8">rte_power_freq_up()</tspan></text></g><g id="Layer1035" transform="matrix(1.6134241,0,0,1.6733416,-27.320753,68.655772)"><defs id="defs5482"><marker id="startMarker4" markerHeight="6" markerUnits="strokeWidth" markerWidth="8" orient="auto" refX="9" refY="5" viewBox="0 0 10 10"><polyline id="polyline5485" fill="solid" points="10 0 0 5 10 10 9 5"/></marker></defs><path id="path5487" d="m 55.4053,154.4882 72.1538,0" style="fill:none;stroke:#1f497d;stroke-width:.47999999;stroke-linecap:round;stroke-linejoin:round;stroke-dasharray:2.88,1.44,2.88,1.44;marker-start:url(#startMarker4)"/><text id="text5489" x="75.482" y="143.886"><tspan style="font-size:8px;fill:#000;fill-opacity:1;stroke-opacity:1;font-family:Arial" id="tspan5491" font-size="8">status</tspan></text></g></svg>